<?xml version="1.0" encoding="utf-8"?>
<!-- Generator: Adobe Illustrator 28.2.0, SVG Export Plug-In . SVG Version: 6.00 Build 0)  -->
<svg version="1.1" id="Calque_1" xmlns="http://www.w3.org/2000/svg" xmlns:xlink="http://www.w3.org/1999/xlink" x="0px" y="0px"
	 viewBox="0 0 1051 1025" style="enable-background:new 0 0 1051 1025;" xml:space="preserve">
<style type="text/css">
	.st0{fill:#001E36;}
	.st1{fill:#31A7FD;}
</style>
<g>
	<path class="st0" d="M0,856c0-229,0-458,0-687c1-5.1,2.1-10.2,2.9-15.3C15.5,77.8,77.8,15.5,153.7,2.9C158.8,2,163.9,1,169,0
		c237.3,0,474.7,0,712,0c5.4,1,10.9,2,16.3,2.9c76,12.6,138.4,75,150.8,150.8c0.8,5.1,1.9,10.2,2.9,15.3c0,228.7,0,457.3,0,686
		c-1,5.3-2,10.6-2.9,15.9c-13.1,77.1-74,137.9-151.3,151.2c-5.6,1-11.2,1.9-16.9,2.9c-237.3,0-474.7,0-712,0
		c-0.8-0.4-1.6-0.9-2.5-1.1c-7-1.3-14.1-2.3-21.1-3.8C72.2,1004.2,14.9,943.8,2.9,871.3C2.1,866.2,1,861.1,0,856z M331.6,578.4
		c7.7,0,14.7-0.2,21.7,0c35.4,1.1,70.7-0.4,104.9-10.5c41.7-12.3,74.3-36.5,93.8-76c14.9-30.1,18.2-62.5,14.1-95.5
		c-6.4-51.9-32.9-90.3-79.8-114c-30.8-15.5-64-21.5-98.2-21.4c-47.8,0.2-95.6,1.4-143.5,2.1c-7.6,0.1-8.2,0.7-8.2,8.3
		c0,148.2,0,296.3,0,444.5c0,7.6,1,8.6,8.7,8.7c25.7,0,51.3,0,77,0c8.3,0,9.5-1.2,9.5-9.6c0-43.5,0-87,0-130.5
		C331.6,582.5,331.6,580.6,331.6,578.4z M614.3,667.8c0,8.8-0.1,17.7,0,26.5c0.2,18.2-3,17.2,17.3,24.9
		c26.6,10.1,54.5,13.5,82.8,14.5c26.3,0.9,52.3-1.2,77.4-9.8c43.7-15.1,71.8-43.8,76.6-91.4c3.9-39-10.7-69.9-43.9-91
		c-14.1-9-29.4-16.3-44.6-23.4c-17-8-34.6-14.5-51.7-22.4c-5.8-2.7-11.2-6.7-15.7-11.3c-10.9-11.1-6.5-27.9,8.3-32.7
		c6-1.9,12.3-3.3,18.6-3.5c34.8-1.3,68.4,3.9,99.9,19.4c7.8,3.8,11.6,1.3,11.6-7.4c0-21,0-42,0-63c0-11.5-0.4-12.5-11.5-16
		c-41.1-12.9-83.1-14.7-125.4-8.4c-26,3.9-48.9,14.7-68.2,32.9c-35.6,33.8-42.9,96.5-7.1,136.2c14.5,16.1,32.3,27.3,51.5,36.3
		c17,8,34.7,14.4,51.8,22.1c8.1,3.7,16.4,7.8,23.3,13.4c14.3,11.5,11.2,29.5-6.2,35.5c-8.2,2.8-17.2,4.4-25.9,4.7
		c-39.2,1.2-76.3-7.3-110.8-26.5c-6.2-3.5-8.1-2.4-8.1,5C614.3,644.1,614.3,655.9,614.3,667.8z"/>
	<path class="st1" d="M331.6,578.4c0,2.2,0,4.2,0,6.2c0,43.5,0,87,0,130.5c0,8.4-1.2,9.6-9.5,9.6c-25.7,0-51.3,0-77,0
		c-7.6,0-8.7-1-8.7-8.7c0-148.2,0-296.3,0-444.5c0-7.6,0.7-8.2,8.2-8.3c47.8-0.8,95.6-2,143.5-2.1c34.2-0.1,67.4,5.9,98.2,21.4
		c46.9,23.6,73.3,62,79.8,114c4.1,33,0.9,65.4-14.1,95.5c-19.5,39.5-52.1,63.7-93.8,76c-34.3,10.1-69.5,11.6-104.9,10.5
		C346.3,578.2,339.3,578.4,331.6,578.4z M332.2,495.9c14.6,0,28.7,0.2,42.9,0c17.6-0.3,34.8-3.2,51.4-9.1
		c16-5.7,29.2-15.3,37.6-30.4c7.7-13.7,8.9-28.9,7.7-44.1c-1.7-22.4-11.5-40.5-31.4-52.1c-12.2-7.1-25.8-11.3-39.8-12
		c-21.1-1-42.2-0.7-63.4-0.9c-1.6,0-3.3,0.4-5.1,0.7C332.2,396.9,332.2,445.7,332.2,495.9z"/>
	<path class="st1" d="M614.3,667.8c0-11.8,0-23.7,0-35.5c0-7.4,1.9-8.5,8.1-5c34.5,19.1,71.6,27.6,110.8,26.5
		c8.7-0.3,17.7-1.9,25.9-4.7c17.4-6,20.5-24,6.2-35.5c-6.9-5.5-15.1-9.7-23.3-13.4c-17.1-7.7-34.9-14.1-51.8-22.1
		c-19.2-9.1-37-20.2-51.5-36.3c-35.8-39.7-28.5-102.4,7.1-136.2c19.2-18.2,42.2-29,68.2-32.9c42.4-6.3,84.3-4.5,125.4,8.4
		c11.1,3.5,11.5,4.6,11.5,16c0,21,0,42,0,63c0,8.7-3.9,11.2-11.6,7.4c-31.6-15.5-65.2-20.6-99.9-19.4c-6.2,0.2-12.6,1.6-18.6,3.5
		c-14.8,4.8-19.2,21.6-8.3,32.7c4.4,4.6,9.9,8.6,15.7,11.3c17.1,7.9,34.7,14.4,51.7,22.4c15.2,7.1,30.4,14.5,44.6,23.4
		c33.2,21,47.8,52,43.9,91c-4.8,47.5-32.9,76.3-76.6,91.4c-25,8.6-51.1,10.7-77.4,9.8c-28.2-0.9-56.1-4.4-82.8-14.5
		c-20.2-7.6-17.1-6.6-17.3-24.9C614.2,685.4,614.3,676.6,614.3,667.8z"/>
	<path class="st0" d="M332.2,495.9c0-50.2,0-98.9,0-147.9c1.8-0.3,3.4-0.7,5.1-0.7c21.1,0.2,42.3-0.1,63.4,0.9
		c14,0.7,27.6,4.8,39.8,12c19.9,11.6,29.6,29.7,31.4,52.1c1.2,15.2-0.1,30.4-7.7,44.1c-8.4,15.1-21.7,24.6-37.6,30.4
		c-16.6,6-33.8,8.9-51.4,9.1C360.9,496,346.8,495.9,332.2,495.9z"/>
</g>
</svg>
