<?xml version="1.0" encoding="utf-8"?>
<!-- Generator: Adobe Illustrator 28.2.0, SVG Export Plug-In . SVG Version: 6.00 Build 0)  -->
<svg version="1.1" id="Calque_1" xmlns="http://www.w3.org/2000/svg" xmlns:xlink="http://www.w3.org/1999/xlink" x="0px" y="0px"
	 viewBox="0 0 595.3 841.9" style="enable-background:new 0 0 595.3 841.9;" xml:space="preserve">
<style type="text/css">
	.st0{fill:#03C0CC;}
	.st1{fill:#6641E4;}
	.st2{fill:#5657E0;}
	.st3{fill:#0AB6CE;}
	.st4{fill:#6B24F6;}
	.st5{fill:#1B9BD6;}
	.st6{fill:#FDFEFE;}
	.st7{fill:#7126F0;}
	.st8{fill:#782AEA;}
	.st9{fill:#2398D3;}
	.st10{fill:#496ADB;}
	.st11{fill:#3D77D9;}
	.st12{fill:#2E8AD6;}
	.st13{fill:#3384D7;}
	.st14{fill:#11ACD1;}
	.st15{fill:#1DA0D2;}
	.st16{fill:#16A5D3;}
	.st17{fill:#4D46F1;}
	.st18{fill:#5638F6;}
	.st19{fill:#5B32F7;}
	.st20{fill:#238FD9;}
	.st21{fill:#3475E1;}
	.st22{fill:#3F63E6;}
	.st23{fill:#4750EF;}
	.st24{fill:#2C7FDF;}
	.st25{fill:#465BE8;}
	.st26{fill:#2987DB;}
	.st27{fill:#3B6AE4;}
	.st28{fill:#5C40EC;}
</style>
<g>
	<path class="st0" d="M266-179.1c11.7,0,23.3,0,35,0c2.8,3.5,4.2,3.5,6,0c0.7,0,1.3,0,2,0c0.6,0.3,1.1,0.8,1.7,0.9
		c9.2,1.8,18.5,3.3,27.6,5.5c2.4,0.6,5.3,2.8,6.1,5c1.1,3.2,3.1,4.3,5.7,5.5c6.2,3.1,12.4,6.3,18.4,9.9c1.7,1,3.7,4,3.3,5.4
		c-1.1,4.2,1.7,5.7,4,7.6c7.9,6.5,15,13.6,19.2,23.2c1.3,3,2,6.2,2.9,9.3c-0.5,0.2-1,0.5-1.5,0.7c-5.7-10.4-11.8-20.5-22-27.2
		c4.4,7.2,10.3,13.5,14.3,20.8c4.1,7.4,6.8,15.8,9.1,24c2.3,8.4,3.3,17.2,1.3,26c-1.9,8.4-3,17-5.6,25.1c-2.6,8.1-6.5,15.8-9.9,23.7
		c9.8-12.7,13.3-28.1,18.9-42.7c0.1,5.1,0.4,10.2-1.3,14.7c-3.8,9.9-8.5,19.4-12.8,29.1c-1.8,4-3.7,8-5.2,12.1
		c-1.2,3.4-1.3,7.4-3,10.5c-2,3.7-5.4,6.7-7.8,10.2c-2.3,3.3-4.2,7-6.3,10.4c-2.3,0.1-4.7,0.2-7,0.2c-26.2,0.3-52.1,4-77.4,10.7
		C209.9,60.7,150.1,99.2,101,154.4c-15.8,17.7-29.1,37.6-43.5,56.5c-1.7-0.7-3.4-1.7-5.2-1.9c-4.9-0.6-9.9-0.7-14.8-1.2
		c-13.4-1.5-26.7-4.1-40.1-1c-0.7,0.2-1.6-0.2-2.4-0.4c-8.9-2.7-17.7-5.5-26.6-8.2c-6.5-2-13-4.1-19.5-6.1c-0.2,0.5-0.4,1-0.6,1.4
		c5.5,2.8,11.1,5.5,16.6,8.3c-0.2,0.4-0.4,0.9-0.6,1.3c-4.7-1.8-9.4-3.6-14.1-5.6c-9.3-4-17.8-10.7-29-8.6c-1,0.2-2.3-0.4-3.3-1
		c-11.4-7.1-21.8-15.4-30.5-25.8c-5.1-6-10.5-12.2-17-16.6c-3.9-2.7-8.2-4.3-10.1-9.1c-1.8-4.6-3.3-9.4-5.4-13.9
		c-1.7-3.7-4.1-7.1-6.1-10.7c-0.6,0.3-1.2,0.6-1.7,0.8c0.9,3.7,1.7,7.3,2.6,11c-0.4,0.2-0.8,0.3-1.2,0.5c-0.5-0.8-0.9-1.6-1.4-2.4
		c-1-1.6-1.7-3.7-3.2-4.6c-5.2-3.4-8.3-7.8-8.9-14c-0.6-7-2.3-13.6-7.3-19.1c-1.3-1.4-2.6-3.6-2.5-5.3c0.6-8.1-5.2-15.6-2.3-23.9
		c5.5-7,10.8-14.1,16.6-20.9C-111-24.9-52.4-72.4,15.3-108.6c47.3-25.3,97.2-44,149.6-55.7c27.7-6.2,55.7-10.7,84-12.8
		C254.6-177.6,260.3-178.5,266-179.1z"/>
	<path class="st1" d="M898,452.9c-0.7,3-1.8,5.9-1.9,8.9c-0.6,23.3-3.7,46.4-8.6,69.2c-4,18.3-8.3,36.6-12.4,54.9
		c-0.4,1.7-1.2,3.4-1.8,5.1c-1.7,0.6-3.6,1-5,1.9c-12.2,7.7-24.4,15.3-36.5,23.3c-6.1,4-12.6,7.7-17.4,13
		c-7.7,8.4-15.7,16.1-25.3,22.3c-2.3,1.5-4,3.8-6.1,5.7c-2.5,2.3-4.7,5.5-7.7,6.6c-7.1,2.5-12.8,6.3-17.1,12.4
		c-0.9,1.2-2.6,1.8-4,2.7c-6.9,4.4-14,8.6-20.7,13.3c-5.5,3.8-10.6,8.2-15.8,12.5c-3.6,3-7,6.3-10.7,9.2c-3.8,3-7.8,5.7-11.7,8.5
		c-3.5,2.5-8.4,4.2-10.1,7.6c-3.2,6.2-9,7.2-14.1,10c-5.5,3-11.1,5.7-16.4,9c-6.5,4-11.4,10.8-20.3,10.2c-1.5-0.1-3.3,1.5-4.5,2.7
		c-4.2,4.1-7.9,9-15,7.2c-1-0.3-2.6,0.6-3.6,1.4c-3.2,2.3-6.2,5-9.4,7.2c-1.3,0.9-3.1,1.4-4.7,1.7c-2.3,0.4-4.8-0.2-6.8,0.7
		c-3.3,1.5-6.2,3.9-9.4,5.6c-8.4,4.7-15.9,11.7-26.5,11.5c-1.3,0-2.9,1-3.9,2c-7,7.3-16.1,10.3-25.4,12.8c0.2-3.9,0.4-7.7,0.7-12.1
		c-1.6,0.2-4.4-0.2-5.6,0.9c-5.6,5.3-11.3,3.6-17.4,1.2c-1.7-0.7-4.4,0-6.1,1c-2.8,1.6-5.2,3.9-7.7,5.9c-7.4-6.2-7.4-6.2-15.4-1
		c-0.4,0.3-0.8,0.8-1.2,0.8c-1.3,0.1-2.6,0-3.9-0.1c0.3-1.3,0.2-3.2,1.1-3.8c4.2-2.9,8.5-5.7,13-8.1c8.6-4.5,17.6-8.3,25.9-13.3
		c5.9-3.5,11-8.3,18.2-13.9c-2.1-1.9-3.7-3.4-5.5-5.1c-0.4,0.5,0.4-0.1,0.5-0.8c0.3-1.3,0.1-2.6,0.2-3.9c-1.3,0.2-2.8,0.1-3.8,0.7
		c-1.6,1.1-2.7,2.9-4.3,4.2c-2.7,2.1-5.6,4-8.3,5.9c-2-4.1-3.5-7.1-5.2-10.7c2.1-1.3,5.2-3,8.2-4.9c5.3-3.3,10.7-6.5,16-9.9
		c3.1-2,6.2-4,9.1-6.2c3.5-2.6,6.8-5.5,10.4-8.1c2.2-1.7,4.8-2.9,7.1-4.5c3.5-2.5,6.6-5.6,10.2-7.9c6.1-4,12.5-7.7,18.8-11.5
		c2-0.9,4.2-1.5,6.1-2.7c2.8-1.8,5.2-4.2,8-5.8c3.9-2.2,8.6-3.1,12-5.8c5.6-4.7,11.1-9.2,17.9-12.4c6.6-3.2,12.6-8,18.5-12.5
		c2.8-2.1,4.8-5.2,7.1-7.9c0.9-1,1.5-2.1,2.5-3c4.2-3.5,8.6-6.7,12.7-10.2c2.7-2.4,5-5.2,7.7-7.6c7.1-6.6,14.4-12.9,21.5-19.6
		c9.7-9.2,19.2-18.6,28.9-27.8c2.4-2.2,5.3-3.9,7.7-6c5.4-4.7,10.8-9.6,16.1-14.5c2.3-2.2,4.8-4.3,6.6-6.9c2.4-3.6,4.6-6.9,9.7-6.5
		c1.1,0.1,2.6-1,3.6-1.9c4.3-4.4,8.2-9.2,12.7-13.3c5.5-5,11.5-9.5,17.1-14.4c6.1-5.4,11.9-11.1,17.8-16.7c4.2-4,8.3-8.1,12.4-12.2
		c8.3-8.2,16.3-16.6,25-24.4c10.3-9.2,21.1-17.7,29.4-28.9c4.3-5.9,9.8-10.9,15-16.6c1.1,2.3,1.7,3.4,2.2,4.6
		C898,440.2,898,446.6,898,452.9z"/>
	<path class="st2" d="M898,433.9c-0.6-1.2-1.1-2.3-2.2-4.6c-5.2,5.7-10.7,10.7-15,16.6c-8.3,11.2-19.1,19.7-29.4,28.9
		c-8.7,7.8-16.7,16.2-25,24.4c-4.1,4.1-8.2,8.2-12.4,12.2c-5.9,5.6-11.7,11.3-17.8,16.7c-5.6,5-11.6,9.4-17.1,14.4
		c-4.5,4.2-8.4,8.9-12.7,13.3c-0.9,0.9-2.4,2-3.6,1.9c-5.1-0.4-7.3,2.8-9.7,6.5c-1.7,2.6-4.2,4.7-6.6,6.9
		c-5.3,4.9-10.6,9.7-16.1,14.5c-2.5,2.1-5.4,3.8-7.7,6c-9.7,9.2-19.2,18.6-28.9,27.8c-7,6.7-14.4,13-21.5,19.6
		c-2.7,2.4-5,5.3-7.7,7.6c-4.1,3.5-8.5,6.8-12.7,10.2c-1,0.8-1.7,2-2.5,3c-2.3,2.7-4.3,5.8-7.1,7.9c-5.9,4.5-11.9,9.3-18.5,12.5
		c-6.8,3.2-12.2,7.7-17.9,12.4c-3.3,2.7-8.1,3.6-12,5.8c-2.9,1.6-5.2,4-8,5.8c-1.8,1.2-4,1.8-6.1,2.7c-1.8,0.1-3.9-0.4-5.3,0.3
		c-8.1,4.1-16.1,8.6-24.8,13.3c0-2.6,0-5.3,0-8.3c-3.1-0.4-5.9-1.4-8.5-1.1c-6.7,0.9-12.2,5.7-19.4,6c-5.1,0.2-10.2,2.1-15.3,3.5
		c-1.5,0.4-3.1,1.3-4.2,2.4c-3.5,3.6-7.7,4.9-12.5,5c-1.8,0-3.8,0.9-5.5,1.7c-5.7,2.7-10.3,8.1-17.6,6.2c0.8-0.8,1.5-1.7,2.4-2.5
		c19.7-17.5,37.2-37,52.8-58.3c15.6-21.2,28.4-44.1,38.8-68.2c3.8-1.5,7.5-3,11.4-4.6c0.5,1.1,1,2.3,2.1,4.7c2.9-3,5.3-5.3,7.5-7.8
		c2.3-2.6,4.5-4.7,8.4-3.2c1.2,0.5,2.9,0.3,4.1-0.3c4.7-2.3,9.9-3.9,12.9-8.9c0.5-0.9,1.9-1.2,2.9-1.7c3.2-1.5,6.4-2.9,9.6-4.4
		c2.8-1.3,5.7-2.5,8.5-3.8c1.1-0.6,2.6-1.2,3.1-2.2c4.3-7.4,11.4-11,18.9-14c1.4-0.5,2.9-0.9,4-1.8c8.1-6.6,16.1-13.3,24.1-20
		c0.6-0.5,1.2-1.4,1.9-1.5c8.8-1.7,12.1-11.8,20.9-13.5c0.7-0.1,1.1-1.9,1.7-2.8c0.9-1.4,1.7-2.8,2.8-4c6.3-6.9,16.2-10,20.1-19.4
		c0.4-0.9,1.8-1.4,2.7-2.1c6.3-5.2,12.8-10.2,18.8-15.7c8.9-8.2,17.5-16.9,26.3-25.2c6.5-6.1,13.3-11.9,19.8-17.9
		c2.9-2.7,5.5-5.6,8.2-8.5c7.4-8.1,14.7-16.2,22-24.2c2.3-2.6,5-4.8,7.3-7.4c10.1-11.4,20-23,30.1-34.4c3-3.4,6.5-6.6,9.5-10
		c1.3-1.5,1.6-3.6,2.8-5.2c3.7-5.1,7.5-10.1,11.5-14.9c1.5-1.8,3.7-3,5.7-4.4c1.8,18.3,3.5,36.6,5.4,54.9c0.3,2.8,1.3,5.6,1.9,8.4
		C898,405.2,898,419.6,898,433.9z"/>
	<path class="st3" d="M329-179.1c5.9,0.6,11.7,1.5,17.6,1.9c59.6,4.5,117.1,18.1,172.7,40.1c2.3,0.9,4.5,2,6.7,3.1
		c0.1,1.8,0,3.7,0.4,5.4c3.3,15.4,2.1,30.8,0,46.2c-1,7.2-2.7,14.6-1.9,21.6c0.7,6.6-0.4,12.3-2.6,18.3C517.1-30,513-17.3,508.3-4.8
		c-2.2,6-4.9,11.8-7.7,17.5c-2.2,4.6-5.1,8.9-7.5,13.4c-2.5,4.8-4.8,9.7-7.1,14.6c-2.1,4.4-4.1,8.9-6.2,13.4
		c-16.7-7.8-34.1-13.6-52.2-17.3c-20.4-4.2-41-5.9-61.8-6.2c2.1-3.5,4-7.1,6.3-10.4c2.5-3.5,5.8-6.5,7.8-10.2
		c1.7-3.1,1.8-7.1,3-10.5c1.5-4.1,3.4-8.1,5.2-12.1c4.3-9.7,9.1-19.2,12.8-29.1c1.7-4.4,1.4-9.6,1.3-14.7
		c-5.6,14.6-9.1,30-18.9,42.7c3.4-7.9,7.3-15.6,9.9-23.7c2.6-8.1,3.7-16.7,5.6-25.1c2-8.8,1.1-17.6-1.3-26c-2.3-8.2-5-16.6-9.1-24
		c-4-7.3-10-13.5-14.3-20.8c10.3,6.7,16.4,16.8,22,27.2c0.5-0.2,1-0.5,1.5-0.7c-1-3.1-1.6-6.4-2.9-9.3c-4.2-9.5-11.3-16.7-19.2-23.2
		c-2.3-1.9-5.2-3.4-4-7.6c0.4-1.4-1.6-4.4-3.3-5.4c-5.9-3.6-12.2-6.8-18.4-9.9c-2.5-1.3-4.6-2.3-5.7-5.5c-0.7-2.1-3.7-4.4-6.1-5
		c-9.1-2.2-18.4-3.7-27.6-5.5c-0.6-0.1-1.1-0.6-1.7-0.9C315.7-179.1,322.3-179.1,329-179.1z"/>
	<path class="st4" d="M265,1020.9c-5.2-0.7-10.3-1.5-15.5-1.9c-34.7-2.6-68.9-8.4-102.6-17.1c-42.3-10.9-83-26.4-122-46.2
		c-1-0.5-2-1.2-3-1.8c1.8-0.5,3.6-1.3,5.4-1.5c1.4-0.2,2.9,0.4,4.3,0.2c12.5-1.5,24.9-3,37.3-4.6c2-0.2,4.2,0,5.8-0.9
		c4.4-2.5,9.1-2.2,13.9-2.1c2.9,0,5.8-1,8.7-1.6c1.9-0.4,4.1-1.6,5.8-1.1c4.8,1.4,8.7-0.4,12.9-2.1c1.7-0.7,3.8-0.6,5.7-0.6
		c1.5,0,3,0.5,4.4,0.3c12.1-2.3,24.2-4.8,36.3-7c2.7-0.5,5.7,0.5,8.2-0.3c4.3-1.4,7.7-3.8,13.1-3.3c7.6,0.6,15.5-1.9,23.3-2.9
		c6.1-0.8,12.1-3.7,18.3,0.3c1,0.6,3.3-0.7,5-1.3c2.9-1,5.7-2.4,8.7-3.2c3.2-0.8,6.5-1.2,9.8-1.5c1.8-0.1,4.8-0.2,5.3,0.7
		c2.3,4.3,5.5,2.9,8.5,1.7c2.6-1,5-2.5,7.8-4c3.5,5.9,7.8,3.3,12.5,1.6c3.8-1.4,8.4-3.1,12-2.2c3.8,1.1,6.4,0.8,9.8-0.7
		c2.6-1.2,6.6-2.8,8.2-1.7c4.7,3.3,7.1,1.6,9.8-2.2c2-2.7,4.5-5.1,8.3-2c1,0.8,2.8,1.1,4.2,1c6-0.4,11.9,1.5,18.1-1.7
		c6-3.1,13.4-3.5,20.2-5.1c1.1-0.3,2.5-0.3,3.3-0.9c4.9-4.3,10.4-6.9,17-6.3c2.8-0.1,5.6-0.3,8.7-0.4c1,4.5-0.4,7.2-5,8.6
		c-3.5,1.1-5.8,3.4-4.9,7.9c0.3,1.5-0.8,3.4-1.7,6.3c-1.6-2.5-2.4-3.7-2.8-4.4c-2.9,3.9-5.7,7.6-8.5,11.4c0.5,0.4,1.3,1.1,2.1,1.8
		c-0.6,0.6-0.8,1.2-1.2,1.3c-6.5,2.6-7.6,4.3-7.7,11.4c0,2.5,0.2,5.1-0.4,7.4c-4,15.8-8.1,31.7-12.6,47.4c-1.7,5.9-4.7,11.2-10.1,15
		c-1.8,1.3-2.7,4-4,6.1c-5.7,0.7-11.3,1.4-17,2.1C307.7,1020.9,286.3,1020.9,265,1020.9z"/>
	<path class="st5" d="M-298.8,482.9c-0.7-9-1.4-18-2.2-26.9c-0.1-1-0.6-2.1-1-3.1c0-21.3,0-42.7,0-64c0.6-4.7,1.3-9.5,1.9-14.2
		c1.1,1.6,2,3.7,3.4,4.8c6.3,5,12.9,9.6,19.3,14.4c2.5,1.9,4.6,4.2,7.2,5.7c3.7,2.1,8,5.3,11.6,4.8c5.9-0.8,9.2,2.5,13.3,4.7
		c1.7,0.9,3.5,2,5.4,2.6c12.5,4.1,25,8,37.4,12.1c2.9,1,5.5,3.6,8.4,3.8c8.9,0.5,17.8,0.3,26.7,0.2c5.7-0.1,11.5,0,17.1-0.9
		c11.2-1.7,22.1-6,33.7-5.1c2.7,0.2,5.6,0.5,8.3,0.2c4.7-0.5,9.3-0.9,14.1-2.6c7-2.4,15.1-1.3,22.6-3.4c6.9-2,14.3-2.4,21.5-3.4
		c12.4-1.7,24.9-3.2,37.3-4.8c-1.5,19.3-2.9,38.7-4.4,58c-6.8,1.4-13.5,2.7-20.3,4c-6.8,1.3-13.5,2.6-20.3,3.7
		c-14,2.3-27.8,6.1-42.2,5.4c-2.2-0.1-4.5,0.9-6.8,1.3c-4.6,0.9-9.3,1.8-13.9,2.6c-1.6,0.3-3.3,0.5-4.9,0.7
		c-7.8,1.1-15.7,2.5-23.6,3.2c-8,0.8-16.1,0.5-24.1,1.4c-12.5,1.3-24.9,3.7-37.4,4.6c-9.4,0.7-18.9-0.2-28.3-0.4
		c-2,0-3.9-0.1-5.9-0.1c-5,0-9.9,0.1-14.9,0.2c-4.7,0.1-9.4,0.2-14.1,0.1c-2.1-0.1-4.2-0.6-6.1-1.2c-5.7-1.9-9.1-9.4-16.8-6.6
		C-297.1,484.9-298.1,483.5-298.8,482.9z"/>
	<path class="st3" d="M307-179.1c-1.8,3.5-3.2,3.5-6,0C303-179.1,305-179.1,307-179.1z"/>
	<path class="st6" d="M-17,465.9c1.5-19.3,2.9-38.7,4.4-58c1.9-12,3.8-24,5.7-36c0.9-3.8,1.6-7.6,2.6-11.3
		c3.7-13.9,7.5-27.8,11.3-41.7c3.8-10.4,7.5-20.9,11.6-31.3c10.4-26.9,23.9-52.2,38.9-76.8c14.4-18.9,27.8-38.8,43.5-56.5
		c49.1-55.1,108.9-93.7,180.6-112.8c25.3-6.7,51.1-10.4,77.4-10.7c2.3,0,4.7-0.1,7-0.2c20.8,0.3,41.4,2,61.8,6.2
		c18.1,3.7,35.4,9.6,52.2,17.3c22.5,11.3,41.9,26.5,57.1,46.8c12.9,18.7,20,39.6,23,62c0.4,15.8,1,31.7-3.2,47
		c-3.6,13.5-8.6,26.6-13,39.9c-2.9,5.2-5.6,10.5-8.9,15.5c-16.7,25.8-38.4,45.7-68.3,55c-11.3,3.5-23,5.7-34.6,0.8
		c-6.7-5.2-9.8-11.6-6.8-20.1c1.5-4.3,2.7-8.6,4-13c0.3-0.3,0.8-0.6,1-1c9.9-20.5,21.3-40.4,26.7-62.7c1.9-8,2.8-16.2,4.2-24.3
		c0.4-0.9,1-1.7,1-2.6c0-12.7,0.8-25.6-0.5-38.2c-1.6-14.8-6.8-28.7-16.5-40.4c-4.7-4.9-8.8-10.5-14.1-14.6
		c-22-17.1-47.6-20.2-74.3-17.8c-35.9,3.3-67.8,17.2-96.8,37.9c-42.2,30.1-73.2,69.7-96.7,115.5c-6.8,13.3-12.2,27.2-18.3,40.9
		c-6.1,19-12.2,38.1-18.3,57.1c-0.7,2.7-1.7,5.4-2.2,8.1c-2.9,15.7-5.7,31.4-8.5,47c-1.2,10-2.5,20-3.7,30c-0.7,10.3-1.3,20.7-2,31
		c-0.1,11.3-0.2,22.7-0.2,34c0.5,10,0.9,20,1.4,30c2.7,16.7,5.4,33.5,8,50.2c2.2,7.9,4.4,15.8,6.7,23.8c5.4,18.3,13,35.7,22.9,52.1
		c8.3,14.4,17.9,27.7,29.8,39.3c12.3,13.4,26.7,24.1,42.8,32.3c40.5,20.9,83.2,23.7,126.8,13.4c66.3-15.6,116.3-55,155.7-109.1
		c3-3.9,6.5-7.5,9.1-11.6c10.1-16.7,19.8-33.7,29.8-50.5c2.3-3.8,4.6-7.7,7.6-11c3.8-4,9-3.9,13.4-0.6c1,0.8,2.1,1.6,3.1,2.4
		c4.4,7.1,5.1,14.9,3.3,22.6c-2.7,11.9-6.3,23.7-9.5,35.5c-10.5,24.1-23.3,47-38.8,68.2c-15.6,21.2-33,40.8-52.8,58.3
		c-0.9,0.8-1.6,1.7-2.4,2.5c-0.7,0.5-1.4,0.9-2,1.5c-23.5,20.2-49.2,37-77.5,49.6c-34.8,15.5-71.3,23.3-109.4,24.1
		c-14.5-1.3-29,0.5-43.6-2.2c-22.2-4-44.3-8.1-65.6-16c-19.1-7.1-37-16.6-54.2-27.3c-15.2-12.9-30.4-25.8-45.6-38.7
		c-8.3-10-16.6-20.1-24.9-30.1c-8.7-15.3-17.4-30.6-26.2-45.9c-2.9-7-5.9-14-8.8-21c-0.5-1.7-1.1-3.5-1.6-5.2
		C2.9,609-1.7,593.3-6.4,577.7c-2-11-4-22.1-6-33.1c-1-9.2-2-18.5-3-27.7C-15.9,499.9-16.5,482.9-17,465.9z"/>
	<path class="st3" d="M57.5,210.9c-15,24.5-28.4,49.9-38.9,76.8c-4,10.4-7.7,20.8-11.6,31.3c-5.4,0.7-11.2,0.5-16.1,2.5
		c-6.4,2.6-12.5,3.3-19.2,2.6c-3.3-0.3-7.4-0.2-10.1,1.4c-5.2,3-10.6,2.6-16,2.3c-4.4-0.2-8.8-1.2-13.2-2
		c-26.9-4.7-52.8-12.7-77.3-24.6c-13.3-6.4-26.3-13.5-39-20.9c-14.7-8.5-28.3-18.7-40.5-30.6c-6.4-6.2-12.4-12.8-18.6-19.1
		c-0.3-0.3-0.9-0.2-1.7-0.3c0.1,1.6,0.2,2.9,0.4,6.1c-3.1-2.4-5.3-3.7-6.9-5.4c-2.2-2.4-4-5.3-6-7.9c-2.5-3.2-5.2-6.3-7.8-9.4
		c7.5-17.9,14.3-36,22.5-53.5c17.1-36.5,38.4-70.5,62.8-102.6c0.8-1,1.8-2,2.7-2.9c-2.8,8.3,2.9,15.7,2.3,23.9
		c-0.1,1.7,1.2,3.9,2.5,5.3c5,5.5,6.7,12.1,7.3,19.1c0.5,6.3,3.7,10.7,8.9,14c1.4,0.9,2.1,3,3.2,4.6c0.5,0.8,0.9,1.6,1.4,2.4
		c0.4-0.2,0.8-0.3,1.2-0.5c-0.9-3.7-1.7-7.3-2.6-11c0.6-0.3,1.2-0.6,1.7-0.8c2.1,3.5,4.4,7,6.1,10.7c2.1,4.5,3.5,9.3,5.4,13.9
		c1.9,4.7,6.1,6.4,10.1,9.1c6.5,4.4,11.8,10.6,17,16.6c8.8,10.4,19.1,18.7,30.5,25.8c1,0.6,2.3,1.2,3.3,1c11.2-2.1,19.6,4.6,29,8.6
		c4.6,2,9.4,3.7,14.1,5.6c0.2-0.4,0.4-0.9,0.6-1.3c-5.5-2.8-11.1-5.5-16.6-8.3c0.2-0.5,0.4-1,0.6-1.4c6.5,2,13,4.1,19.5,6.1
		c8.9,2.8,17.7,5.5,26.6,8.2c0.8,0.2,1.7,0.6,2.4,0.4c13.5-3.1,26.8-0.5,40.1,1c4.9,0.5,9.9,0.6,14.8,1.2
		C54.1,209.2,55.7,210.2,57.5,210.9z"/>
	<path class="st7" d="M346,1018.8c1.3-2.1,2.2-4.8,4-6.1c5.4-3.8,8.4-9.1,10.1-15c4.5-15.7,8.5-31.6,12.6-47.4
		c0.6-2.4,0.3-5,0.4-7.4c0-7.1,1.1-8.8,7.7-11.4c0.4-0.2,0.7-0.7,1.2-1.3c-0.8-0.7-1.6-1.4-2.1-1.8c2.8-3.8,5.6-7.5,8.5-11.4
		c0.4,0.6,1.2,1.8,2.8,4.4c0.8-2.9,2-4.8,1.7-6.3c-0.9-4.4,1.4-6.8,4.9-7.9c4.7-1.4,6-4.1,5-8.6c-3,0.1-5.9,0.3-8.7,0.4
		c0.7-2.8,0.6-6.3,2.3-8.2c2.5-2.7,6.1-4.4,9.5-6.1c4.7-2.3,9.3-4.5,9.8-10.7c0-0.6,0.6-1.3,1.1-1.6c5.7-3.8,11.3-7.6,17.2-11.1
		c4.9-2.9,10.2-5.2,15.1-8.1c1.1-0.7,1.4-2.8,2-4.2c0.5,0,1.1,0.1,1.5-0.1c7.9-4.9,17.7-6.2,24.9-12.6c1.4-1.2,3.5-1.7,5.3-2.3
		c2.8-0.8,6.7-0.3,8.4-2.1c5.9-6.1,12.8-9.8,20.8-12.5c4.7-1.6,8.8-4.9,13.1-7.5c9.3-2.5,18.4-5.5,25.4-12.8c1-1,2.6-2,3.9-2
		c10.6,0.2,18.1-6.8,26.5-11.5c3.2-1.8,6.1-4.2,9.4-5.6c2-0.9,4.5-0.3,6.8-0.7c1.6-0.3,3.4-0.7,4.7-1.7c3.2-2.3,6.2-4.9,9.4-7.2
		c1-0.8,2.6-1.6,3.6-1.4c7.1,1.8,10.8-3.1,15-7.2c1.3-1.2,3.1-2.8,4.5-2.7c8.9,0.6,13.9-6.2,20.3-10.2c5.3-3.3,10.9-6,16.4-9
		c1.3,7.1-3.2,10.4-8.3,13.7c-4.5,3-8.5,6.8-12.7,10.1c-3.4,2.7-6.9,5.1-10.1,8.1c-1.5,1.4-2.3,3.6-3.2,5.6c-1,2-1.3,4.9-2.9,6.1
		c-4.6,3.7-9.7,6.7-14.6,10c0.3,0.6,0.6,1.2,0.9,1.7c7.2,0.6,12-4.1,16.5-10.2c0.8,1.7,1.6,2.6,1.8,3.7c1.6,8.3,3.5,16.5,4.5,24.8
		c1.4,12.1,2.8,24.4,2.9,36.6c0.3,19.9-0.5,39.9-0.8,59.8c-11.1,7.3-22.1,14.7-33.3,21.8c-49.7,31.7-103.5,54-160.3,69.2
		c-27.8,7.4-56,12.9-84.7,15.8C359.9,1017.6,352.9,1018.2,346,1018.8z"/>
	<path class="st8" d="M645.1,910.1c0.3-19.9,1-39.9,0.8-59.8c-0.2-12.2-1.5-24.4-2.9-36.6c-1-8.3-2.9-16.6-4.5-24.8
		c-0.2-1-0.9-2-1.8-3.7c-4.5,6.1-9.3,10.8-16.5,10.2c-0.3-0.6-0.6-1.2-0.9-1.7c4.9-3.3,10-6.4,14.6-10c1.6-1.3,1.9-4.1,2.9-6.1
		c1-1.9,1.7-4.2,3.2-5.6c3.1-2.9,6.7-5.4,10.1-8.1c4.2-3.4,8.2-7.2,12.7-10.1c5.1-3.4,9.6-6.7,8.3-13.7c5-2.8,10.9-3.8,14.1-10
		c1.7-3.4,6.6-5.1,10.1-7.6c3.9-2.8,8-5.5,11.7-8.5c3.7-2.9,7-6.2,10.7-9.2c5.2-4.3,10.3-8.6,15.8-12.5c6.7-4.7,13.8-8.9,20.7-13.3
		c1.4-0.9,3.1-1.5,4-2.7c4.3-6.2,10-9.9,17.1-12.4c3-1,5.2-4.3,7.7-6.6c2.1-1.9,3.8-4.2,6.1-5.7c9.6-6.2,17.7-13.8,25.3-22.3
		c4.8-5.3,11.4-9,17.4-13c12-7.9,24.3-15.6,36.5-23.3c1.5-0.9,3.4-1.3,5-1.9c-6.1,17.8-11.3,35.9-18.3,53.2
		c-43.7,108.2-113.2,196.2-207.6,264.7C646.6,909.4,645.8,909.7,645.1,910.1z"/>
	<path class="st9" d="M110.2,453.9c0.7-10.3,1.3-20.7,2-31c3.3-0.3,6.7-0.1,9.8-1c20.8-5.8,41.5-11.6,62.2-17.7
		c10-2.9,19.7-6.6,30.4-6.7c4.8,0,9.6-2.2,14.3-3.7c9.1-2.9,17.9-7.7,27.2-8.5c17.3-1.6,32.9-8.7,49-13.7c12.8-4,25.1-9.5,37.7-14.1
		c4.5-1.6,9.3-2.3,13.7-4c6.8-2.7,13.3-6.1,20-8.8c2.9-1.2,6.3-1.2,9.4-1.8c2.3-1.5,4.9-2.3,7.4-3c1.7-0.5,3.7-0.3,5.3-1
		c10.1-4.7,20.1-9.6,30-14.5c1.3-0.6,2.1-2.2,3.2-3.4c11.7,5,23.3,2.7,34.6-0.8c29.9-9.3,51.6-29.1,68.3-55c3.2-5,5.9-10.3,8.9-15.5
		c0.7,0,1.5,0.2,2-0.1c3.5-2.2,6.6-5.4,11.5-4.2c0.6,0.2,1.9-2,2.7-3.1c0.7-0.9,0.8-2.3,1.6-3c6.5-5.8,13.2-11.5,19.7-17.4
		c1.5-1.4,2.5-3.4,3.6-5.2c1.3-2,2.2-4.6,4-6.1c6.7-5.8,13.7-11.3,20.4-17c1.3-1.1,2.4-2.7,3.3-4.2c1.9-3.4,3.4-6.9,5.3-10.3
		c2.1-3.8,4.3-7.7,6.7-11.3c1.1-1.8,2.8-3.2,4.2-4.8c3.5-3.9,7.7-7.5,10.3-11.9c3.9-6.7,6.7-14,10-21.1c0.3-0.6,0.7-1.1,1.2-1.6
		c4.2-4.8,9-9.3,12.6-14.5c4.9-7.3,9.2-15.1,13.3-22.8c1.4-2.6,1.4-5.8,2.2-8.7c0.3-1.2,0.7-2.6,1.5-3.6
		c5.7-7.5,11.5-14.9,17.2-22.4c0.9-1.2,2-2.8,1.8-4c-0.9-5.7,2.3-10.1,4.2-15c2.3-6,3.8-12.4,6.6-18.1C713,12,718.2,5.6,717.1-3
		c-0.1-1,0.6-2.2,1-3.3c1.3,0.9,2.9,1.5,4,2.7c12.5,13.6,25,27.1,37.4,40.9c3.8,4.2,7.1,9,10.6,13.5c-1.8,4.8-3.1,9.9-5.7,14.2
		c-3.5,5.8-6.3,11.6-8.9,17.9c-5.2,12.6-12.5,24.4-19.2,36.3c-1.2,2.2-4.4,3.6-5.2,5.9c-2.5,7.6-7.6,13.5-11.7,20.1
		c-9.8,16.1-18.4,32.9-32.1,46.5c-6.1,6-11.3,12.9-16.4,19.7c-7.6,10.1-11.9,22.7-22.9,30.3c-0.6,0.4-0.8,1.5-1.3,2.1
		c-3.7,4.2-7.2,8.5-11.1,12.5c-5.3,5.5-10.9,10.8-16.1,16.3c-3,3.2-5.4,6.9-8.5,9.9c-2.8,2.7-7.1,4.2-9.3,7.3
		c-2.9,4.1-5.4,7.6-11.4,5c0.4,6.2-3.7,8.1-7.5,10.2c-1.7,1-3.5,1.9-5.1,3c-4.5,3.1-7.2,9.1-14.1,8.5c-0.7-0.1-1.6,1.5-2.4,2.3
		c-1.2,1.1-2.2,2.5-3.5,3.4c-7,4.4-14.1,8.6-21.1,12.9c-4.2,2.5-8.3,5.2-12.6,7.4c-1.8,0.9-5.4,0.4-5.9,1.6c-2.7,5.8-8.8,5.9-13,9
		c-0.7,0.3-1.3,0.7-2,1c-1,0.3-2,0.7-3,1c-2.3-3.2-4.3-1.2-6.7,0.1c-2.6,1.4-5.7,2.9-8.5,2.7c-3.9-0.3-7.4-0.8-10.9,1.2
		c-1.2,0.7-2.9,0.6-4.3,1c-4.8,1.5-9.8,2.7-14.4,4.6c-4.5,1.9-8.7,4.8-13.2,6.7c-2.3,0.9-5.1,1-7.6,0.8c-4.2-0.4-8.5-2.2-12.5-1.7
		c-4.1,0.5-7.9,3.2-11.9,4.9c-1.3,0.6-3.4,1.8-4,1.3c-4.5-3.3-8.1-0.8-11.9,1.2c-7.5,3.9-16.2,2.5-24.2,5.8
		c-17,7.1-34.8,12.4-52.4,17.9c-7,2.2-14.5,3.2-21.8,4.3c-3.5,0.5-7-0.2-8.5,4.3c-0.3,1-2.4,1.6-3.8,1.9c-8.7,2-17.6,2.3-26.4,5
		c-21.5,6.5-42.7,13.9-65,17.8c-19,3.3-37.8,8.5-56.6,13C126.9,449.7,118.6,451.8,110.2,453.9z"/>
	<path class="st10" d="M560.9,606.9c3.2-11.8,6.7-23.6,9.5-35.5c1.8-7.7,1-15.6-3.3-22.6c0.4-2,1.9-5.1,1.1-5.9
		c-3.5-3.2-0.7-6-0.2-9c2.2-1.7,4.2-3.7,6.6-5c7.8-4.2,15.8-8,23.7-12.1c1.4-0.7,3.5-1.9,3.6-3c0.5-6.6,7-6.9,10.5-9.4
		c5.3-3.7,11.5-5.9,13.6-12.9c0.2-0.6,0.7-1.1,1.2-1.5c7-5.6,14.1-11.2,21.1-16.8c9.1-7.2,19-13.5,25.9-23.1
		c0.9-1.3,2.5-2.2,3.8-3.2c6.3-4.7,12.9-9.1,18.9-14.2c6.3-5.3,11.9-11.3,18-16.8c5.1-4.6,11-8.5,15.7-13.4c8.4-8.7,16-18.2,24.3-27
		c11.3-12,23.3-23.5,34.4-35.7c9.5-10.5,18.4-21.8,27.2-32.9c8.4-10.7,15.6-22.4,24.7-32.4c9-9.8,16.3-20.7,23.4-31.8
		c1.2-1.9,3.1-3.3,4.7-5c5.6,21.8,11.4,43.5,16.8,65.3c2,8.1,3.1,16.4,4.6,24.6c-1.9,1.4-4.2,2.6-5.7,4.4c-4,4.8-7.8,9.9-11.5,14.9
		c-1.2,1.6-1.5,3.7-2.8,5.2c-3,3.5-6.4,6.6-9.5,10c-10.1,11.4-20,23-30.1,34.4c-2.3,2.6-4.9,4.9-7.3,7.4c-7.4,8-14.7,16.2-22,24.2
		c-2.7,2.9-5.3,5.9-8.2,8.5c-6.5,6-13.3,11.8-19.8,17.9c-8.8,8.3-17.4,17-26.3,25.2c-6,5.5-12.5,10.5-18.8,15.7
		c-0.9,0.7-2.3,1.2-2.7,2.1c-3.9,9.4-13.8,12.6-20.1,19.4c-1.1,1.2-1.9,2.6-2.8,4c-0.6,1-1,2.7-1.7,2.8
		c-8.8,1.7-12.1,11.9-20.9,13.5c-0.7,0.1-1.3,1-1.9,1.5c-8,6.7-16,13.4-24.1,20c-1.1,0.9-2.7,1.3-4,1.8c-7.5,3-14.6,6.6-18.9,14
		c-0.6,1-2,1.6-3.1,2.2c-2.8,1.3-5.6,2.5-8.5,3.8c-3.2,1.4-6.4,2.9-9.6,4.4c-1,0.5-2.4,0.9-2.9,1.7c-3,5-8.2,6.6-12.9,8.9
		c-1.2,0.6-2.9,0.8-4.1,0.3c-3.9-1.5-6.2,0.6-8.4,3.2c-2.2,2.5-4.6,4.8-7.5,7.8c-1.1-2.4-1.6-3.5-2.1-4.7
		C568.4,603.8,564.7,605.3,560.9,606.9z"/>
	<path class="st11" d="M869.3,237.7c-1.6,1.6-3.5,3.1-4.7,5c-7.1,11.1-14.3,22-23.4,31.8c-9.1,10-16.3,21.7-24.7,32.4
		c-8.8,11.2-17.6,22.4-27.2,32.9c-11.1,12.3-23.1,23.7-34.4,35.7c-8.3,8.8-15.9,18.3-24.3,27c-4.8,4.9-10.6,8.8-15.7,13.4
		c-6.1,5.5-11.7,11.5-18,16.8c-6,5.1-12.6,9.5-18.9,14.2c-1.3,1-2.8,1.9-3.8,3.2c-7,9.6-16.8,15.9-25.9,23.1
		c-7.1,5.6-14.1,11.2-21.1,16.8c-0.5,0.4-1,0.9-1.2,1.5c-2.1,7-8.3,9.2-13.6,12.9c-3.6,2.5-10.1,2.8-10.5,9.4
		c-0.1,1.1-2.2,2.3-3.6,3c-7.9,4.1-15.8,7.9-23.7,12.1c-2.4,1.3-4.4,3.3-6.6,5c-1-0.1-2.3-0.7-3-0.3c-5.6,3.1-11.3,6.1-16.7,9.5
		c-2.9,1.8-5,2.1-6.5-1.2c-2.6,1.2-4.8,2.1-7.1,3.2c-6.7,3.1-13.5,6.1-20.1,9.5c-4.9,2.6-7.7,2-9.7-3.4c-0.7-2-0.7-4.2-1-6.3
		c0.3-0.6,0.4-1.4,0.8-1.7c3.6-2.4,7.3-4.7,10.9-7c2.8-1.8,5.7-3.6,8.6-5.2c2.8-1.6,6-2.7,8.7-4.6c9.7-6.8,19.1-14,28.9-20.8
		c3-2.1,7.5-2.6,9.8-5.1c5.6-6.1,15.7-7.2,18.4-16.6c0.3-1,2.5-1.3,3.8-2.1c2.3-1.5,4.4-3.2,6.6-4.8c-0.2-0.5-0.5-1-0.7-1.5
		c-2-0.3-4.1-0.5-6.1-0.8c0.3-0.4,0.5-0.9,0.8-1.3c-1.2-0.9-3.4-2.5-3.4-2.4c-2.9,3.4-6.5,4.3-10.9,5.1c-3.6,0.7-5.8-0.5-8.7-1.4
		c-1.7-0.5-4.2-0.8-5.4,0.1c-5.6,4.1-11.6,5.3-18.3,3.7c-1.2-0.3-3.3,0-4,0.8c-5.1,6.1-11.3,8.4-19.2,6.6c-1-0.2-2.7,0.9-3.7,1.9
		c-1.5,1.6-2.4,4.2-4.2,5.1c-2.1,1.1-4.8,1-7.3,1.1c-0.8,0-1.6-1.2-2.4-1.9c4.2-2.5,8.7-4.7,12.5-7.8c2.2-1.8,3.3-4.7,7-4.5
		c0.8,0,1.7-2.6,2.4-4c0.7-1.3,1.1-2.9,2-4.1c1.1-1.5,2.4-2.8,3.8-4c1.5-1.3,3.2-2.4,4.8-3.6c4.1-3,8.3-6,12.4-9
		c2-0.7,4.2-1.2,6.1-2.2c1.9-1,4.3-2.3,4.9-4c1.2-3.6,2.8-5.2,5.5-4.4c2.3-1.8,3.8-4,5.4-4.1c6.2-0.4,12.2-0.4,14.6-7.9
		c0.2-0.8,1.8-1.3,2.8-1.7c3.4-1.3,6.7-2.6,10.1-3.8c1.8-0.6,3.6-1.1,5.4-1.7c1,0.5,1.7-0.2,1.8-0.9c1.1-5.1,4.2-7.2,9.4-6.5
		c1.2,0.2,2.8-0.8,4-1.6c6.1-4.3,12.4-8.3,18.1-13.1c7-5.8,17.6-7.8,20.5-18.3c0.3-1.1,1.7-2,2.7-2.9c5.6-4.7,11.4-9,16.8-13.9
		c5.9-5.4,11.5-11.3,17.1-17c5.5-5.7,10.8-11.5,16.3-17.2c1.9-2,4.4-3.5,6.1-5.7c5.8-7.4,11.3-15,17-22.5c1.7-2.2,3.7-4.2,5.6-6.3
		c4.7-5.2,9.5-10.5,14.3-15.7c0.9-1,2.2-1.7,3.3-2.6c1.4-1.2,2.8-2.2,3.9-3.6c1.1-1.4,1.7-3.2,2.8-4.6c6.3-7.9,13.3-15.3,18.9-23.6
		c6-9,13.7-17,17.3-27.7c0.8-2.4,3.6-4.2,5.6-6.2c1-1,2.4-1.8,3.4-2.8c13-13.4,19.1-31.1,29-46.5c5.6,13.1,11.4,26,16.7,39.2
		c3.8,9.5,7.1,19.2,10.5,28.8C868.7,235.1,869,236.5,869.3,237.7z"/>
	<path class="st12" d="M500,354.9c1-0.3,2-0.7,3-1c0.7-0.3,1.3-0.7,2-1c4.2-3.1,10.4-3.2,13-9c0.5-1.2,4.1-0.7,5.9-1.6
		c4.3-2.3,8.4-4.9,12.6-7.4c7.1-4.3,14.1-8.5,21.1-12.9c1.4-0.8,2.4-2.2,3.5-3.4c0.8-0.8,1.7-2.4,2.4-2.3c6.9,0.6,9.5-5.5,14.1-8.5
		c1.6-1.1,3.4-2,5.1-3c3.8-2.1,7.8-4,7.5-10.2c6,2.6,8.5-0.9,11.4-5c2.2-3.1,6.5-4.6,9.3-7.3c3.1-3,5.5-6.8,8.5-9.9
		c5.3-5.5,10.9-10.8,16.1-16.3c3.9-4,7.4-8.3,11.1-12.5c0.5-0.6,0.7-1.6,1.3-2.1c11-7.6,15.3-20.2,22.9-30.3
		c5.1-6.8,10.4-13.7,16.4-19.7c13.7-13.5,22.3-30.4,32.1-46.5c4-6.6,9.2-12.5,11.7-20.1c0.8-2.3,3.9-3.6,5.2-5.9
		c6.7-12,14-23.7,19.2-36.3c2.6-6.3,5.4-12.1,8.9-17.9c2.6-4.3,3.8-9.4,5.7-14.2c14,20.4,28.1,40.7,42.1,61.1
		c-5.1,3-8.2,7.3-9.2,13.2c-0.4,2.2-1.1,4.5-2.1,6.4c-2.9,5.2-6.1,10.2-9.2,15.3c-1.7,2.8-3.4,5.6-5.3,8.3
		c-2.6,3.6-6.6,6.8-7.8,10.8c-2.2,7.1-5.9,12.7-11.3,17.5c-1.5,1.4-2.4,3.4-3.5,5.2c-2.1,3.4-3.8,7-6.1,10.2
		c-6.4,8.8-13,17.3-19.4,26c-0.6,0.8-0.6,1.9-1.1,2.8c-1,2-1.7,4.3-3.2,5.8c-5.2,5.3-11.1,9.9-16.1,15.4
		c-10.7,11.9-18.4,26.1-30.3,37.1c-0.6,0.6-1.4,1.3-1.4,2c-0.6,6.4-6.5,8.4-10.1,12.3c-1.6,1.7-3.6,2.9-5.2,4.5
		c-7.5,7.7-14.9,15.4-22.3,23.1c-0.6,0.6-1.5,0.8-2.1,1.4c-1.8,1.7-3.4,3.6-5.1,5.4c-2,2.1-3.9,4.2-6.1,6.1
		c-2.5,2.2-5.3,4.2-7.8,6.4c-1.9,1.6-3.4,3.8-5.5,4.7c-4.9,2.2-8.1,7.9-14.4,7.5c-0.2,0-0.7,0.4-0.7,0.6c0.2,5.4-4.5,6.2-7.7,8.3
		c-4.5,3-9.2,5.7-14,8.4c-5.4,3-10.9,5.7-16.2,8.9c-4.6,2.8-8.8,6.5-13.6,8.8c-5.5,2.7-11.5,4.3-17.3,6.4c0.3-3.6-1.1-4.9-5-3.2
		c0.3,1.7,0.7,3.5,1,5.2c-1.9,4.3-4.8,7.3-10,7c0,0-0.3-15-0.3-15c-1.6-1.3-3.1-3-4.9-3.7c-0.9-0.3-2.5,1.3-3.8,2.1
		c-1,0.6-2.1,1.1-3.1,1.6c-0.1-2.5,0.2-4.4,1.2-5.7c1.5-1.9,3.6-3.3,5.4-5c-0.2-0.4-0.5-0.8-0.7-1.2c2.5,0.3,5,0.5,8.2,0.8
		c-1.3-4-2.1-7.3-3.4-10.4c-0.3-0.7-2.3-1.3-3.2-1c-7.3,2.7-13.8,8-22.3,6.8c-0.4-0.1-1.1,0.2-1.3,0.5c-3,4-7.7,3-11.8,4.1
		c1.3-2,2.6-3.9,4.2-6.4c-0.3-3.7-0.7-8.4-1.2-13.4c8.6,3.7,8.6,3.7,8.6-5.4c2.4,1.2,4.4,2.2,6.5,3.3c0.3-0.3,0.6-0.6,0.9-0.9
		C502.1,359,501,356.9,500,354.9z"/>
	<path class="st13" d="M538,400.9c5.8-2.1,11.8-3.7,17.3-6.4c4.8-2.4,8.9-6.1,13.6-8.8c5.3-3.2,10.8-5.9,16.2-8.9
		c4.7-2.7,9.4-5.4,14-8.4c3.2-2.1,8-3,7.7-8.3c0-0.2,0.5-0.6,0.7-0.6c6.3,0.4,9.4-5.3,14.4-7.5c2.1-1,3.6-3.2,5.5-4.7
		c2.6-2.2,5.3-4.1,7.8-6.4c2.1-1.9,4.1-4,6.1-6.1c1.7-1.8,3.4-3.6,5.1-5.4c0.6-0.6,1.5-0.8,2.1-1.4c7.5-7.7,14.9-15.5,22.3-23.1
		c1.6-1.6,3.7-2.9,5.2-4.5c3.6-3.9,9.5-5.9,10.1-12.3c0.1-0.7,0.8-1.4,1.4-2c11.9-10.9,19.6-25.2,30.3-37.1
		c4.9-5.5,10.8-10.2,16.1-15.4c1.5-1.5,2.2-3.8,3.2-5.8c0.4-0.9,0.5-2,1.1-2.8c6.5-8.7,13.1-17.3,19.4-26c2.3-3.2,4.1-6.8,6.1-10.2
		c1.1-1.8,2-3.9,3.5-5.2c5.4-4.9,9.1-10.5,11.3-17.5c1.3-4,5.2-7.1,7.8-10.8c1.9-2.7,3.5-5.5,5.3-8.3c3.1-5.1,6.3-10.1,9.2-15.3
		c1.1-1.9,1.8-4.2,2.1-6.4c1-5.9,4.1-10.2,9.2-13.2c4.9,8.8,9.9,17.5,14.7,26.4c3.9,7.1,7.7,14.2,11.4,21.3c1.1,2,1.8,4.2,2.7,6.3
		c-9.9,15.3-16.1,33-29,46.5c-1,1.1-2.4,1.8-3.4,2.8c-2,2-4.8,3.8-5.6,6.2c-3.6,10.6-11.2,18.7-17.3,27.7
		c-5.6,8.4-12.6,15.7-18.9,23.6c-1.1,1.4-1.7,3.2-2.8,4.6c-1.1,1.4-2.6,2.4-3.9,3.6c-1.1,0.9-2.3,1.6-3.3,2.6
		c-4.8,5.2-9.5,10.4-14.3,15.7c-1.9,2.1-3.8,4.1-5.6,6.3c-5.7,7.5-11.2,15.1-17,22.5c-1.7,2.2-4.2,3.7-6.1,5.7
		c-5.5,5.7-10.8,11.6-16.3,17.2c-5.6,5.8-11.2,11.6-17.1,17c-5.4,4.9-11.2,9.3-16.8,13.9c-1,0.8-2.4,1.8-2.7,2.9
		c-2.9,10.5-13.5,12.5-20.5,18.3c-5.7,4.7-12,8.8-18.1,13.1c-1.2,0.8-2.7,1.7-4,1.6c-5.2-0.6-8.3,1.4-9.4,6.5
		c-0.2,0.8-0.8,1.4-1.8,0.9c-1.8,0.6-3.7,1-5.4,1.7c-3.4,1.2-6.8,2.5-10.1,3.8c-1,0.4-2.6,0.9-2.8,1.7c-2.4,7.5-8.4,7.5-14.6,7.9
		c-1.7,0.1-3.2,2.3-5.4,4.1c-2.7-0.9-4.3,0.8-5.5,4.4c-0.6,1.7-3.1,3-4.9,4c-1.9,1-4,1.5-6.1,2.2c-3.5-1.2-7.2-3.6-9.7,1.5
		c-1.7,3.6-4.6,3.1-7.9,3.3c-5,0.4-10.4,1.4-14.7,3.7c-2.4,1.3-4.1,1.9-6.8,2.1c-5.7,0.4-11.5,1.3-16.9,3.2
		c-5.5,1.9-10.7,4.9-16.7,3c-3.7-1.2-6.3-0.7-8.9,2.1c-1,1.1-3.1,1.7-4.7,1.7c-3.8,0-7.6-0.4-11.4-0.9c-2-0.3-5.1-0.9-5.6-2.2
		c-1.1-2.7-1.5-6.2-0.8-9c0.3-1.1,4.2-1.3,6.5-1.8c0.6-0.1,1.2,0,1.9,0.1c-0.2-0.4-0.4-0.8-0.7-1.1c2.1-1.7,4.1-3.5,6.3-5.2
		c3.4-2.5,6.6-6.3,10.4-7.1c4.9-1,5.3-3.2,4.3-6.8c-0.8-2.7,0.2-3.5,2.4-4.8c3.3-2,6-5.1,9-7.7c1,0,2,0,3,0c1-0.7,2-1.3,3-2
		c7.6-3.4,15.2-6.8,22.8-10.2c0.7-0.3,1.1-1.2,1.7-1.8c1.8-1.7,3.7-3.3,5.5-5c5.2,0.3,8.1-2.7,10-7
		C535.3,402.2,536.7,401.6,538,400.9z"/>
	<path class="st14" d="M537,100.9c-15.2-20.3-34.6-35.4-57.1-46.8c2-4.5,4.1-8.9,6.2-13.4c2.3-4.9,4.6-9.8,7.1-14.6
		c2.4-4.5,5.3-8.8,7.5-13.4c2.8-5.7,5.5-11.6,7.7-17.5c4.6-12.5,8.8-25.2,13.5-37.7c2.2-6,3.3-11.7,2.6-18.3
		c-0.8-7.1,0.9-14.4,1.9-21.6c2.1-15.4,3.3-30.8,0-46.2c-0.4-1.8-0.3-3.6-0.4-5.4c14,6.3,28.3,12.1,42,19.1
		c14.3,7.3,28.1,15.6,42.1,23.5c0,1-0.3,2.1,0,3c3.6,9.8,2.2,19.5-0.9,29.1C604-43,599-26.4,593.8-9.9c-0.3,0.9-0.8,2.1-0.6,2.9
		c2.2,6.5-1,11.5-4.3,16.6c-2.3,3.4-5,7.1-5.7,10.9c-2.3,12.1-10.2,21-16.3,30.9c-1.6,2.6-3.7,5.1-4.9,7.9c-3.4,7.6-6.5,15.4-9.8,23
		c-0.6,1.3-1.8,2.4-2.7,3.5c-3.3,4.2-6.5,8.4-9.8,12.5C539,99.3,537.9,100,537,100.9z"/>
	<path class="st15" d="M718.1-6.3c-0.4,1.1-1.1,2.2-1,3.3c1.1,8.7-4,15-7.5,22.2c-2.8,5.8-4.3,12.1-6.6,18.1
		c-1.9,4.9-5.1,9.3-4.2,15c0.2,1.2-0.9,2.8-1.8,4c-5.7,7.5-11.5,14.9-17.2,22.4c-0.8,1-1.1,2.3-1.5,3.6c-0.8,2.9-0.8,6.1-2.2,8.7
		c-4.1,7.8-8.4,15.6-13.3,22.8c-3.6,5.3-8.3,9.7-12.6,14.5c-0.4,0.5-0.9,1-1.2,1.6c-3.3,7.1-6.1,14.4-10,21.1
		c-2.6,4.5-6.8,8-10.3,11.9c-1.4,1.6-3.1,3-4.2,4.8c-2.4,3.7-4.6,7.5-6.7,11.3c-1.9,3.4-3.4,6.9-5.3,10.3c-0.9,1.6-1.9,3.1-3.3,4.2
		c-6.8,5.7-13.8,11.2-20.4,17c-1.8,1.5-2.7,4.1-4,6.1c-1.2,1.8-2.1,3.8-3.6,5.2c-6.5,5.9-13.1,11.5-19.7,17.4c-0.8,0.7-1,2.1-1.6,3
		c-0.8,1.2-2.1,3.3-2.7,3.1c-4.9-1.2-7.9,2.1-11.5,4.2c-0.5,0.3-1.3,0.1-2,0.1c4.4-13.3,9.4-26.4,13-39.9c4.1-15.3,3.6-31.2,3.2-47
		c1.5-0.6,3.2-1,4.3-2c3.6-3,7-6.1,10.3-9.3c1.4-1.4,2.3-3.2,3.2-4.9c1.5-2.7,2.8-5.6,4.2-8.3c1.5-2.9,3.2-5.7,4.8-8.5
		c0.8-1.4,1.1-3.5,2.2-4.3c10.1-7.2,12.7-20.1,21.6-28.2c0.6-0.5,0.7-1.5,1.1-2.2c3.7-7.4,7-15,11.3-22c3.9-6.4,10.1-11.5,10-19.9
		c0-0.6,0.4-1.3,0.7-1.8c5.1-7.5,11.2-14.5,12.9-23.8c0.1-0.3,0.3-0.7,0.5-0.8c6.8-5.5,7.7-14.3,9.1-21.4c2-10,6.1-18.8,9.9-27.9
		c0.7-1.8,1.4-3.7,1.7-5.6c0.5-4,0.5-8.1,1.1-12.1c0.4-2.9,1.3-5.7,2-8.6c14.9,13,29.8,26,44.7,39.1C716.7-9,717.3-7.5,718.1-6.3z"
		/>
	<path class="st16" d="M671-49c-0.7,2.9-1.6,5.7-2,8.6c-0.5,4-0.6,8.1-1.1,12.1c-0.2,1.9-0.9,3.8-1.7,5.6
		c-3.8,9.1-7.9,17.9-9.9,27.9c-1.4,7.2-2.3,15.9-9.1,21.4c-0.2,0.2-0.4,0.5-0.5,0.8c-1.7,9.3-7.8,16.3-12.9,23.8
		c-0.4,0.5-0.8,1.2-0.7,1.8c0.1,8.4-6,13.5-10,19.9c-4.3,7-7.6,14.7-11.3,22c-0.4,0.7-0.5,1.7-1.1,2.2c-8.9,8.1-11.5,21-21.6,28.2
		c-1.2,0.8-1.4,2.9-2.2,4.3c-1.6,2.9-3.3,5.7-4.8,8.5c-1.5,2.7-2.7,5.6-4.2,8.3c-0.9,1.7-1.8,3.6-3.2,4.9c-3.3,3.3-6.8,6.4-10.3,9.3
		c-1.2,1-2.9,1.3-4.3,2c-3-22.4-10.1-43.3-23-62c0.9-0.8,2-1.6,2.7-2.5c3.3-4.1,6.5-8.3,9.8-12.5c0.9-1.2,2.1-2.2,2.7-3.5
		c3.3-7.7,6.4-15.4,9.8-23c1.3-2.8,3.3-5.2,4.9-7.9c6.1-9.9,14-18.8,16.3-30.9c0.7-3.9,3.5-7.5,5.7-10.9c3.3-5.1,6.5-10.1,4.3-16.6
		c-0.3-0.8,0.3-1.9,0.6-2.9c5.1-16.5,10.2-33,15.4-49.5c3.1-9.7,4.5-19.3,0.9-29.1c-0.3-0.9,0-2,0-3c18.1,12.6,36.3,25.3,54.4,37.9
		c1.8,1.3,3.7,2.6,5.5,3.8c0.3,0.2,0.5,0.5,0.8,0.7L671-49z"/>
	<path class="st15" d="M670.9-49.1c-0.3-0.2-0.5-0.5-0.8-0.7C670.3-49.5,670.6-49.3,670.9-49.1z"/>
	<path class="st14" d="M-265.1,213.7c2.6,3.1,5.3,6.2,7.8,9.4c2.1,2.6,3.8,5.4,6,7.9c1.6,1.8,3.8,3,6.9,5.4
		c-0.2-3.2-0.3-4.5-0.4-6.1c0.8,0.1,1.5,0.1,1.7,0.3c6.2,6.4,12.2,12.9,18.6,19.1c12.2,11.9,25.8,22,40.5,30.6
		c12.7,7.4,25.8,14.4,39,20.9c24.6,11.9,50.4,19.9,77.3,24.6c4.4,0.8,8.8,1.7,13.2,2c5.4,0.3,10.7,0.7,16-2.3
		c2.8-1.6,6.8-1.7,10.1-1.4c6.7,0.6,12.8,0,19.2-2.6c4.9-2,10.7-1.7,16.1-2.5c-3.8,13.9-7.6,27.8-11.3,41.7c-1,3.7-1.7,7.5-2.6,11.3
		c-15.4,2.2-31.2,2.4-46.1,7.8c-8.6,3.1-17.4,3.5-26.3,3.2c-1.1,0-2.2,0.6-3.4,0.8c-5.8,1.1-11.6,2.4-17.4,3.1
		c-7.1,0.9-14.5,0.6-21.4,2.2c-11.9,2.7-23.2,2.1-34.5-2.2c-0.8-0.3-1.3-1.2-2-1.8c-1.6-1.4-3-3.5-4.9-4.1
		c-4.7-1.6-9.7-1.9-14.3-3.7c-12.9-5.2-25.7-10.7-38.5-16.4c-12.3-5.5-24.7-10.7-36.4-17.2c-9.3-5.2-17.7-12.1-26.3-18.6
		c-4.9-3.7-9.2-8.2-13.8-12.4c3.8-17.3,7-34.8,11.7-51.8C-276.1,244.9-270.3,229.4-265.1,213.7z"/>
	<path class="st16" d="M-292.1,312.6c4.6,4.1,8.9,8.6,13.8,12.4c8.5,6.5,16.9,13.4,26.3,18.6c11.7,6.5,24.2,11.7,36.4,17.2
		c12.7,5.7,25.5,11.2,38.5,16.4c4.5,1.8,9.6,2.2,14.3,3.7c1.9,0.6,3.3,2.7,4.9,4.1c0.7,0.6,1.2,1.5,2,1.8
		c11.3,4.2,22.6,4.9,34.5,2.2c6.9-1.6,14.3-1.2,21.4-2.2c5.8-0.7,11.6-2,17.4-3.1c1.1-0.2,2.2-0.8,3.4-0.8
		c8.9,0.3,17.8-0.1,26.3-3.2c14.9-5.4,30.6-5.7,46.1-7.8c-1.9,12-3.8,24-5.7,36c-12.4,1.6-24.9,3.2-37.3,4.8
		c-7.2,1-14.6,1.4-21.5,3.4c-7.6,2.1-15.6,1-22.6,3.4c-4.8,1.6-9.4,2-14.1,2.6c-2.7,0.3-5.5,0.1-8.3-0.2
		c-11.6-0.9-22.5,3.4-33.7,5.1c-5.6,0.9-11.4,0.8-17.1,0.9c-8.9,0.1-17.8,0.3-26.7-0.2c-2.9-0.2-5.5-2.8-8.4-3.8
		c-12.4-4.1-25-8-37.4-12.1c-1.9-0.6-3.6-1.7-5.4-2.6c-4.2-2.3-7.5-5.5-13.3-4.7c-3.6,0.5-7.9-2.8-11.6-4.8
		c-2.7-1.5-4.8-3.9-7.2-5.7c-6.4-4.8-13-9.5-19.3-14.4c-1.5-1.2-2.3-3.2-3.4-4.8c0.1-1.6,0.2-3.2,0.3-4.8c0.2-2.1,0.5-4.2,0.7-6.3
		C-296.8,346.6-294.4,329.6-292.1,312.6z"/>
	<path class="st5" d="M-299.1,363.5c-0.2,2.1-0.5,4.2-0.7,6.3C-299.6,367.7-299.3,365.6-299.1,363.5z"/>
	<path class="st17" d="M114.6,765.6c17.3,10.7,35.1,20.2,54.2,27.3c21.2,7.9,43.4,12,65.6,16c14.6,2.7,29.1,0.9,43.6,2.2
		c-0.6,1.2-0.9,3.2-1.9,3.6c-3.7,1.7-7.6,3-11.4,4.2c-5.7,1.7-12.1,2.6-15,8.4c-2.1,4.3-3.5,4.2-6.7-0.3c-0.4,2.8-0.7,4.3-0.9,5.9
		c-5.4,1.3-10.8,3.2-16.3,3.8c-7.1,0.8-14.2,0.4-21.3,1c-9.9,0.8-19.8,2.1-29.7,3.2c-2.8,0.3-5.8,0.4-8.2,1.5
		c-3.2,1.4-5.8,1.7-8.7-0.5c-3.5-2.8-6.9-2.2-10.3,0.9c-1.2,1.1-3.7,1.3-5.6,1.2c-3.1-0.3-6.8-2.5-9.1-1.4c-4.8,2.2-9.4,1.2-14,1.5
		c-3.4,0.2-6.8,1.1-10.2,1.5c-1.6,0.2-3.2-0.2-4.8-0.4c-1.5-0.1-3.1-0.5-4.6-0.4c-8.7,0.3-17.4,1.3-26,1c-5.4-0.2-10.8-4.6-16.3,0
		c-0.3,0.3-1.2-0.2-1.9-0.3c-5.2-0.3-10.4-4-15.5,0.4c-0.4,0.3-1.3,0.1-2,0c-5.5-0.4-10.8-4-16.6-1.1c-0.7,0.4-2.1-0.7-3.2-1
		c-2.5-0.7-5-1.7-7.5-1.8c-4.1-0.1-8.6,1.6-12.2,0.4c-4.7-1.6-8.7-0.3-13.1,0c-5.1,0.4-10.5,2.2-15.2,0.9c-10.8-2.9-21-0.9-31.3,1.8
		c-6.9,1.8-13.6,4.1-20.6,5.6c-10.6,2.3-21.3,4.1-32,6.1c-18.7-17.4-36.4-35.8-52.1-56c6.2-0.7,12.6-0.2,18.1-4.2
		c0.7-0.5,2.1-0.2,3.2-0.2c2,0,4.1,0.5,6,0.1c6.6-1.4,13-3.6,19.7-4.7c11.5-2,23.1-3.3,34.7-5.2c2.4-0.4,4.6-2.8,6.8-2.7
		c10,0.5,19.2-4.6,29.2-3.5c0.9,0.1,1.9-0.6,2.8-0.9c9.4-2.7,18.8-5.4,28.2-8.1c14.9-4.3,29.8-4.4,45-1c2.9,0.7,7.1,0.9,9.1-0.7
		c3.4-2.8,7.1-3.3,10.4-2.7c7.1,1.4,13.7-0.3,20.6-1.5c4.9-0.8,10-0.8,15.1-0.8c3.8,0,7.7,0.7,11.5,0.8c2.8,0.1,5.5-0.2,8.3-0.2
		C106.3,765.6,110.5,765.6,114.6,765.6z"/>
	<path class="st18" d="M-114.1,856.9c10.7-2,21.4-3.8,32-6.1c6.9-1.5,13.7-3.8,20.6-5.6c10.3-2.7,20.4-4.7,31.3-1.8
		c4.6,1.2,10.1-0.6,15.2-0.9c4.3-0.3,8.4-1.6,13.1,0c3.6,1.2,8.1-0.5,12.2-0.4c2.5,0.1,5,1.1,7.5,1.8c1.1,0.3,2.5,1.3,3.2,1
		c5.8-3,11.1,0.7,16.6,1.1c0.7,0,1.6,0.3,2,0c5.1-4.4,10.3-0.7,15.5-0.4c0.6,0,1.6,0.5,1.9,0.3c5.5-4.6,10.9-0.2,16.3,0
		c8.7,0.3,17.4-0.7,26-1c1.5-0.1,3.1,0.3,4.6,0.4c1.6,0.1,3.2,0.5,4.8,0.4c3.4-0.4,6.8-1.3,10.2-1.5c4.7-0.3,9.3,0.7,14-1.5
		c2.3-1.1,6,1.2,9.1,1.4c1.9,0.2,4.3-0.1,5.6-1.2c3.4-3.1,6.7-3.6,10.3-0.9c2.9,2.3,5.5,2,8.7,0.5c2.5-1.1,5.4-1.2,8.2-1.5
		c9.9-1.1,19.8-2.4,29.7-3.2c7.1-0.6,14.3-0.2,21.3-1c5.5-0.6,10.9-2.5,16.3-3.8c3.4-0.4,4.5,1.1,3.8,4.4c-0.4,2-0.3,4.1-0.4,6.8
		c4.5-1.4,8.1-5.7,11-0.3c1.9,3.6,4.3,3.5,7.4,2.2c3.4-1.4,6.8-3.3,10.5,0.2c1.3,1.1,4.4,0.5,6.6,0.1c3.2-0.6,6.3-1.9,9.6-2.4
		c4.3-0.7,8.9-0.2,13-1.5c4-1.2,7.5-3.5,11.9-1.6c0.8,0.3,2.3-0.3,3.1-1c5.9-4.7,12.6-4.7,19.2-2.9c5.1,1.4,9.9,1.5,14.5-1.1
		c7.4-4.1,15-2.6,22.9-1.3c1.3-1.4,2.8-3.1,4.9-5.4c0.7,2.4,1,3.6,1.5,4.8c1.1,2.9,2.9,3.5,5.9,2.4c6.9-2.4,13.9-4.4,20.8-6.6
		c0.2,0.5,0.4,0.9,0.6,1.4c-0.6,0.7-1.1,1.8-1.8,2.1c-5.7,2.7-11.7,5-17.3,7.8c-5.6,2.8-10.9,6.1-16.3,9.2c-1.9,1.1-3.7,2.4-5.5,3.6
		c-0.3-0.4-0.6-0.8-1-1.2c-2.1,4.4-2.1,4.4-6.9,4.5c-0.7,0-1.4,0.5-2.1,0.9c-5.3,3.3-10.7,6.6-16,9.8c-6.6,2.1-13.2,3.9-19.7,6.2
		c-7.8,2.7-15.4,5.8-24,4.1c-1.2-0.2-2.5,0.3-3.7,0.6c-2.3,0.6-4.6,1.6-7,2c-7.9,1.4-15.8,2.6-23.7,3.9c-3.7,0.6-7.5,1.8-11.2,1.8
		c-5.9-0.1-11.7-1-16.7,3.5c-1.2,1.1-3.6,1-5.4,1.1c-3.8,0.2-7.7,0-11.5,0.3c-1.4,0.1-2.8,1.1-4.2,1.4c-6.3,0.9-12.6,1.7-18.8,2.6
		c-1.1,0.1-2.6,0.7-3.3,0.2c-5-3.5-10.1-1.6-15.4-1.1c-6.6,0.7-12.9,4.3-19.8,2.4c-2.4-0.7-5.2-1.5-7.4-0.8
		c-4.2,1.3-7.3,7.1-12.6,2.2c-0.1-0.1-0.3,0.1-0.5,0.1c-7.6,0.9-15.3,1.4-22.8,2.7c-11.4,1.9-22.7,3.1-34.2,4.2
		c-8.9,0.9-18.1-3.1-26.8,1.5c-0.6,0.3-1.6-0.4-2.4-0.4c-3.3-0.2-6.7-0.8-9.9-0.3c-5.2,0.7-10.2,4.5-15.7,1.1
		c-0.5-0.3-1.5,0.6-2.3,0.7c-5.3,0.3-10.5,0.4-15.8,0.7c-1.7,0.1-3.7-0.1-5.2,0.6c-3.3,1.5-6.3,3.1-9.5-0.2
		c-0.6-0.6-2.4-0.1-3.7,0.1c-2.3,0.3-4.6,0.8-6.8,1c-6.4,0.7-12.8,1.4-19.2,1.8c-2.2,0.1-4.4-0.8-6.6-1.1c-1.7-0.2-3.5-0.2-5.2-0.2
		C-72.2,894.2-94,876.6-114.1,856.9z"/>
	<path class="st19" d="M-49.2,910.3c1.7,0.1,3.5,0,5.2,0.2c2.2,0.3,4.5,1.3,6.6,1.1c6.4-0.4,12.8-1.1,19.2-1.8
		c2.3-0.2,4.6-0.7,6.8-1c1.2-0.2,3.1-0.7,3.7-0.1c3.2,3.4,6.2,1.8,9.5,0.2c1.5-0.7,3.4-0.5,5.2-0.6c5.3-0.2,10.5-0.4,15.8-0.7
		c0.8,0,1.9-0.9,2.3-0.7c5.6,3.4,10.5-0.3,15.7-1.1c3.2-0.5,6.6,0.1,9.9,0.3c0.8,0,1.8,0.7,2.4,0.4c8.7-4.6,17.8-0.6,26.8-1.5
		c11.4-1.1,22.8-2.3,34.2-4.2c7.5-1.3,15.2-1.8,22.8-2.7c0.2,0,0.4-0.2,0.5-0.1c5.3,4.9,8.5-1,12.6-2.2c2.2-0.7,5,0.2,7.4,0.8
		c7,1.9,13.2-1.7,19.8-2.4c5.3-0.6,10.4-2.4,15.4,1.1c0.7,0.5,2.2,0,3.3-0.2c6.3-0.8,12.6-1.6,18.8-2.6c1.4-0.2,2.8-1.3,4.2-1.4
		c3.8-0.2,7.7-0.1,11.5-0.3c1.8-0.1,4.2,0,5.4-1.1c5-4.6,10.8-3.6,16.7-3.5c3.7,0.1,7.4-1.2,11.2-1.8c7.9-1.3,15.8-2.5,23.7-3.9
		c2.4-0.4,4.7-1.4,7-2c1.2-0.3,2.6-0.9,3.7-0.6c8.6,1.7,16.2-1.4,24-4.1c6.5-2.3,13.1-4.1,19.7-6.2c3,3.8,6.2,2.4,9.3,0.2
		c4.6-3.2,8.9-7.3,15.2-3.7c1,0.5,3-0.6,4.5-1.2c1.4-0.6,2.7-1.5,4.2-2.3c0.7,2.1,1.1,3.5,1.8,5.7c2.9-3.4,5.5-4.4,8.5-1.1
		c0.4,0.4,2.1-0.2,3.2-0.5c3.6-1,7.1-2.2,10.7-3.1c3.8-1,8.3,0.2,11.3-3.6c0.4-0.5,1.6-0.2,2.4-0.4c6.6-1.4,13.1-2.8,19.7-4.4
		c6.1-1.4,12.1-3.1,18.2-4.6c-0.6,1.4-0.9,3.5-2,4.2c-4.9,2.9-10.2,5.2-15.1,8.1c-5.9,3.5-11.5,7.4-17.2,11.1c-0.5,0.3-1,1-1.1,1.6
		c-0.5,6.2-5.1,8.4-9.8,10.7c-3.4,1.7-7,3.4-9.5,6.1c-1.7,1.9-1.6,5.4-2.3,8.2c-6.7-0.6-12.1,2-17,6.3c-0.8,0.7-2.2,0.7-3.3,0.9
		c-6.8,1.6-14.2,2-20.2,5.1c-6.3,3.2-12.1,1.3-18.1,1.7c-1.4,0.1-3.2-0.2-4.2-1c-3.8-3.1-6.2-0.8-8.3,2c-2.8,3.8-5.1,5.5-9.8,2.2
		c-1.6-1.1-5.6,0.5-8.2,1.7c-3.3,1.5-6,1.8-9.8,0.7c-3.5-1-8.2,0.7-12,2.2c-4.7,1.8-9,4.3-12.5-1.6c-2.9,1.5-5.2,3-7.8,4
		c-3,1.2-6.2,2.6-8.5-1.7c-0.5-1-3.5-0.9-5.3-0.7c-3.3,0.3-6.6,0.7-9.8,1.5c-3,0.8-5.8,2.1-8.7,3.2c-1.7,0.6-4,1.9-5,1.3
		c-6.1-4-12.2-1.1-18.3-0.3c-7.8,1-15.7,3.6-23.3,2.9c-5.4-0.5-8.8,1.9-13.1,3.3c-2.5,0.8-5.5-0.2-8.2,0.3
		c-12.1,2.2-24.2,4.7-36.3,7c-1.4,0.3-2.9-0.3-4.4-0.3c-1.9,0.1-4-0.1-5.7,0.6c-4.2,1.7-8.1,3.5-12.9,2.1c-1.7-0.5-3.8,0.7-5.8,1.1
		c-2.9,0.6-5.8,1.6-8.7,1.6c-4.8,0-9.4-0.4-13.9,2.1c-1.6,0.9-3.8,0.7-5.8,0.9c-12.4,1.5-24.9,3.1-37.3,4.6
		c-1.4,0.2-2.9-0.4-4.3-0.2c-1.8,0.3-3.6,1-5.4,1.5C-2.9,941.3-26.7,926.8-49.2,910.3z"/>
	<path class="st20" d="M-17,465.9c0.5,17,1.1,34,1.6,51c-2.8,0-5.7-0.3-8.5,0.2c-11.5,2.3-22.9,5.1-34.3,7.3
		c-16.6,3.3-33.4,6.2-50,9.5c-9.8,1.9-19.9,0.3-29.8,3.7c-7.6,2.6-16.3,2.3-24.5,3.3c-2.9,0.4-5.8,1-8.6,1.2
		c-2.2,0.2-4.3-0.2-6.5-0.1c-1.3,0.1-2.6,0.7-3.9,0.8c-6.4,0.5-12.8,0.9-19.1,1.5c-11.4,1.1-22.8,2.7-34.2,3.5
		c-5.7,0.4-11.5-0.6-17.3-0.6c-4,0-7.9,0.4-11.9,0.7c-3.5,0.2-7.2,0.1-10.5,0.9c-5.3,1.3-10,0.9-14.2-2.8
		c-1.9-9.6-4.2-19.1-5.7-28.7c-1.8-11.4-2.9-22.9-4.3-34.3c0.7,0.6,1.7,2,2.2,1.8c7.6-2.8,11.1,4.7,16.8,6.6c2,0.7,4.1,1.2,6.1,1.2
		c4.7,0.1,9.4,0,14.1-0.1c5-0.1,9.9-0.2,14.9-0.2c2,0,3.9,0.1,5.9,0.1c9.4,0.2,18.9,1.1,28.3,0.4c12.5-0.9,24.9-3.3,37.4-4.6
		c8-0.8,16.1-0.6,24.1-1.4c7.9-0.7,15.7-2.1,23.6-3.2c1.6-0.2,3.3-0.4,4.9-0.7c4.7-0.8,9.3-1.7,13.9-2.6c2.3-0.4,4.6-1.4,6.8-1.3
		c14.4,0.8,28.2-3,42.2-5.4c6.8-1.1,13.6-2.4,20.3-3.7C-30.5,468.6-23.8,467.2-17,465.9z"/>
	<path class="st21" d="M-6.4,577.7c4.6,15.6,9.2,31.3,13.9,46.9c0.5,1.7,1.1,3.5,1.6,5.2c-4.7,1-9.3,2.2-14.1,3
		c-13.2,2.1-26.4,4-39.6,6.2c-5.2,0.9-10.3,2.4-15.4,3.7c-7.3,1.9-14.6,4.3-22,5.8c-4.9,1-10.1,0.5-15,1.4
		c-13.3,2.4-26.4,5.4-39.7,7.8c-6.2,1.1-12.5,1.3-18.7,2.2c-4.6,0.7-9,2.2-13.6,2.8c-8.9,1.2-17.9,1.7-26.8,3
		c-7.4,1-14.6,3.4-21.9,4c-10,0.7-20.1,0.2-30.2,0.2c-7.3-18.3-14.6-36.7-21.9-55c1.8,0.1,3.9-0.2,5.4,0.5c4.9,2.2,9.6,1.2,14.6,0.1
		c7.2-1.6,14.6-3,22-3.4c12.3-0.8,24.7-0.8,37.1-1.2c0.8,0,1.6-0.2,2.5-0.3c6.7-0.9,13.4-1.7,20.1-2.6c4.1-0.6,8.4-0.6,12.2-2
		c12.5-4.3,25.6-4.8,38.5-6.2c6.7-0.7,13.2-2.6,19.8-4c1.4-0.3,2.9-0.7,4.3-0.9c4.3-0.6,8.5-0.9,12.8-1.7c9.7-1.7,19.4-3.6,29.1-5.4
		c9.2-1.7,18.5-3.1,27.7-5C-18,581.5-12.2,579.4-6.4,577.7z"/>
	<path class="st22" d="M17.9,650.9c8.7,15.3,17.4,30.6,26.2,45.9c-0.7,0.4-1.4,1-2.1,1.1c-10.1,1.4-20.3,2.7-30.4,4.1
		c-11.6,1.6-23.3,3-34.8,5.1c-9.9,1.9-19.4,5-29.3,7c-6,1.2-12.6,0.1-18.1,2.2c-13.8,5-29.1,2.7-42.3,9.5c-0.4,0.2-1,0.1-1.5,0.2
		c-8.9,0.9-17.8,0.9-25.9,5.8c-1.9,1.2-4.8,0.9-7.3,1.2c-10.2,1-20.4,1.8-30.6,2.9c-10.7,1.2-21.3,2.8-32,4.2c0,0,0,0,0,0
		c-0.3-0.4-0.5-0.7-0.8-1.1c-8.5-15-17-29.9-25.5-44.9c5.7-0.7,11.5-1.6,17.2-2c3.2-0.3,6.5,0.3,9.8,0.2c6.5-0.2,12.9-0.1,19-4
		c2.9-1.8,7.5-0.9,11.2-1.8c11.6-2.6,23.2-4.1,35.1-4.7c7.2-0.4,14.4-1.8,21.5-3.2c5.6-1.1,11-3.2,16.6-4.4c3.4-0.7,7-0.3,10.4-1
		c9.9-2.1,19.6-4.6,29.5-6.7c8.1-1.7,16.2-3,24.3-4.7c6.5-1.4,12.8-3.6,19.2-4.8c8.1-1.6,16.3-2.6,24.5-3.8
		C7.1,652.3,12.5,651.6,17.9,650.9z"/>
	<path class="st23" d="M114.6,765.6c-4.1,0-8.3,0-12.4,0c-2.8,0-5.5,0.3-8.3,0.2c-3.8-0.2-7.7-0.8-11.5-0.8c-5,0-10.1-0.1-15.1,0.8
		c-6.8,1.2-13.4,2.8-20.6,1.5c-3.3-0.6-7-0.1-10.4,2.7c-1.9,1.6-6.2,1.4-9.1,0.7c-15.1-3.4-30.1-3.3-45,1
		c-9.4,2.7-18.8,5.4-28.2,8.1c-1,0.3-1.9,1-2.8,0.9c-10-1.1-19.2,4-29.2,3.5c-2.2-0.1-4.4,2.3-6.8,2.7c-11.5,1.9-23.2,3.2-34.7,5.2
		c-6.6,1.1-13.1,3.3-19.7,4.7c-1.9,0.4-4-0.1-6-0.1c-1.1,0-2.5-0.4-3.2,0.2c-5.4,4-11.9,3.6-18.1,4.2c-7.7-10-15.4-20-23-30
		c2-0.3,3.9-0.7,5.9-1c8.8-1.5,17.8-1.2,26.7-3.7c12.2-3.4,25-4.4,37.4-6.8c10.6-2.1,20.3-6.9,31.5-7.5c10.4-0.5,20.5-4.5,30.8-6.8
		c1.7-0.4,3.6,0,5.5-0.1c3.1-0.1,6.2,0.2,9.1-0.5c8.2-2,16.2-4.9,24.4-6.4c13.5-2.5,27-4.2,40.6-6.1c4.9-0.7,9.8-1.4,14.7-1.7
		c9.6-0.6,19.3-0.9,28.9-1.4c0.9-0.1,1.8-1.2,2.7-1.9C84.2,739.8,99.4,752.7,114.6,765.6z"/>
	<path class="st24" d="M-6.4,577.7c-5.9,1.7-11.6,3.8-17.6,5.1c-9.2,2-18.5,3.3-27.7,5c-9.7,1.8-19.4,3.7-29.1,5.4
		c-4.2,0.7-8.5,1.1-12.8,1.7c-1.5,0.2-2.9,0.6-4.3,0.9c-6.6,1.4-13.1,3.3-19.8,4c-13,1.3-26,1.8-38.5,6.2c-3.8,1.3-8.1,1.4-12.2,2
		c-6.7,0.9-13.4,1.8-20.1,2.6c-0.8,0.1-1.6,0.3-2.5,0.3c-12.4,0.4-24.7,0.4-37.1,1.2c-7.4,0.5-14.7,1.9-22,3.4
		c-5,1.1-9.6,2.1-14.6-0.1c-1.6-0.7-3.6-0.3-5.4-0.5c-3.4-11-6.7-22-10.1-33c4.3-1,8.5-2.6,12.9-2.9c10.2-0.7,20.5-0.9,30.8-1.1
		c13.2-0.2,26.4,0.1,39.6-2.8c10.7-2.3,21.9-2.6,32.9-3.8c6.6-0.7,13.1-2.4,19.6-2.2c4.8,0.1,9-0.7,13.5-1.7
		c9.6-2.2,19.4-4,29.1-5.5c8.1-1.2,16.3-1.3,24.4-2.6c6.3-1,12.5-3,18.8-4.5c7.2-1.7,14.3-3.4,21.5-5c8.2-1.8,16.4-3.5,24.6-5.3
		C-10.4,555.6-8.4,566.7-6.4,577.7z"/>
	<path class="st25" d="M69,726.9c-0.9,0.7-1.8,1.8-2.7,1.9c-9.6,0.6-19.3,0.8-28.9,1.4c-4.9,0.3-9.8,1-14.7,1.7
		c-13.5,1.9-27.1,3.6-40.6,6.1c-8.3,1.5-16.2,4.5-24.4,6.4c-2.9,0.7-6.1,0.4-9.1,0.5c-1.8,0.1-3.7-0.3-5.5,0.1
		c-10.3,2.3-20.5,6.3-30.8,6.8c-11.2,0.6-20.9,5.4-31.5,7.5c-12.5,2.4-25.3,3.4-37.4,6.8c-8.9,2.5-17.8,2.2-26.7,3.7
		c-2,0.3-3.9,0.7-5.9,1c-7-10.3-13.9-20.7-20.9-31c10.7-1.4,21.3-3,32-4.2c10.2-1.2,20.4-1.9,30.6-2.9c2.5-0.2,5.3,0,7.3-1.2
		c8-4.9,17-4.9,25.9-5.8c0.5,0,1.1,0,1.5-0.2c13.3-6.8,28.6-4.4,42.3-9.5c5.6-2,12.2-0.9,18.1-2.2c9.8-2,19.4-5.2,29.3-7
		c11.5-2.2,23.2-3.5,34.8-5.1c10.1-1.4,20.3-2.7,30.4-4.1c0.7-0.1,1.4-0.7,2.1-1.1C52.4,706.8,60.7,716.9,69,726.9z"/>
	<path class="st26" d="M-12.4,544.6c-8.2,1.8-16.4,3.5-24.6,5.3c-7.2,1.6-14.3,3.3-21.5,5c-6.3,1.5-12.4,3.5-18.8,4.5
		c-8.1,1.3-16.3,1.4-24.4,2.6c-9.8,1.5-19.5,3.2-29.1,5.5c-4.5,1-8.7,1.9-13.5,1.7c-6.5-0.2-13.1,1.4-19.6,2.2
		c-11,1.2-22.2,1.5-32.9,3.8c-13.2,2.9-26.3,2.6-39.6,2.8c-10.3,0.1-20.6,0.4-30.8,1.1c-4.3,0.3-8.6,1.9-12.9,2.9
		c-0.4-1.3-0.7-2.6-1.1-3.9c-0.2-0.7-0.5-1.4-0.7-2c-2.4-10-4.7-20-7.1-30c4.2,3.7,8.9,4.1,14.2,2.8c3.4-0.8,7-0.7,10.5-0.9
		c4-0.3,7.9-0.7,11.9-0.7c5.8,0,11.6,1,17.3,0.6c11.4-0.8,22.8-2.4,34.2-3.5c6.4-0.6,12.8-1,19.1-1.5c1.3-0.1,2.6-0.7,3.9-0.8
		c2.2-0.1,4.4,0.3,6.5,0.1c2.9-0.2,5.8-0.8,8.6-1.2c8.2-1,16.8-0.7,24.5-3.3c9.9-3.4,20-1.7,29.8-3.7c16.7-3.3,33.4-6.2,50-9.5
		c11.5-2.3,22.9-5,34.3-7.3c2.7-0.5,5.6-0.2,8.5-0.2C-14.4,526.1-13.4,535.4-12.4,544.6z"/>
	<path class="st27" d="M17.9,650.9c-5.4,0.7-10.8,1.4-16.2,2.2c-8.2,1.2-16.4,2.3-24.5,3.8c-6.5,1.3-12.8,3.4-19.2,4.8
		c-8.1,1.8-16.2,3-24.3,4.7c-9.8,2.1-19.6,4.6-29.5,6.7c-3.4,0.7-7,0.2-10.4,1c-5.6,1.2-11,3.3-16.6,4.4c-7.1,1.4-14.3,2.8-21.5,3.2
		c-11.9,0.6-23.5,2.1-35.1,4.7c-3.7,0.8-8.2-0.1-11.2,1.8c-6.1,3.8-12.4,3.8-19,4c-3.3,0.1-6.6-0.5-9.8-0.2
		c-5.8,0.5-11.5,1.3-17.2,2c-3.8-8-7.7-16.1-11.5-24.1c10.1,0,20.2,0.5,30.2-0.2c7.4-0.5,14.6-2.9,21.9-4c8.9-1.3,17.9-1.8,26.8-3
		c4.6-0.6,9-2.1,13.6-2.8c6.2-0.9,12.5-1,18.7-2.2c13.3-2.4,26.4-5.4,39.7-7.8c4.9-0.9,10.1-0.3,15-1.4c7.4-1.5,14.6-3.9,22-5.8
		c5.1-1.3,10.2-2.9,15.4-3.7c13.2-2.2,26.4-4.1,39.6-6.2c4.7-0.8,9.4-2,14.1-3C12,636.9,15,643.9,17.9,650.9z"/>
	<path class="st24" d="M-281.8,575.9c0.2,0.7,0.5,1.4,0.7,2C-281.3,577.3-281.5,576.6-281.8,575.9z"/>
	<path class="st25" d="M-210.9,738.9c0.3,0.4,0.5,0.7,0.8,1.1C-210.3,739.6-210.6,739.3-210.9,738.9z"/>
	<path class="st28" d="M451,848.9c-6.1,1.5-12.1,3.2-18.2,4.6c-6.5,1.6-13.1,2.9-19.7,4.4c-0.8,0.2-2-0.1-2.4,0.4
		c-3,3.8-7.5,2.6-11.3,3.6c-3.6,1-7.1,2.1-10.7,3.1c-1.1,0.3-2.8,0.9-3.2,0.5c-3-3.3-5.6-2.2-8.5,1.1c-0.7-2.1-1.2-3.6-1.8-5.7
		c-1.5,0.8-2.8,1.7-4.2,2.3c-1.5,0.6-3.5,1.8-4.5,1.2c-6.4-3.6-10.6,0.5-15.2,3.7c-3.1,2.2-6.3,3.6-9.3-0.2c5.3-3.3,10.7-6.6,16-9.8
		c0.6-0.4,1.4-0.9,2.1-0.9c4.7-0.1,4.7-0.1,6.9-4.5c0.3,0.4,0.6,0.8,1,1.2c1.8-1.2,3.6-2.5,5.5-3.6c5.4-3.1,10.7-6.4,16.3-9.2
		c5.6-2.8,11.6-5.2,17.3-7.8c0.8-0.4,1.2-1.4,1.8-2.1c-0.2-0.5-0.4-0.9-0.6-1.4c-6.9,2.2-13.9,4.2-20.8,6.6c-3,1.1-4.8,0.4-5.9-2.4
		c-0.4-1.2-0.8-2.4-1.5-4.8c-2.1,2.3-3.6,4-4.9,5.4c-7.9-1.3-15.5-2.8-22.9,1.3c-4.6,2.6-9.3,2.5-14.5,1.1
		c-6.6-1.8-13.4-1.8-19.2,2.9c-0.8,0.7-2.3,1.3-3.1,1c-4.4-1.8-7.9,0.4-11.9,1.6c-4.1,1.3-8.7,0.8-13,1.5c-3.2,0.5-6.3,1.8-9.6,2.4
		c-2.2,0.4-5.4,1-6.6-0.1c-3.8-3.4-7.1-1.5-10.5-0.2c-3.2,1.3-5.5,1.4-7.4-2.2c-2.9-5.4-6.5-1.1-11,0.3c0.1-2.7,0-4.8,0.4-6.8
		c0.7-3.3-0.4-4.8-3.8-4.4c0.2-1.5,0.5-3.1,0.9-5.9c3.2,4.4,4.6,4.5,6.7,0.3c2.9-5.8,9.3-6.7,15-8.4c3.9-1.2,7.7-2.5,11.4-4.2
		c1-0.4,1.3-2.4,1.9-3.6c38.1-0.8,74.6-8.6,109.4-24.1c28.3-12.6,54-29.4,77.5-49.6c0.6-0.5,1.3-1,2-1.5c7.3,2,11.9-3.5,17.6-6.2
		c1.7-0.8,3.6-1.7,5.5-1.7c4.9-0.1,9.1-1.4,12.5-5c1.1-1.1,2.7-2,4.2-2.4c5-1.4,10.1-3.3,15.3-3.5c7.2-0.3,12.7-5,19.4-6
		c2.6-0.4,5.5,0.6,8.5,1.1c0,3,0,5.7,0,8.3c8.7-4.7,16.6-9.2,24.8-13.3c1.5-0.7,3.5-0.2,5.3-0.3c-6.3,3.8-12.7,7.5-18.8,11.5
		c-3.6,2.4-6.7,5.4-10.2,7.9c-2.2,1.6-4.8,2.9-7.1,4.5c-3.5,2.6-6.8,5.5-10.4,8.1c-3,2.2-6,4.2-9.1,6.2c-5.3,3.3-10.6,6.6-16,9.9
		c-3,1.8-6.1,3.6-8.2,4.9c1.8,3.6,3.2,6.6,5.2,10.7c2.8-1.9,5.6-3.8,8.3-5.9c1.6-1.2,2.7-3,4.3-4.2c1-0.7,2.5-0.5,3.8-0.7
		c0,1.3,0.1,2.7-0.2,3.9c-0.1,0.7-0.9,1.3-0.5,0.8c1.9,1.7,3.5,3.2,5.5,5.1c-7.2,5.6-12.3,10.4-18.2,13.9
		c-8.3,4.9-17.3,8.7-25.9,13.3c-4.5,2.4-8.8,5.2-13,8.1c-0.8,0.6-0.7,2.5-1.1,3.8c1.3,0,2.6,0.2,3.9,0.1c0.4,0,0.8-0.6,1.2-0.8
		c7.9-5.2,7.9-5.2,15.4,1c2.5-2,4.9-4.3,7.7-5.9c1.7-1,4.4-1.7,6.1-1c6.1,2.4,11.7,4.1,17.4-1.2c1.2-1.2,4-0.7,5.6-0.9
		c-0.3,4.4-0.5,8.2-0.7,12.1c-4.3,2.6-8.4,5.9-13.1,7.5c-8,2.7-14.9,6.4-20.8,12.5c-1.7,1.8-5.6,1.3-8.4,2.1c-1.9,0.5-4,1-5.3,2.3
		c-7.2,6.4-17,7.7-24.9,12.6C452.1,849,451.5,848.9,451,848.9z"/>
	<path class="st3" d="M144.9,280.6c6.1-13.6,11.5-27.6,18.3-40.9c23.5-45.8,54.5-85.3,96.7-115.5c29-20.7,61-34.7,96.8-37.9
		c26.7-2.4,52.3,0.7,74.3,17.8c5.3,4.1,9.5,9.7,14.1,14.6c-4.4,5.3-8.8,10.6-13.2,15.9c-1.8,2.1-3.3,4.5-5.2,6.4
		c-4,4.1-8.3,7.9-12.3,12c-7.5,7.7-14.7,15.6-24.5,20.6c-3.8,1.9-7.1,4.6-10.6,7.1c-3.1,2.2-5.8,5.6-9.2,6.5
		c-9.8,2.6-17.4,9-26.2,13.4c-6.7,3.3-13.3,7.1-20,10.5c-3.8,1.9-7.8,3.5-11.7,5.4c-2.3,1.1-4.4,2.6-6.6,3.8c-2.3,1.2-4.7,2.3-7,3.4
		c-2.8,1.4-5.4,3.1-8.3,4.3c-5.4,2.3-11.5,3.7-16.2,6.9c-3.6,2.4-6.7,5.1-11.2,5.7c-1.4,0.2-2.9,0.7-4.2,1.4
		c-5.4,2.6-10.7,5.7-16.2,7.9c-6.1,2.5-12.8,3.7-18.8,6.4c-9.4,4.2-18.1,9.5-28.4,12c-14,3.3-27.6,8.2-41.5,12.2
		C150.9,281.2,147.8,280.6,144.9,280.6z"/>
	<path class="st27" d="M504,544.9c0.3,2.1,0.3,4.4,1,6.3c2,5.3,4.8,5.9,9.7,3.4c6.6-3.4,13.4-6.4,20.1-9.5c2.2-1,4.5-2,7.1-3.2
		c1.5,3.4,3.6,3.1,6.5,1.2c5.4-3.4,11.1-6.5,16.7-9.5c0.7-0.4,2,0.2,3,0.3c-0.5,3-3.3,5.8,0.2,9c0.8,0.7-0.7,3.8-1.1,5.9
		c-1-0.8-2.1-1.6-3.1-2.4c-4.4-3.4-9.6-3.5-13.4,0.6c-3,3.2-5.3,7.1-7.6,11c-10,16.8-19.7,33.8-29.8,50.5c-2.5,4.2-6,7.8-9.1,11.6
		c-0.7-0.7-1.4-1.4-2.1-2.1c0.6-1.4,1.3-2.8,1.9-4.2c-3.1,0.4-6.7,1.8-7.6,0.7c-4.7-5.2-7.8-1.3-11.2,1.3
		c-4.5,3.5-12.3,3.7-17.2,0.6c-1.2-0.7-2.8-1.6-4-1.4c-4.3,0.7-8.5,1.2-12.8,0c-1.4-0.4-3.2,0.6-4.8,0.9c-1.3,0.3-2.6,0.7-3.9,0.8
		c-4.5,0.3-9.1,0.5-13.6,0.7c-1.4,0-2.9-0.1-4.3-0.4c-4.3-0.9-9-3.4-12.8-2.6c-7.8,1.8-15.2,4.6-23.2,1.5c-0.6-0.2-1.7,0.1-2.3,0.5
		c-3.6,2.3-7.2,2.6-11.4,1.6c-3.2-0.8-8.2-1.6-9.7,0.1c-4,4.4-8.2,4.5-13.3,3.9c-3-0.4-6.2,0.3-9.2,0.9c-3.3,0.7-6.4,2.3-9.7,2.7
		c-3.7,0.4-7.5-0.4-11.2,0c-4.4,0.4-8.8,2.2-13.1,2c-4.9-0.2-9.2-0.1-13.6,2.5c-2.1,1.2-5.3,0.8-8.1,0.8c-3-0.1-6.2-1.7-8.8-0.9
		c-10.8,3.4-22.4-0.8-33,3.7c-2.5,1-5.5,1-8.3,1c-4.7,0-9.4-0.5-14.1-0.7c-0.6,0-1.5,0.3-1.7,0.8c-2,4-4.7,3.2-7.9,1.7
		c-1.5-0.7-3.6-0.7-5.4-0.6c-10.3,0.5-20.2,5.5-30.8,3c-0.3-0.1-0.7,0.1-1,0.1c-3.6,0-7.2,0-10.8,0c-5.9,0-12.1-1.2-16.1,5
		c-9.8-16.4-17.4-33.8-22.9-52.1c4.3-0.5,8.6-0.8,12.8-1.5c10.2-1.7,20.3-4,30.5-5.5c6.4-0.9,12.9-0.7,19.3-1.5
		c11.1-1.3,22.1-2.6,33.1-5.1c12.8-2.9,26.4-3,39.7-3.4c15-0.5,29.6-3.7,44.3-6.1c7.5-1.2,14.9-2.6,22.3-4c4.8-0.9,9.6-2.3,14.5-3
		c7.7-1.1,15.5-0.9,23-4.5c3.7-1.8,8.6-1.3,13-1.8c2.4-0.3,4.9-0.1,7.2-0.8c2.2-0.7,4.1-1.8,5.2,1.4c1,3.1,2.8,2.5,5.5,1.9
		c5.7-1.4,11.3-4.8,17.5-1c1.6,0.9,4.3,0,6.6-0.2c3.2-0.3,6.2-5.6,9.6-0.3c0.2,0.2,1.3,0,1.9-0.2c2.4-1,3.4-0.2,4.5,2.2
		c2.6,5.9,10.2,7.6,15.5,3.9c1.8-1.2,4.2-1.7,6.2-2.6c1.3-0.6,2.4-1.5,3.7-1.9c2.2-0.7,5-2.3,6.5-1.5c3.8,1.9,6.8,0.9,9.9-0.8
		c7.9-4.2,17.4-4.9,24.6-10.6C503.3,544.9,503.7,544.9,504,544.9z"/>
	<path class="st24" d="M488,428.9c-3,2.6-5.6,5.7-9,7.7c-2.3,1.4-3.3,2.1-2.4,4.8c1.1,3.6,0.6,5.8-4.3,6.8c-3.8,0.8-7,4.5-10.4,7.1
		c-2.2,1.6-4.2,3.4-6.3,5.2c0.2,0.4,0.4,0.8,0.7,1.1c-0.6,0-1.3-0.2-1.9-0.1c-2.3,0.5-6.2,0.7-6.5,1.8c-0.7,2.8-0.3,6.2,0.8,9
		c0.5,1.3,3.6,1.9,5.6,2.2c3.8,0.6,7.6,0.9,11.4,0.9c1.6,0,3.7-0.6,4.7-1.7c2.6-2.8,5.2-3.3,8.9-2.1c5.9,1.9,11.2-1.1,16.7-3
		c5.4-1.9,11.2-2.8,16.9-3.2c2.7-0.2,4.4-0.8,6.8-2.1c4.3-2.3,9.7-3.3,14.7-3.7c3.3-0.2,6.2,0.2,7.9-3.3c2.5-5.1,6.2-2.7,9.7-1.5
		c-4.1,3-8.3,6-12.4,9c-1.6,1.2-3.3,2.3-4.8,3.6c-1.4,1.2-2.7,2.5-3.8,4c-0.9,1.2-1.3,2.7-2,4.1c-0.8,1.4-1.7,4.1-2.4,4
		c-3.7-0.2-4.8,2.8-7,4.5c-3.8,3-8.3,5.2-12.5,7.8c-6.7,2.4-13.4,4.8-20.1,7c-5.2,1.7-10.4,3.5-15.8,4.8c-4.5,1.1-9.1,1.4-13.6,2.3
		c-5,1-8.7,6.9-14.8,4c-0.3-0.2-1,0.2-1.4,0.3c-4.7,2-9.4,3.9-14.2,5.9c-4.8,2-9.4,4.3-15.2,3.1c-2.9-0.6-6.5,2.1-9.8,3.4
		c-1.1,0.5-2.1,1.9-3.1,1.9c-6.3,0.2-12.7,0.1-19.3,0.1c-1.1,1-3,3.8-4.2,3.5c-4.1-0.8-8.1,3.5-12.1-0.3c-0.5-0.5-2.3,0-3.3,0.4
		c-4.7,1.6-9.3,3.7-14.1,4.9c-3.2,0.8-6.9-0.3-10.1,0.4c-11.5,2.2-23,4.9-34.5,7.1c-5.5,1-11.1,1.4-16.6,2c-2.3,0.3-4.6,0.7-6.8,0.8
		c-5.4,0.4-10.8,0.5-16,1.3c-5.7,0.9-11.2,2.9-16.8,3.8c-5.3,0.9-10.7,0.7-16,1.4c-7.4,0.9-14.4,5.1-22.3,2.9
		c-2-0.6-4.5,0.5-6.8,0.8c-9,1.3-18,2.5-26.9,4.1c-5.6,1-11.1,2.6-16.7,3.9c-2.5,0.6-5,1.6-7.6,2c-9.7,1.5-19.4,2.9-29.1,4.3
		c-2.7-16.7-5.4-33.5-8-50.2c9-2,18-4.3,27-5.9c11.7-2.1,23.6-3.3,35.2-5.5c10.6-2,21.1-5.1,31.7-7.4c9.7-2.1,19.6-3.9,29.3-5.9
		c6.8-1.4,13.5-3.1,20.3-4.2c11.5-1.8,23.1-3.2,34.6-4.8c3.9-0.5,7.9-1,11.7-2c5.5-1.5,10.9-3.7,16.4-5.1c5.1-1.3,10.4-2.1,15.7-3
		c4.4-0.8,9.7-0.1,13.3-2.2c10.6-6.3,24.1-2.8,34-10.7c0.9-0.7,2.9,0,4.4-0.2c6.2-0.6,13.5,0.4,18.4-2.5c5.5-3.3,11.3-4.4,16.9-6.4
		c5.6-2,11.5-3,15.9-7.5c0.7-0.7,2.5-0.3,3.8-0.4c2.9-0.1,6.1,0.5,8.7-0.5c6.5-2.6,12.5-6.1,19.8-7.3
		C475.3,435.1,481.5,431.5,488,428.9z"/>
	<path class="st16" d="M115.9,392.9c2.8-15.7,5.6-31.4,8.5-47c0.5-2.7,1.4-5.4,2.2-8.1c3.1-0.4,6.3-0.4,9.2-1.4
		c16.3-5.4,32.5-11.1,48.8-16.5c25.5-8.4,51-16.6,76.5-24.9c4.4-1.4,8.8-3,13.1-4.7c9.9-4,19.6-8.3,29.5-12.1
		c6.5-2.5,13.4-3.8,19.7-6.7c8.5-3.8,16.6-8.6,25-12.8c6.3-3.2,12.8-5.9,19.1-9.1c2.8-1.4,5.2-3.9,8.1-4.8
		c10-3.2,18.7-9.9,29.3-11.4c0.8-0.1,1.5-0.7,2.2-1.2c5.1-3.1,10-6.4,15.2-9.4c7.9-4.6,17-7.9,23.4-14.1c3.9-3.7,10.6-3,12.4-9
		c0.1-0.2,2,0.1,3.1,0.2c-1.4,8.1-2.3,16.3-4.2,24.3c-5.4,22.4-16.7,42.3-26.7,62.7c-0.2,0.4-0.7,0.7-1,1c-3,1.6-6.1,3.1-9.1,4.7
		c-2.1,1.1-4.2,2.2-6.3,3.2c-1.3,0.6-2.8,0.9-4.1,1.6c-5,2.5-9.9,5.4-15,7.5c-6.3,2.7-12.7,5.4-19.4,7.1c-11.3,2.9-20,11.5-32.1,13
		c-9.9,1.2-18.4,8.4-28.8,9.7c-3.5,0.4-6.6,3.5-10.1,4.7c-7,2.5-14.2,4.4-21.2,6.8c-10.6,3.6-21.1,7.9-31.8,11.2
		c-19.8,6.1-39.6,12.2-59.6,17.4C166.6,381.4,141.2,387,115.9,392.9z"/>
	<path class="st14" d="M461.1,199.9c-1.1-0.1-3-0.4-3.1-0.2c-1.8,6-8.5,5.3-12.4,9c-6.4,6.2-15.5,9.5-23.4,14.1
		c-5.1,3-10.1,6.3-15.2,9.4c-0.7,0.4-1.4,1.1-2.2,1.2c-10.7,1.4-19.3,8.2-29.3,11.4c-2.9,0.9-5.3,3.4-8.1,4.8
		c-6.3,3.1-12.8,5.9-19.1,9.1c-8.4,4.2-16.5,9-25,12.8c-6.3,2.8-13.2,4.2-19.7,6.7c-9.9,3.8-19.6,8.1-29.5,12.1
		c-4.3,1.7-8.7,3.3-13.1,4.7c-25.5,8.3-51.1,16.5-76.5,24.9c-16.3,5.4-32.5,11.1-48.8,16.5c-2.9,1-6.2,0.9-9.2,1.4
		c6.1-19,12.2-38.1,18.3-57.1c3,0,6.1,0.5,8.8-0.2c13.9-3.9,27.5-8.9,41.5-12.2c10.3-2.4,19-7.8,28.4-12c6-2.7,12.7-3.9,18.8-6.4
		c5.6-2.2,10.8-5.3,16.2-7.9c1.3-0.6,2.7-1.2,4.2-1.4c4.5-0.6,7.6-3.2,11.2-5.7c4.8-3.2,10.8-4.6,16.2-6.9c2.8-1.2,5.5-2.9,8.3-4.3
		c2.3-1.2,4.7-2.2,7-3.4c2.2-1.2,4.3-2.7,6.6-3.8c3.8-1.9,7.8-3.5,11.7-5.4c6.7-3.4,13.3-7.1,20-10.5c8.8-4.3,16.4-10.8,26.2-13.4
		c3.4-0.9,6.1-4.3,9.2-6.5c3.5-2.4,6.9-5.2,10.6-7.1c9.8-5,17-12.9,24.5-20.6c4-4.1,8.3-7.9,12.3-12c1.9-2,3.5-4.3,5.2-6.4
		c4.4-5.3,8.8-10.6,13.2-15.9c9.7,11.8,14.9,25.7,16.5,40.4c1.4,12.6,0.5,25.5,0.5,38.2C462.1,198.2,461.5,199.1,461.1,199.9z"/>
	<path class="st21" d="M119.4,568.1c9.7-1.4,19.4-2.8,29.1-4.3c2.6-0.4,5-1.4,7.6-2c5.6-1.4,11.1-2.9,16.7-3.9
		c8.9-1.6,17.9-2.8,26.9-4.1c2.3-0.3,4.8-1.4,6.8-0.8c8,2.2,14.9-2,22.3-2.9c5.3-0.7,10.8-0.5,16-1.4c5.7-0.9,11.2-2.9,16.8-3.8
		c5.3-0.8,10.7-0.9,16-1.3c2.3-0.2,4.6-0.6,6.8-0.8c5.6-0.7,11.2-1,16.6-2c11.5-2.2,23-4.9,34.5-7.1c3.3-0.6,6.9,0.4,10.1-0.4
		c4.8-1.1,9.4-3.3,14.1-4.9c1.1-0.4,2.8-0.9,3.3-0.4c3.9,3.7,8-0.5,12.1,0.3c1.2,0.2,3.1-2.5,4.2-3.5c6.6,0,13,0.1,19.3-0.1
		c1.1,0,2-1.5,3.1-1.9c3.2-1.3,6.9-4,9.8-3.4c5.9,1.2,10.4-1.1,15.2-3.1c4.7-2,9.4-4,14.2-5.9c0.5-0.2,1.1-0.5,1.4-0.3
		c6.1,2.9,9.8-3,14.8-4c4.5-0.9,9.2-1.2,13.6-2.3c5.3-1.3,10.6-3,15.8-4.8c6.7-2.2,13.4-4.7,20.1-7c0.8,0.7,1.6,1.9,2.4,1.9
		c2.5,0,5.2,0,7.3-1.1c1.8-0.9,2.6-3.5,4.2-5.1c0.9-1,2.6-2.1,3.7-1.9c7.9,1.8,14.1-0.4,19.2-6.6c0.7-0.8,2.8-1.1,4-0.8
		c6.7,1.6,12.7,0.4,18.3-3.7c1.2-0.9,3.7-0.7,5.4-0.1c2.9,0.9,5.1,2.1,8.7,1.4c4.4-0.8,8-1.7,10.9-5.1c0.1-0.1,2.2,1.6,3.4,2.4
		c-0.3,0.4-0.5,0.9-0.8,1.3c2,0.3,4.1,0.5,6.1,0.8c0.2,0.5,0.5,1,0.7,1.5c-2.2,1.6-4.4,3.3-6.6,4.8c-1.2,0.8-3.5,1.2-3.8,2.1
		c-2.6,9.4-12.7,10.5-18.4,16.6c-2.3,2.5-6.8,3-9.8,5.1c-9.7,6.8-19.2,14-28.9,20.8c-2.7,1.9-5.8,3-8.7,4.6
		c-2.9,1.7-5.8,3.5-8.6,5.2c-3.7,2.3-7.3,4.6-10.9,7c-0.5,0.3-0.6,1.1-0.8,1.7c-0.3,0-0.7,0-1,0.2c-7.3,5.8-16.7,6.4-24.6,10.6
		c-3.1,1.6-6.1,2.6-9.9,0.8c-1.5-0.8-4.3,0.8-6.5,1.5c-1.3,0.4-2.5,1.3-3.7,1.9c-2.1,0.9-4.4,1.4-6.2,2.6c-5.4,3.6-12.9,2-15.5-3.9
		c-1-2.4-2.1-3.1-4.5-2.2c-0.6,0.2-1.7,0.4-1.9,0.2c-3.4-5.3-6.4,0-9.6,0.3c-2.2,0.2-5,1.2-6.6,0.2c-6.2-3.8-11.8-0.5-17.5,1
		c-2.6,0.7-4.4,1.3-5.5-1.9c-1-3.1-3-2-5.2-1.4c-2.3,0.7-4.8,0.5-7.2,0.8c-4.4,0.5-9.3-0.1-13,1.8c-7.4,3.6-15.2,3.4-23,4.5
		c-4.9,0.7-9.6,2-14.5,3c-7.4,1.4-14.8,2.8-22.3,4c-14.7,2.4-29.3,5.7-44.3,6.1c-13.3,0.4-26.8,0.5-39.7,3.4
		c-11,2.5-22,3.8-33.1,5.1c-6.4,0.7-13,0.5-19.3,1.5c-10.2,1.5-20.3,3.7-30.5,5.5c-4.2,0.7-8.5,1-12.8,1.5
		C123.9,584,121.6,576.1,119.4,568.1z"/>
	<path class="st26" d="M488,428.9c-6.5,2.6-12.7,6.3-19.4,7.4c-7.3,1.3-13.3,4.7-19.8,7.3c-2.6,1-5.8,0.3-8.7,0.5
		c-1.3,0.1-3.1-0.3-3.8,0.4c-4.4,4.5-10.3,5.5-15.9,7.5c-5.6,2-11.5,3.2-16.9,6.4c-4.9,2.9-12.2,1.9-18.4,2.5
		c-1.5,0.2-3.5-0.5-4.4,0.2c-9.9,7.9-23.4,4.4-34,10.7c-3.6,2.1-8.8,1.5-13.3,2.2c-5.2,0.9-10.5,1.7-15.7,3
		c-5.5,1.4-10.9,3.6-16.4,5.1c-3.8,1-7.8,1.5-11.7,2c-11.5,1.6-23.1,3-34.6,4.8c-6.8,1.1-13.5,2.8-20.3,4.2
		c-9.8,2-19.6,3.7-29.3,5.9c-10.6,2.3-21,5.3-31.7,7.4c-11.7,2.2-23.5,3.4-35.2,5.5c-9.1,1.6-18,3.9-27,5.9c-0.5-10-0.9-20-1.4-30
		c19.8-3.9,39.6-7.6,59.3-11.7c9.2-1.9,18.2-4.5,27.3-6.7c15.1-3.6,30.3-6.8,45.3-10.7c11.4-3,22.4-7.2,33.7-10.2
		c7.1-1.9,14.5-2.5,21.8-3.7c2.1-0.3,4.9,0.3,6.3-0.8c8-6.5,18-4.7,26.9-7.2c4.6-1.3,9.2-2.5,13.6-4c5.2-1.8,10.3-5.5,15.5-5.6
		c12.4-0.3,22.2-8,33.9-10.1c6.2-1.1,11.9-4.2,17.9-6.3c6.5-2.3,13.6-3.5,19.4-6.9c6.6-3.8,15-2.8,20.5-8.7c0.2-0.2,0.7-0.3,0.9-0.2
		c5.8,2.6,9.1-2.3,13.5-4.2c5.9-2.5,11.9-4.7,17.8-7c4-1.1,8.8-0.1,11.8-4.1c0.2-0.3,0.9-0.6,1.3-0.5c8.5,1.2,15-4.1,22.3-6.8
		c0.9-0.3,2.9,0.3,3.2,1c1.3,3.1,2.2,6.5,3.4,10.4c-3.2-0.3-5.7-0.6-8.2-0.8c0.2,0.4,0.5,0.8,0.7,1.2c-1.8,1.6-3.9,3.1-5.4,5
		c-1,1.3-1.4,3.2-1.2,5.7c1-0.5,2.1-1.1,3.1-1.6c1.3-0.7,2.9-2.4,3.8-2.1c1.8,0.7,3.3,2.4,4.9,3.7c0,0,0.3,15,0.3,15
		c-1.8,1.7-3.7,3.3-5.5,5c-0.6,0.6-1,1.4-1.7,1.8c-7.6,3.5-15.2,6.8-22.8,10.2c-1,0.7-2,1.3-3,2C490,428.9,489,428.9,488,428.9z"/>
	<path class="st25" d="M502,617.9c0.7,0.7,1.4,1.4,2.1,2.1c-39.5,54.2-89.5,93.5-155.7,109.1c-43.6,10.3-86.3,7.4-126.8-13.4
		c-16.1-8.3-30.5-19-42.8-32.3c2.2-0.8,4.4-2,6.6-2.3c4.2-0.5,8.6-0.4,12.8-0.8c3.7-0.3,7.3-1.2,11-1.2c5.8,0,11.5,0.5,17.3,0.7
		c0.7,0,1.4-0.8,2.2-1c2.3-0.6,4.9-2.1,6.9-1.5c8.3,2.5,16.2-0.5,24.2-1.1c7.7-0.6,14.8-6.7,23-2.5c0.3,0.2,0.9-0.4,1.4-0.4
		c4.8,0.3,9.6,1,13.8-2.2c0.1-0.1,0.3,0,0.5,0c5.5-0.4,11.2-0.1,16.5-1.4c6.4-1.6,12.4-4.2,19.3-2.7c1.7,0.3,3.6-0.3,5.3-0.8
		c8.3-2.3,16.9-5.4,25.1-6.2c8.1-0.8,15.5-2.3,23.1-4.9c9.3-3.2,19.2-4.8,28.7-7.2c3.7-0.9,7.2-2.5,10.8-3.5
		c4.8-1.4,9.7-2.5,14.5-3.9c4.5-1.3,9-3,13.5-4.5c1.6-0.5,3.2-0.8,4.7-1.5c3.9-1.8,7.2-4.3,12-4.3c3.3,0,6.7-2.8,9.8-4.6
		C488.2,621.7,496.2,622.9,502,617.9z"/>
	<path class="st20" d="M484,383.9c-6,2.3-12,4.5-17.8,7c-4.4,1.9-7.7,6.8-13.5,4.2c-0.2-0.1-0.8,0-0.9,0.2
		c-5.5,5.9-13.9,4.9-20.5,8.7c-5.8,3.4-12.9,4.6-19.4,6.9c-6,2.1-11.8,5.2-17.9,6.3c-11.7,2.1-21.5,9.9-33.9,10.1
		c-5.2,0.1-10.3,3.8-15.5,5.6c-4.5,1.5-9.1,2.7-13.6,4c-8.9,2.6-18.9,0.7-26.9,7.2c-1.4,1.1-4.2,0.5-6.3,0.8
		c-7.3,1.2-14.7,1.8-21.8,3.7c-11.4,3-22.4,7.2-33.7,10.2c-15,3.9-30.2,7.1-45.3,10.7c-9.1,2.2-18.2,4.8-27.3,6.7
		c-19.7,4.1-39.6,7.8-59.3,11.7c0.1-11.3,0.2-22.7,0.2-34c8.3-2.1,16.7-4.2,25-6.2c18.8-4.5,37.6-9.7,56.6-13
		c22.3-3.9,43.6-11.2,65-17.8c8.8-2.7,17.7-3,26.4-5c1.4-0.3,3.4-0.9,3.8-1.9c1.6-4.4,5.1-3.8,8.5-4.3c7.3-1.1,14.8-2.1,21.8-4.3
		c17.6-5.5,35.4-10.8,52.4-17.9c8-3.4,16.7-1.9,24.2-5.8c3.8-2,7.4-4.5,11.9-1.2c0.7,0.5,2.7-0.7,4-1.3c4-1.7,7.8-4.4,11.9-4.9
		c4-0.5,8.3,1.3,12.5,1.7c2.5,0.2,5.3,0.1,7.6-0.8c4.5-1.9,8.7-4.8,13.2-6.7c4.6-1.9,9.6-3.2,14.4-4.6c1.4-0.4,3.1-0.4,4.3-1
		c3.6-2,7.1-1.5,10.9-1.2c2.7,0.2,5.8-1.3,8.5-2.7c2.4-1.3,4.4-3.3,6.7-0.1c1,2,2.1,4.1,3.1,6.1c-0.3,0.3-0.6,0.6-0.9,0.9
		c-2.1-1-4.2-2.1-6.5-3.3c0,9.1,0,9.1-8.6,5.4c0.4,5,0.9,9.6,1.2,13.4C486.6,380,485.3,381.9,484,383.9z"/>
	<path class="st22" d="M502,617.9c-5.8,5-13.8,3.8-20.1,7.5c-3.1,1.9-6.6,4.7-9.8,4.6c-4.9,0-8.2,2.5-12,4.3c-1.5,0.7-3.1,1-4.7,1.5
		c-4.5,1.5-9,3.1-13.5,4.5c-4.8,1.4-9.7,2.5-14.5,3.9c-3.7,1.1-7.2,2.6-10.8,3.5c-9.6,2.4-19.4,4-28.7,7.2c-7.6,2.6-15,4.1-23.1,4.9
		c-8.2,0.8-16.8,3.9-25.1,6.2c-1.7,0.5-3.7,1.1-5.3,0.8c-6.8-1.4-12.9,1.2-19.3,2.7c-5.3,1.3-11,1-16.5,1.4c-0.2,0-0.4-0.1-0.5,0
		c-4.2,3.2-9,2.6-13.8,2.2c-0.5,0-1.1,0.5-1.4,0.4c-8.2-4.1-15.3,2-23,2.5c-8,0.6-15.9,3.5-24.2,1.1c-2-0.6-4.6,0.9-6.9,1.5
		c-0.8,0.2-1.5,1.1-2.2,1c-5.8-0.2-11.5-0.7-17.3-0.7c-3.7,0-7.3,0.9-11,1.2c-4.3,0.4-8.6,0.2-12.8,0.8c-2.3,0.3-4.4,1.5-6.6,2.3
		c-12-11.6-21.6-24.9-29.8-39.3c4-6.2,10.2-5,16.1-5c3.6,0,7.2,0,10.8,0c0.3,0,0.7-0.2,1-0.1c10.6,2.4,20.5-2.5,30.8-3
		c1.8-0.1,3.8-0.2,5.4,0.6c3.2,1.5,5.9,2.3,7.9-1.7c0.2-0.4,1.1-0.8,1.7-0.8c4.7,0.2,9.4,0.7,14.1,0.7c2.8,0,5.8,0,8.3-1
		c10.7-4.5,22.2-0.3,33-3.7c2.6-0.8,5.8,0.8,8.8,0.9c2.7,0.1,5.9,0.5,8.1-0.8c4.4-2.6,8.7-2.8,13.6-2.5c4.3,0.2,8.7-1.6,13.1-2
		c3.7-0.3,7.5,0.5,11.2,0c3.3-0.4,6.4-2,9.7-2.7c3-0.6,6.2-1.3,9.2-0.9c5.1,0.6,9.3,0.5,13.3-3.9c1.5-1.7,6.6-0.8,9.7-0.1
		c4.2,1,7.8,0.7,11.4-1.6c0.6-0.4,1.7-0.8,2.3-0.5c8,3.1,15.4,0.3,23.2-1.5c3.9-0.9,8.5,1.7,12.8,2.6c1.4,0.3,2.9,0.4,4.3,0.4
		c4.5-0.2,9.1-0.4,13.6-0.7c1.3-0.1,2.6-0.5,3.9-0.8c1.6-0.4,3.4-1.3,4.8-0.9c4.3,1.2,8.5,0.7,12.8,0c1.3-0.2,2.9,0.6,4,1.4
		c4.9,3.1,12.7,2.9,17.2-0.6c3.4-2.6,6.5-6.6,11.2-1.3c0.9,1,4.5-0.4,7.6-0.7C503.3,615,502.6,616.5,502,617.9z"/>
	<path class="st5" d="M115.9,392.9c25.3-5.9,50.7-11.5,75.8-17.9c20-5.2,39.9-11.3,59.6-17.4c10.7-3.3,21.2-7.6,31.8-11.2
		c7-2.4,14.2-4.3,21.2-6.8c3.5-1.2,6.6-4.3,10.1-4.7c10.4-1.3,18.8-8.4,28.8-9.7c12.2-1.5,20.9-10.1,32.1-13
		c6.6-1.7,13-4.4,19.4-7.1c5.2-2.2,10-5,15-7.5c1.3-0.6,2.7-1,4.1-1.6c2.1-1,4.2-2.2,6.3-3.2c3-1.6,6.1-3.1,9.1-4.7
		c-1.3,4.3-2.5,8.7-4,13c-3,8.5,0.1,14.9,6.8,20.1c-1,1.2-1.9,2.7-3.2,3.4c-10,5-20,9.8-30,14.5c-1.6,0.7-3.6,0.5-5.3,1
		c-2.6,0.7-5.1,1.5-7.4,3c-3.2,0.6-6.5,0.7-9.4,1.8c-6.8,2.7-13.3,6.1-20,8.8c-4.4,1.7-9.3,2.3-13.7,4
		c-12.6,4.6-24.9,10.2-37.7,14.1c-16.2,5-31.7,12-49,13.7c-9.2,0.9-18.1,5.7-27.2,8.5c-4.7,1.5-9.5,3.7-14.3,3.7
		c-10.7,0.1-20.4,3.8-30.4,6.7c-20.7,6.1-41.4,11.9-62.2,17.7c-3.1,0.9-6.6,0.7-9.8,1C113.4,412.9,114.7,402.9,115.9,392.9z"/>
	<path class="st20" d="M505,352.9c-0.7,0.3-1.3,0.7-2,1C503.7,353.6,504.3,353.2,505,352.9z"/>
	<path class="st26" d="M538,400.9c-1.3,0.7-2.7,1.3-4,2c-0.3-1.7-0.7-3.4-1-5.2C536.9,396,538.3,397.2,538,400.9z"/>
	<path class="st24" d="M491,428.9c1-0.7,2-1.3,3-2C493,427.6,492,428.2,491,428.9z"/>
</g>
</svg>
