<?xml version="1.0" encoding="utf-8"?>
<!-- Generator: Adobe Illustrator 28.2.0, SVG Export Plug-In . SVG Version: 6.00 Build 0)  -->
<svg version="1.1" id="Calque_1" xmlns="http://www.w3.org/2000/svg" xmlns:xlink="http://www.w3.org/1999/xlink" x="0px" y="0px"
	 viewBox="0 0 179.4 253.5" style="enable-background:new 0 0 179.4 253.5;" xml:space="preserve">
<style type="text/css">
	.st0{fill:#2E55A3;}
	.st1{fill:#020203;}
	.st2{fill:#3561AB;}
	.st3{fill:#E9E9EA;}
	.st4{fill:#E5E7EB;}
	.st5{fill:#E7E8EB;}
	.st6{fill:#FEFFFF;}
</style>
<g>
	<path class="st0" d="M88.2,253.5c-3.7-1.2-7.4-2.4-11.2-3.5c-19.6-5.5-39.2-10.9-58.8-16.3c-1.5-0.4-2.1-1-2.3-2.6
		c-1.8-21.2-3.7-42.4-5.6-63.6c-2.2-25-4.5-49.9-6.7-74.9C2.5,79.4,1.3,66.2,0.1,52.9C0.1,52,0,51.1,0,50c59.7,0,119.4,0,179.4,0
		c-0.4,5.1-0.8,10.2-1.3,15.2c-1.3,14.1-2.5,28.2-3.8,42.4c-1.4,15.8-2.9,31.5-4.3,47.3c-1.4,15.6-2.8,31.2-4.1,46.8
		c-0.9,9.8-1.8,19.5-2.5,29.3c-0.1,1.8-1,2.3-2.5,2.7c-23.1,6.4-46.2,12.8-69.2,19.2c-0.3,0.1-0.6,0.4-1,0.5
		C89.8,253.5,89,253.5,88.2,253.5z M89.7,132.6c-1,0-2,0.1-3,0.1c-15.5,0-31,0-46.5,0c-0.9,0-1.8,0-2.9,0c0.6,6.9,1.3,13.5,1.8,20.1
		c0.1,1.9,0.7,2.5,2.6,2.5c13.8-0.1,27.5-0.1,41.3,0c2.2,0,4.4,0.1,6.7,0.1c0,11.8,0,23.7,0,35.5c-6.4-1.6-12.7-3.2-19.1-5
		c-6.3-1.7-6.3-1.8-6.7-8.3c-0.2-3.7-0.7-7.5-1-11.2c-7.6,0-14.9,0-22.3,0c0,0.5-0.1,0.8-0.1,1.1c0.9,10.7,1.9,21.5,2.7,32.2
		c0.1,1.7,1.1,2.1,2.4,2.5c14.7,4,29.3,8.1,44,12.2c0,7.6,0,15.2,0,23c0.9-0.1,1.3,0,1.7-0.1c18.7-5.2,37.3-10.4,55.9-15.7
		c0.7-0.2,1.6-1.1,1.7-1.8c0.5-3.1,0.8-6.3,1-9.5c0.4-4.4,0.7-8.8,1.1-13.2c0.6-6.9,1.3-13.9,1.9-20.8c0.4-4.2,0.7-8.3,1.1-12.5
		c0.6-6.6,1.3-13.2,1.9-19.8c0.4-4.4,0.7-8.8,1.1-13.2c0.6-6.4,1.3-12.9,1.9-19.3c0.6-6.5,1-13.1,1.5-19.6
		c0.7-8.2,1.6-16.5,2.4-24.7c0.2-1.7-0.3-2.5-2.2-2.5c-22.9,0.1-45.9,0.1-68.8,0c-1.7,0-2.3,0.5-2.3,2.2c0.1,6.7,0,13.4,0,20
		c-1,0-2,0.1-3,0.1c-16.9,0-33.8,0-50.7,0c-0.9,0-1.7,0-2.8,0c0.7,7.7,1.4,15.1,2.1,22.6c1.1,0,2,0,2.9,0c12,0,24.1,0,36.1,0
		c5.1,0,10.2,0.1,15.3,0.1C89.7,117.5,89.7,125.1,89.7,132.6z"/>
	<path class="st1" d="M101.9,9.9c-5.2,0-10.2,0-15.5,0c-0.1,0.6-0.1,1.2-0.2,2c5.3,0,10.5,0,15.7,0c0,7.7,0,15.1,0,22.7
		c-9,0-18,0-27,0c0-3.4,0-6.8,0-10.2c5.2,0,10.3,0,15.6,0c0.1-0.7,0.1-1.3,0.2-2.1c-5.3,0-10.5,0-15.7,0c0-7.5,0-14.8,0-22.2
		c9,0,18,0,26.9,0C101.9,3.4,101.9,6.6,101.9,9.9z"/>
	<path class="st1" d="M134.7,0.1c0,3.3,0,6.4,0,9.8c-4.7,0-9.4,0-14.1,0c-1.3,0-2.1,0.2-1.6,1.9c5.1,0,10.2,0,15.5,0
		c0,7.6,0,15.1,0,22.7c-8.9,0-17.9,0-26.9,0c0-3.3,0-6.6,0-10.3c4.6,0,9.3,0,14,0c1.3,0,2.1-0.2,1.6-1.9c-5.1,0-10.2,0-15.5,0
		c0-7.5,0-14.8,0-22.2C116.5,0.1,125.5,0.1,134.7,0.1z"/>
	<path class="st1" d="M69.3,0.1c0,3.7,0,7.3,0,11.1c-5.2,0-10.3,0-15.6,0c0,3.9,0,7.5,0,11.4c5.1,0,10.3,0,15.5,0
		c0,3.9,0,7.5,0,11.3c-8.9,0-17.8,0-26.9,0c0-11.2,0-22.5,0-33.9C51.2,0.1,60.1,0.1,69.3,0.1z"/>
	<path class="st2" d="M89.7,87.1c0-6.7,0-13.4,0-20c0-1.8,0.6-2.2,2.3-2.2c22.9,0,45.9,0.1,68.8,0c2,0,2.4,0.8,2.2,2.5
		c-0.8,8.2-1.7,16.4-2.4,24.7c-0.6,6.5-1,13.1-1.5,19.6c-0.6,6.4-1.3,12.9-1.9,19.3c-0.4,4.4-0.7,8.8-1.1,13.2
		c-0.6,6.6-1.3,13.2-1.9,19.8c-0.4,4.2-0.7,8.3-1.1,12.5c-0.6,6.9-1.3,13.9-1.9,20.8c-0.4,4.4-0.7,8.8-1.1,13.2
		c-0.3,3.2-0.6,6.4-1,9.5c-0.1,0.7-1,1.6-1.7,1.8c-18.6,5.3-37.3,10.5-55.9,15.7c-0.4,0.1-0.8,0.1-1.7,0.1c0-7.8,0-15.4,0-23
		c0-0.1,0-0.2,0-0.3c5.6-1.5,11.3-2.9,16.9-4.5c9.7-2.7,19.3-5.4,29.1-8.1c3.4-38.2,6.8-76.2,10.2-114.6c-2.5,0-4.7,0-6.8,0
		C122.7,87.1,106.2,87.2,89.7,87.1C89.7,87.3,89.7,87.2,89.7,87.1z"/>
	<path class="st3" d="M89.7,214.6c-14.7-4.1-29.3-8.1-44-12.2c-1.4-0.4-2.3-0.8-2.4-2.5c-0.9-10.8-1.8-21.5-2.7-32.2
		c0-0.3,0.1-0.6,0.1-1.1c7.3,0,14.6,0,22.3,0c0.3,3.7,0.8,7.4,1,11.2c0.4,6.5,0.4,6.6,6.7,8.3c6.3,1.7,12.7,3.3,19.1,5v0.2
		c0,7.7,0,15.4,0,23.2C89.7,214.5,89.7,214.5,89.7,214.6z"/>
	<path class="st4" d="M89.7,110c-5.1,0-10.2-0.1-15.3-0.1c-12,0-24.1,0-36.1,0c-0.9,0-1.8,0-2.9,0c-0.7-7.5-1.4-14.9-2.1-22.6
		c1,0,1.9,0,2.8,0c16.9,0,33.8,0,50.7,0c1,0,2-0.1,3-0.1c0,0.1,0,0.2,0,0.2c0,7.5,0,14.9,0,22.4L89.7,110z"/>
	<path class="st5" d="M89.7,155.5c-2.2-0.1-4.4-0.1-6.7-0.1c-13.8,0-27.5,0-41.3,0c-1.9,0-2.5-0.6-2.6-2.5
		c-0.5-6.6-1.1-13.3-1.8-20.1c1.1,0,2,0,2.9,0c15.5,0,31,0,46.5,0c1,0,2-0.1,3-0.1v0.2c0,7.4,0,14.9,0,22.3
		C89.7,155.3,89.7,155.4,89.7,155.5z"/>
	<path class="st2" d="M89.7,191c0-11.8,0-23.7,0-35.5c0-0.1,0-0.2,0-0.3c9.2,0,18.4,0,27.6,0c-0.8,9.5-1.7,18.4-2.4,27.4
		c-0.1,1.5-0.8,2.1-2.2,2.4c-7.7,2-15.4,4.1-23.1,6.2L89.7,191z"/>
	<path class="st2" d="M89.7,132.6c0-7.6,0-15.1,0-22.7v-0.2c10.5,0,21,0,31.6,0c-0.7,7.9-1.4,15.4-2.1,23.1c-10,0-19.8,0-29.6,0
		L89.7,132.6z"/>
	<path class="st6" d="M89.6,132.8c9.8,0,19.6,0,29.6,0c0.7-7.7,1.4-15.2,2.1-23.1c-10.6,0-21.1,0-31.6,0c0-7.5,0-14.9,0-22.4
		c16.5,0,33-0.1,49.5-0.1c2.1,0,4.3,0,6.8,0c-3.4,38.3-6.8,76.4-10.2,114.6c-9.8,2.7-19.4,5.4-29.1,8.1c-5.6,1.5-11.3,3-16.9,4.5
		c0-7.7,0-15.4,0-23.2c7.7-2.1,15.4-4.2,23.1-6.2c1.4-0.4,2-0.9,2.2-2.4c0.7-8.9,1.5-17.9,2.4-27.4c-9.3,0-18.4,0-27.6,0
		C89.6,147.7,89.6,140.3,89.6,132.8z"/>
</g>
</svg>
