<?xml version="1.0" encoding="utf-8"?>
<!-- Generator: Adobe Illustrator 28.2.0, SVG Export Plug-In . SVG Version: 6.00 Build 0)  -->
<svg version="1.1" id="Calque_1" xmlns="http://www.w3.org/2000/svg" xmlns:xlink="http://www.w3.org/1999/xlink" x="0px" y="0px"
	 viewBox="0 0 113.7 108.1" style="enable-background:new 0 0 113.7 108.1;" xml:space="preserve">
<style type="text/css">
	.st0{fill:#E14329;}
	.st1{fill:#FB6D26;}
	.st2{fill:#FBA226;}
	.st3{fill:#E0330D;}
</style>
<g>
	<path class="st0" d="M77.4,34.8c3-8.7,6.1-17.5,9.1-26.2C87,7,87.3,5.2,88.2,3.9C89.3,2.3,91,0,92.4,0c1.4,0,3.5,2.1,4.3,3.7
		c3,7,5.6,14.2,8.3,21.3c2.2,5.9,4.3,11.8,6.4,17.7c-1.1,0.2-2.3,0.4-3.4,0.7c-8.9,2.3-16.2,7.5-23.2,13.1
		c-9.1,7.2-18.3,14.1-27.4,21.2c-0.3,0-0.6,0-1,0c-0.9-0.9-1.8-2-2.8-2.8c-8.8-6.7-17.8-13.3-26.6-20c-7.4-5.7-15.2-10.7-24.7-12.2
		c5-13.3,9.9-26.6,15.1-39.8c0.5-1.3,3-3,4.1-2.8c1.6,0.4,3.4,2.2,4,3.8c3.1,8.7,5.9,17.6,8.8,26.3c0.5,1.5,1.3,3,2,4.5
		C50,34.8,63.7,34.8,77.4,34.8z"/>
	<path class="st1" d="M2.3,42.8c9.5,1.5,17.2,6.5,24.7,12.2c8.8,6.7,17.7,13.3,26.6,20c1,0.8,1.9,1.8,2.8,2.8
		c-7,5.4-14,10.7-21,16.1C27,87.6,18.4,81.6,10.3,75C0.4,67-2.6,53.6,2.3,42.8z"/>
	<path class="st1" d="M57.4,77.7c9.2-7.1,18.4-14,27.4-21.2c7.1-5.6,14.4-10.7,23.2-13.1c1.1-0.3,2.3-0.4,3.4-0.7
		c4.9,11,1.9,24.4-8,32.3c-8.1,6.6-16.7,12.5-25.1,18.7C71.3,88.4,64.3,83.1,57.4,77.7z"/>
	<path class="st2" d="M57.4,77.7c7,5.4,14,10.7,21,16.1c-5.9,4.5-11.5,9.4-17.7,13.4c-1.8,1.2-5.7,1.2-7.4,0
		c-6.2-4.1-11.9-8.9-17.7-13.4c7-5.4,14-10.7,21-16.1C56.7,77.7,57,77.7,57.4,77.7z"/>
	<path class="st3" d="M77.4,34.8c-13.7,0-27.3,0-41,0C50,34.8,63.7,34.8,77.4,34.8z"/>
</g>
</svg>
