<?xml version="1.0" encoding="utf-8"?>
<!-- Generator: Adobe Illustrator 28.2.0, SVG Export Plug-In . SVG Version: 6.00 Build 0)  -->
<svg version="1.1" id="Calque_1" xmlns="http://www.w3.org/2000/svg" xmlns:xlink="http://www.w3.org/1999/xlink" x="0px" y="0px"
	 viewBox="0 0 179.1 253.1" style="enable-background:new 0 0 179.1 253.1;" xml:space="preserve">
<style type="text/css">
	.st0{fill:#E94F2B;}
	.st1{fill:#030405;}
	.st2{fill:#040505;}
	.st3{fill:#020203;}
	.st4{fill:#030304;}
	.st5{fill:#EC662B;}
	.st6{fill:#ECE8E6;}
	.st7{fill:#EAE9E8;}
	.st8{fill:#EC672C;}
	.st9{fill:#FFFEFE;}
	.st10{fill:#FFFFFF;}
</style>
<g>
	<path class="st0" d="M88.3,253c-6.8-2-13.7-4-20.5-5.9c-16.5-4.6-33.1-9.2-49.6-13.7c-1.8-0.5-2.3-1.3-2.4-3
		c-1.9-21.9-3.9-43.8-5.8-65.6c-1.6-17.5-3.1-35.1-4.6-52.6c-1.7-19.3-3.5-38.7-5.2-58C0.1,52.9,0,51.6,0,50.1
		c59.7,0,119.2,0,179.1,0c-0.4,5.2-0.9,10.3-1.3,15.5c-1.2,13.8-2.5,27.7-3.7,41.5c-1.4,16-2.9,32-4.3,47.9
		c-1.2,13.6-2.4,27.2-3.6,40.8c-1,11.7-2.1,23.4-3,35.2c-0.1,1.8-1.2,2-2.5,2.4c-22.7,6.3-45.4,12.6-68.2,18.9
		c-0.7,0.2-1.3,0.6-1.9,0.8C89.7,253,89,253,88.3,253z M89.4,190.6c-7.9-2.1-15.9-4.1-23.8-6.3c-0.6-0.2-1.3-1.3-1.4-2
		c-0.6-5.3-1-10.6-1.5-16c-7.5,0-14.9,0-22.5,0c1,11.4,2,22.7,3.1,33.9c0.1,0.6,1.1,1.5,1.9,1.7c14.7,4.2,29.4,8.2,44.2,12.3
		c0,7.6,0,15.2,0,23c0.8-0.1,1.1-0.2,1.4-0.3c10.7-3,21.5-6,32.2-8.9c7.7-2.1,15.3-4.2,23-6.3c1.6-0.4,2.8-1,2.8-3.1
		c0-1.9,0.2-3.8,0.4-5.6c0.6-6.6,1.3-13.2,1.9-19.8c0.4-4.4,0.7-8.8,1.1-13.2c0.6-6.8,1.3-13.5,1.9-20.3c0.4-4.3,0.7-8.6,1.1-13
		c0.6-6.6,1.3-13.2,1.9-19.8c0.4-4.4,0.7-8.8,1.1-13.2c0.6-6.8,1.3-13.5,1.9-20.3c0.4-4.4,0.7-8.8,1.1-13.2
		c0.4-4.5,0.9-8.9,1.3-13.4c0.2-1.7-0.5-2.3-2.2-2.2c-22.9,0-45.8,0.1-68.7,0c-2,0-2.3,0.8-2.3,2.5c0.1,6.6,0,13.2,0,19.8
		c-1,0-2,0.1-2.9,0.1c-16.9,0-33.7,0-50.6,0c-0.9,0-1.7,0-2.8,0c0.4,4.7,0.8,9,1.2,13.4c1.6,17.3,3.2,34.5,4.7,51.8
		c0.2,2.4,1,2.7,3.1,2.7c14.8-0.1,29.6,0,44.4,0c1,0,2,0.1,2.9,0.2C89.3,167,89.3,178.8,89.4,190.6z"/>
	<path class="st1" d="M91.2,0c3.6,0,7-0.1,10.5,0.1c0.7,0,1.6,0.6,2,1.3c2.2,3.4,4.3,7,6.6,10.7c2.2-3.7,4.2-7.2,6.4-10.5
		c0.5-0.8,1.7-1.5,2.6-1.5c3.3-0.2,6.6-0.1,10-0.1c0,11.3,0,22.6,0,33.9c-3.5,0-7.2,0-11.1,0c0-5.2,0-10.5,0-15.8
		c-0.2-0.1-0.3-0.1-0.5-0.2c-2.4,3.7-4.9,7.4-7.5,11.5c-2.6-3.9-5.1-7.7-7.9-12.1c0,5.9,0,11.2,0,16.6c-3.8,0-7.4,0-11.1,0
		C91.2,22.8,91.2,11.5,91.2,0z"/>
	<path class="st2" d="M49.5,34c-3.8,0-7.4,0-11.2,0c0-3.7,0-7.4,0-11.2c-3.5,0-6.9,0-10.4,0c0,3.7,0,7.4,0,11.1c-3.9,0-7.6,0-11.4,0
		c0-11.2,0-22.5,0-33.8c3.7,0,7.3,0,11.2,0c0,3.6,0,7.3,0,11c3.6,0,6.9,0,10.5,0c0-3.7,0-7.3,0-11c3.8,0,7.5,0,11.3,0
		C49.5,11.3,49.5,22.6,49.5,34z"/>
	<path class="st3" d="M86,0.1c0,3.8,0,7.4,0,11.2c-3.3,0-6.5,0-9.8,0c0,7.6,0,15,0,22.6c-3.8,0-7.5,0-11.4,0c0-7.4,0-14.8,0-22.5
		c-3.4,0-6.7,0-10,0c0-3.9,0-7.6,0-11.3C65.2,0.1,75.5,0.1,86,0.1z"/>
	<path class="st4" d="M162.5,22.7c0,3.9,0,7.5,0,11.2c-9,0-18.1,0-27.2,0c0-11.3,0-22.5,0-33.8c3.7,0,7.4,0,11.2,0
		c0,7.5,0,15,0,22.6C151.9,22.7,157,22.7,162.5,22.7z"/>
	<path class="st5" d="M89.3,86.9c0-6.6,0-13.2,0-19.8c0-1.7,0.3-2.5,2.3-2.5c22.9,0.1,45.8,0.1,68.7,0c1.7,0,2.4,0.5,2.2,2.2
		c-0.5,4.5-0.9,8.9-1.3,13.4c-0.4,4.4-0.7,8.8-1.1,13.2c-0.6,6.8-1.3,13.5-1.9,20.3c-0.4,4.4-0.7,8.8-1.1,13.2
		c-0.6,6.6-1.3,13.2-1.9,19.8c-0.4,4.3-0.7,8.6-1.1,13c-0.6,6.8-1.3,13.5-1.9,20.3c-0.4,4.4-0.7,8.8-1.1,13.2
		c-0.6,6.6-1.3,13.2-1.9,19.8c-0.2,1.9-0.4,3.8-0.4,5.6c0,2-1.2,2.6-2.8,3.1c-7.7,2.1-15.3,4.2-23,6.3c-10.7,3-21.5,6-32.2,8.9
		c-0.3,0.1-0.6,0.1-1.4,0.3c0-7.8,0-15.4,0-23c0-0.1,0-0.2,0-0.2c14.9-4.1,29.8-8.2,44.6-12.3c0.6-0.2,1.2-1,1.3-1.7
		c0.4-3.6,0.7-7.2,1-10.8c1.3-13.8,2.5-27.7,3.7-41.5c0.4-5,0.9-10,1.3-14.9c-0.5-0.1-0.7-0.3-0.9-0.3c-17,0-34.1,0-51.1,0.1
		l0.1-0.2c0-7.5,0-15.1,0-22.6c0-0.1,0-0.2,0-0.2c0.3,0,0.7,0.1,1,0.1c17.1,0,34.2,0,51.3,0c0.5,0,1.1-0.1,1.8-0.2
		c0.7-7.4,1.3-14.8,2-22.3c-3.4,0-6.3,0-9.2,0c-15.6,0-31.2,0.1-46.9,0.1C89.3,87.1,89.3,87,89.3,86.9z"/>
	<path class="st6" d="M89.3,155.1c-1-0.1-2-0.2-2.9-0.2c-14.8,0-29.6,0-44.4,0c-2.1,0-2.9-0.4-3.1-2.7c-1.4-17.3-3.1-34.6-4.7-51.8
		c-0.4-4.3-0.7-8.7-1.2-13.4c1,0,1.9,0,2.8,0c16.9,0,33.7,0,50.6,0c1,0,2-0.1,2.9-0.1c0,0.1,0,0.2,0,0.2c0,7.4,0,14.9,0,22.3
		c0,0.1,0,0.2,0,0.2c-10.5,0-21,0-31.7,0c0.7,7.7,1.4,15.2,2.1,22.6c10.1,0,19.9,0,29.6,0l-0.1,0.2c0,7.4,0,14.8,0,22.3
		C89.3,154.9,89.4,155,89.3,155.1z"/>
	<path class="st7" d="M89.3,214.2c-14.7-4.1-29.5-8.2-44.2-12.3c-0.8-0.2-1.8-1.1-1.9-1.7c-1.1-11.2-2.1-22.4-3.1-33.9
		c7.6,0,15,0,22.5,0c0.5,5.4,0.9,10.7,1.5,16c0.1,0.7,0.8,1.9,1.4,2c7.9,2.2,15.9,4.2,23.8,6.3v0.2c0,7.7,0,15.4,0,23.2
		C89.4,214,89.4,214.1,89.3,214.2z"/>
	<path class="st8" d="M89.4,190.6c0-11.8,0-23.7,0-35.5c0-0.1,0-0.2,0-0.3c9.2,0,18.3,0,27.6,0c-0.8,9.6-1.7,18.6-2.4,27.6
		c-0.1,1.5-0.9,1.9-2.1,2.2c-7.7,2-15.4,4.1-23.1,6.2V190.6z"/>
	<path class="st9" d="M89.3,190.8c7.7-2.1,15.4-4.1,23.1-6.2c1.2-0.3,2-0.7,2.1-2.2c0.7-9,1.5-18,2.4-27.6c-9.3,0-18.4,0-27.6,0
		c0-7.4,0-14.8,0-22.3c17,0,34.1,0,51.1-0.1c0.2,0,0.5,0.1,0.9,0.3c-0.4,5-0.8,9.9-1.3,14.9c-1.2,13.8-2.5,27.7-3.7,41.5
		c-0.3,3.6-0.6,7.2-1,10.8c-0.1,0.6-0.7,1.5-1.3,1.7c-14.9,4.1-29.7,8.2-44.6,12.3C89.3,206.2,89.3,198.5,89.3,190.8z"/>
	<path class="st10" d="M89.3,109.5c0-7.4,0-14.9,0-22.3c15.6,0,31.2-0.1,46.9-0.1c2.9,0,5.9,0,9.2,0c-0.7,7.6-1.3,14.9-2,22.3
		c-0.7,0.1-1.3,0.2-1.8,0.2c-17.1,0-34.2,0-51.3,0C90,109.6,89.6,109.5,89.3,109.5z"/>
	<path class="st0" d="M89.4,132.4c-9.8,0-19.6,0-29.6,0c-0.7-7.5-1.4-15-2.1-22.6c10.7,0,21.2,0,31.7,0
		C89.3,117.3,89.4,124.8,89.4,132.4z"/>
</g>
</svg>
