<?xml version="1.0" encoding="utf-8"?>
<!-- Generator: Adobe Illustrator 28.2.0, SVG Export Plug-In . SVG Version: 6.00 Build 0)  -->
<svg version="1.1" id="Calque_1" xmlns="http://www.w3.org/2000/svg" xmlns:xlink="http://www.w3.org/1999/xlink" x="0px" y="0px"
	 viewBox="0 0 227 222" style="enable-background:new 0 0 227 222;" xml:space="preserve">
<style type="text/css">
	.st0{fill:#330000;}
	.st1{fill:#F99700;}
	.st2{fill:#FD9900;}
	.st3{fill:#FA9700;}
	.st4{fill:#170000;}
	.st5{fill:#160000;}
	.st6{fill:#210000;}
	.st7{fill:#330200;}
	.st8{fill:#290500;}
</style>
<g>
	<path class="st0" d="M0,190C0,137.3,0,84.7,0,32c0.6-1.2,1.5-2.4,1.9-3.7C6.1,15.6,14.5,7.1,26.8,2.3C28.9,1.5,30.9,0.8,33,0
		c53.3,0,106.7,0,160,0c0.3,0.3,0.6,0.9,0.9,0.9c10.3,1.7,18.8,6.5,24.4,15.4c3.3,5.3,5.8,11.1,8.6,16.7c0,52.3,0,104.7,0,157
		c-0.6,1.2-1.5,2.4-1.9,3.8c-4.2,12.6-12.6,21.2-24.9,25.9c-2.4,0.9-4.8,1.6-7.2,2.3c-53.7,0-107.3,0-161,0
		c-0.8-0.5-1.5-1.2-2.3-1.5c-14.5-4.4-23.8-13.7-28.2-28.2C1.2,191.5,0.5,190.8,0,190z M150,156c1.2,0.7,2.4,1.9,3.6,1.9
		c5.8-0.1,11.7-0.5,17.5-0.8c0-25.8,0-50.8,0-76c-7.2,0-14,0-20.8,0c-0.4,1.7-1.3,3.3-1.3,5c-0.1,21.8-0.1,43.5,0,65.3
		C149,152.9,149.7,154.4,150,156z M110,135c2.3,6.2,4.4,12.5,6.9,18.6c0.6,1.6,2.4,3.8,3.7,3.8c6.3,0.1,12.7-0.4,19.5-0.8
		c-0.6-2-0.8-2.9-1.1-3.8c-11-31.2-22-62.3-33-93.5c-0.4-1.2-1.3-2.3-1.9-3.4c-7.7-0.3-15.3-0.7-23-0.9c-0.6,0-1.3,0.8-2,1.2
		c-1,4.7-1.7,9.5-3.2,14c-8.7,25.4-17.5,50.8-26.3,76.1c-4.2,12-4.2,12,8.6,11.2c8.6-0.6,8.6-0.6,11.3-8.7c1.6-5,3.3-10,5-15.1
		c9.1,0,18.2,0,27.4,0.1C104.5,134.1,107.3,134.7,110,135z M161.1,73c6.9-0.1,11.8-5.1,11.7-12.1c-0.1-6.9-5.3-12-12.1-11.8
		c-6.7,0.2-11.9,5.6-11.8,12.3C149.2,68.4,154,73.1,161.1,73z"/>
	<path class="st1" d="M104,56c0.7,1.1,1.5,2.2,1.9,3.4c11,31.1,22,62.3,33,93.5c0.3,0.9,0.5,1.8,1.1,3.8c-6.8,0.3-13.2,0.9-19.5,0.8
		c-1.3,0-3-2.2-3.7-3.8c-2.5-6.1-4.6-12.4-6.9-18.6c-1.3-0.7-2.7-1.9-4-2c-9.1-0.2-18.3-0.1-27.5,0c-1.4,0-2.8,0.6-4.2,0.9
		c-1.7,5-3.4,10-5,15.1c-2.7,8.1-2.6,8.1-11.3,8.7c-12.7,0.8-12.7,0.8-8.6-11.2c8.8-25.4,17.7-50.7,26.3-76.1
		c1.5-4.5,2.2-9.3,3.2-14C87.4,56.2,95.7,56.1,104,56z M81.1,111c0.7,0.8,1.3,2.2,2,2.2c6.6,0.2,13.3,0.1,20.7,0.1
		c-0.7-2-1.2-3.3-1.7-4.6c-3.2-10.6-6.3-21.2-9.5-31.9c-0.4,0-0.8,0.1-1.2,0.1C87.9,88.3,84.5,99.7,81.1,111z"/>
	<path class="st2" d="M150.3,81.1c6.8,0,13.6,0,20.8,0c0,25.2,0,50.2,0,76c-5.9,0.3-11.7,0.7-17.5,0.8c-1.2,0-2.4-1.2-3.6-1.9
		c0-5,0.1-10,0.1-15C150.1,121,150.2,101,150.3,81.1z"/>
	<path class="st3" d="M161.1,73c-7.1,0.1-12-4.6-12.1-11.7c-0.1-6.7,5-12.1,11.8-12.3c6.8-0.2,12,4.9,12.1,11.8
		C172.9,67.9,168.1,72.9,161.1,73z"/>
	<path class="st4" d="M150.3,81.1c-0.1,20-0.2,40-0.3,59.9c0,5-0.1,10-0.1,15c-0.3-1.6-0.9-3.1-0.9-4.7c-0.1-21.8-0.1-43.5,0-65.3
		C149.1,84.4,149.9,82.7,150.3,81.1z"/>
	<path class="st5" d="M74.4,133.9c1.4-0.3,2.8-0.9,4.2-0.9c9.2-0.1,18.3-0.1,27.5,0c1.4,0,2.7,1.3,4,2c-2.8-0.3-5.5-0.9-8.3-1
		C92.6,133.9,83.5,134,74.4,133.9z"/>
	<path class="st6" d="M104,56c-8.3,0.1-16.6,0.2-25,0.3c0.7-0.4,1.3-1.2,2-1.2C88.7,55.3,96.4,55.7,104,56z"/>
	<path class="st7" d="M81.1,111c3.4-11.3,6.8-22.7,10.2-34c0.4,0,0.8-0.1,1.2-0.1c3.2,10.6,6.3,21.2,9.5,31.9
		c-0.8,1.1-1.5,3.1-2.3,3.1C93.6,111.7,87.4,111.3,81.1,111z"/>
	<path class="st8" d="M81.1,111c6.2,0.3,12.5,0.7,18.7,0.8c0.7,0,1.5-2,2.3-3.1c0.5,1.3,1,2.7,1.7,4.6c-7.4,0-14,0.1-20.7-0.1
		C82.4,113.2,81.8,111.8,81.1,111z"/>
</g>
</svg>
