<?xml version="1.0" encoding="utf-8"?>
<!-- Generator: Adobe Illustrator 28.2.0, SVG Export Plug-In . SVG Version: 6.00 Build 0)  -->
<svg version="1.1" id="Calque_1" xmlns="http://www.w3.org/2000/svg" xmlns:xlink="http://www.w3.org/1999/xlink" x="0px" y="0px"
	 viewBox="0 0 179.4 246.3" style="enable-background:new 0 0 179.4 246.3;" xml:space="preserve">
<style type="text/css">
	.st0{fill:#E8CA32;}
	.st1{fill:#040505;}
	.st2{fill:#030405;}
	.st3{fill:#404040;}
	.st4{fill:#E7C628;}
	.st5{fill:#E6C41F;}
	.st6{fill:#E8C31E;}
	.st7{fill:#FEDD26;}
	.st8{fill:#FEFEFC;}
	.st9{fill:#E4C110;}
	.st10{fill:#E4C113;}
	.st11{fill:#FFFFFE;}
	.st12{fill:#FEDB16;}
	.st13{fill:#FED808;}
	.st14{fill:#FFD70D;}
	.st15{fill:#FED80D;}
</style>
<g>
	<path class="st0" d="M167.1,182.7c-0.1,1.8-0.2,3.5-0.4,5.3c-0.5,4.4-1.2,8.8-1.6,13.3c-0.5,5.4-0.7,10.9-1,16.3
		c-0.1,1.9-0.5,3.8-0.4,5.6c0.1,2.2-1.1,3.1-3.1,3.6c-15.9,4.3-31.8,8.7-47.8,13c-7,1.9-14.1,3.8-21.1,5.8c-0.5,0.1-0.9,0.4-1.3,0.6
		c-0.5,0-1,0-1.5,0c-9.4-2.6-18.7-5.3-28.1-7.8c-14.1-3.9-28.3-7.7-42.4-11.6c-2-0.5-2.7-1.3-2.8-3.5c-0.1-4-1-8.1-1.4-12.1
		c-1.5-16.4-3-32.7-4.4-49.1c-0.2-2.8,0-5.6-0.3-8.3c-0.4-4.6-1.2-9.2-1.6-13.8c-0.4-4.5-0.5-9.1-0.9-13.6c-0.4-5-1.2-9.9-1.6-14.8
		c-0.6-6.5-0.8-13.1-1.4-19.6C3.6,86.9,2.9,82,2.4,77.1C2.2,74.4,2.3,71.7,2,69c-0.5-4.9-1.1-9.8-1.7-14.6c-0.1-0.7-0.1-1.5-0.2-2.2
		c0.2-0.2,0.4-0.3,0.7-0.5c-0.2-0.2-0.5-0.3-0.7-0.5c-0.1-0.7-0.1-1.3-0.2-2c59.3,0,118.6,0,178.2,0c0,1.3,0,2.2,0,3
		c-0.3,4.7-0.7,9.5-1,14.2c0,0.7,0,1.3,0,2c-0.2,0.7-0.4,1.3-0.6,2c0,1.1,0,2.3,0.1,3.4c-0.6,7-1.1,14-1.7,21.1
		c-0.2,2.4-0.5,4.9-0.7,7.3c-1.1,12.4-2.1,24.7-3.2,37.1c-0.5,5.3-1.4,10.5-1.9,15.8c-0.4,4.1-0.4,8.2-0.6,12.2
		c-0.1,1.6-0.5,3.2-0.8,4.8c-0.1,1.4-0.1,2.8-0.2,4.1c-0.2,0.8-0.4,1.6-0.6,2.5c-0.1,0-0.2,0.1-0.2,0.1c0,0.1,0.1,0.2,0.2,0.3
		c0,0.7,0.1,1.3,0.1,2C167.1,181.7,167.1,182.2,167.1,182.7z M82.7,207.4c0.2-0.8,0.6-1.7,0.6-2.5c0-39.2,0-78.4,0-117.6
		c0-0.9-0.5-1.8-0.7-2.6c-6.6,0-13.1,0-19.7,0c-0.2,1-0.7,1.9-0.7,2.9c0,30,0,60,0,90c0,0.7,0,1.3,0,2c0.1,1.3-0.6,1.8-1.8,1.7
		c-0.8-0.1-1.6-0.1-2.4-0.3c-8.9-2.3-17.8-4.7-26.7-7.1c-0.8-0.2-1.7-0.4-2.8-0.6c0,6.2,0.1,12.1,0,18c0,1.7,0.7,2.2,2.2,2.6
		c16.3,4.3,32.6,8.6,48.9,12.9C80.5,207.2,81.6,207.3,82.7,207.4z M89.4,230.7c2.5-0.6,4.6-1.1,6.7-1.7c8.3-2.2,16.7-4.3,25-6.5
		c8.4-2.2,16.8-4.4,25.2-6.8c0.7-0.2,1.6-1.1,1.6-1.7c0.8-7.9,1.4-15.7,2.1-23.6c0.5-6.5,1-13,1.6-19.5c0.9-10,2-19.9,3-29.9
		c0.7-7.3,1.4-14.6,2-21.9c0.9-9.4,1.7-18.8,2.5-28.3c0.8-9,1.5-18,2.3-27.3c-1,0-1.9,0-2.8,0c-22,0-44.1,0-66.1-0.1
		c-2.4,0-3.1,0.6-3.1,3c0.1,53.7,0.1,107.5,0.1,161.2C89.4,228.6,89.4,229.4,89.4,230.7z"/>
	<path class="st1" d="M119.7,0c0.2,2.8,0.4,5.6,0.5,8.7c-7.8,0-15.2,0-22.7,0c0,1.4,0,2.5,0,3.8c7.5,0,14.9,0,22.4,0
		c0,6.8,0,13.4,0,20.2c-10.5,0-20.9,0-31.4,0c0-2.8,0-5.6,0-8.5c7.5,0,14.9,0,22.5,0c0-1.3,0-2.5,0-3.8c-7.4,0-14.8,0-22.6,0
		c0-5.1,0-10,0-14.9c0-1.8,0.3-3.7,0.4-5.5c0.2,0,0.3,0,0.5,0c0.6,0.2,1.2,0.4,1.8,0.5c8.7,0,17.4,0,26.1,0c0.6,0,1.2-0.3,1.8-0.5
		C119.3,0,119.5,0,119.7,0z"/>
	<path class="st2" d="M83.8,0c-0.1,0.8-0.3,1.6-0.3,2.4c0,9.3,0,18.5,0,27.8c0,0.8,0,1.6,0,2.5c-7.9,0-15.6,0-23.4,0
		c0-2.8,0-5.6,0-8.5c4.8,0,9.5,0,14.6,0c0-8.1,0-16.1,0-24.1C77.8,0,80.8,0,83.8,0z"/>
	<path class="st3" d="M119.2,0c-0.6,0.2-1.2,0.4-1.8,0.5c-8.7,0-17.4,0-26.1,0c-0.6,0-1.2-0.3-1.8-0.5C99.3,0,109.2,0,119.2,0z"/>
	<path class="st4" d="M178.2,52.3c0-0.9,0-1.8,0-3c-59.6,0-118.9,0-178.2,0c0.2-0.3,0.4-0.9,0.7-1c0.7-0.1,1.5-0.1,2.3-0.1
		c57.8,0,115.6,0,173.5,0c0.8,0,1.6,0,3,0C178.9,49.8,178.6,51,178.2,52.3z"/>
	<path class="st5" d="M167.6,176.3c0.1-1.4,0.1-2.8,0.2-4.1C167.8,173.6,167.7,175,167.6,176.3z"/>
	<path class="st6" d="M176.7,73.9c0-1.1,0-2.3-0.1-3.4C176.6,71.6,176.7,72.7,176.7,73.9z"/>
	<path class="st4" d="M0.2,51.2c0.2,0.2,0.5,0.3,0.7,0.5c-0.2,0.2-0.4,0.3-0.7,0.5C0.2,51.9,0.2,51.6,0.2,51.2z"/>
	<path class="st6" d="M177.2,68.5c0-0.7,0-1.3,0-2C177.2,67.2,177.2,67.8,177.2,68.5z"/>
	<path class="st5" d="M167.1,182.7c0-0.5,0.1-1,0.1-1.5C167.1,181.7,167.1,182.2,167.1,182.7z"/>
	<path class="st5" d="M167,179.3c-0.1-0.1-0.1-0.2-0.2-0.3c0,0,0.1-0.1,0.2-0.1C167.1,179,167.1,179.1,167,179.3z"/>
	<path class="st7" d="M89.4,230.7c0-1.3,0-2.2,0-3c0-53.7,0-107.5-0.1-161.2c0-2.4,0.7-3,3.1-3c22,0.1,44.1,0.1,66.1,0.1
		c0.9,0,1.8,0,2.8,0c-0.8,9.3-1.5,18.3-2.3,27.3c-0.8,9.4-1.7,18.8-2.5,28.3c-0.7,7.3-1.3,14.6-2,21.9c-1,10-2,19.9-3,29.9
		c-0.6,6.5-1,13-1.6,19.5c-0.7,7.9-1.3,15.8-2.1,23.6c-0.1,0.6-1,1.5-1.6,1.7c-8.4,2.3-16.8,4.6-25.2,6.8c-8.3,2.2-16.6,4.3-25,6.5
		C94,229.6,91.9,230.1,89.4,230.7z M125.3,178.6c0,0.2,0.1,0.4,0.1,0.7c-0.6,0.2-1.2,0.5-1.8,0.7c-0.8,0.3-1.5,0.6-2.3,0.9
		c-8.3,2.3-16.6,4.5-24.9,6.8c-0.3,0.6-0.9,1.1-0.9,1.7c-0.1,5.7-0.1,11.3,0,17c0,0.4,0.5,0.8,0.8,1.3c15-4,30.1-8,45.1-12.1
		c0.6-0.1,1.2-0.9,1.3-1.4c0.5-2.4,0.9-4.8,1.1-7.2c0.6-7,1-13.9,1.6-20.9c0.5-5.2,1.2-10.4,1.8-15.6c0.1-1.4,0.2-2.7,0.2-4.1
		c0-0.5,0-1,0.1-1.5c0.3-1.6,0.6-3.1,0.9-4.7c0-2.4,0-4.7,0-7.2c-6.4,0.9-12.5,1.7-18.6,2.5c-1-0.1-2.1-0.3-3.1-0.2
		c-3.1,0.3-6.2,0.8-9.4,1.3c-0.1-1.2-0.1-1.9-0.1-2.6c0-8.8,0.1-17.5-0.1-26.3c0-2.2,0.6-2.8,2.8-2.7c9.5,0.1,19,0.1,28.4,0
		c0.9,0,1.7-0.7,2.6-1.1c0.6-6.3,1.1-12.6,1.7-19.1c-19.1,0-37.6,0-56.2,0c-0.3,0.6-1,1.3-1,1.9c0,23.7,0,47.3,0,71
		c0,0.7,0.6,1.3,0.9,1.9c7.4-1.1,14.7-2.2,22.1-3.3c3-0.4,6-0.7,9.3-1.2c0,1.9,0.1,3.1,0,4.3c-0.3,2.8-0.7,5.6-1,8.4
		c-0.2,0.4-0.3,0.9-0.5,1.3c0,0.9,0,1.8,0,2.7c-0.2,0.8-0.3,1.5-0.5,2.3c0,0.9,0,1.8,0,2.7C125.6,177.4,125.4,178,125.3,178.6z"/>
	<path class="st8" d="M62.9,84.7c6.6,0,13.1,0,19.7,0c0,0.9,0.1,1.8,0.1,2.7c0,30.3,0,60.7,0,91c0,9.7,0,19.3,0.1,29
		c-1.1-0.2-2.3-0.3-3.4-0.5c-16.3-4.3-32.6-8.6-48.9-12.9c-1.5-0.4-2.2-0.9-2.2-2.6c0.1-5.9,0-11.8,0-18c1.1,0.2,1.9,0.4,2.8,0.6
		c8.9,2.4,17.8,4.8,26.7,7.1c0.8,0.2,1.6,0.2,2.4,0.3c0.7,0.3,1.4,0.7,2.4,1.1c0-1.3,0-2.2,0-3c0-27.4,0-54.9,0-82.3
		C62.8,92.9,62.8,88.8,62.9,84.7z"/>
	<path class="st9" d="M82.7,207.4c0-9.7-0.1-19.3-0.1-29c0-30.3,0-60.7,0-91c0-0.9-0.1-1.8-0.1-2.7c0.2,0.9,0.7,1.8,0.7,2.6
		c0,39.2,0,78.4,0,117.6C83.3,205.8,82.9,206.6,82.7,207.4z"/>
	<path class="st10" d="M62.9,84.7c0,4.1-0.1,8.2-0.1,12.3c0,27.4,0,54.9,0,82.3c0,0.9,0,1.8,0,3c-1-0.5-1.7-0.8-2.4-1.1
		c1.2,0.1,1.9-0.4,1.8-1.7c-0.1-0.7,0-1.3,0-2c0-30,0-60,0-90C62.2,86.7,62.6,85.7,62.9,84.7z"/>
	<path class="st11" d="M126.8,167.9c0.3-2.8,0.7-5.6,1-8.4c0.1-1.2,0-2.4,0-4.3c-3.3,0.4-6.3,0.7-9.3,1.2
		c-7.4,1.1-14.7,2.2-22.1,3.3c0-12.8,0-25.7,0-38.5c0-12.1,0.1-24.2,0.1-36.3c18.6,0,37.1,0,56.2,0c-0.6,6.5-1.2,12.8-1.7,19.1
		c-1,0.1-2,0.1-3,0.2c-10.4,0-20.8,0.1-31.3,0.1c-0.2,0.1-0.3,0.3-0.5,0.4c0,11,0,21.9,0,33.2c4.7-0.7,9.1-1.5,13.6-2.2
		c6.1-0.8,12.2-1.7,18.6-2.5c0,2.5,0,4.8,0,7.2c-0.3,1.6-0.6,3.1-0.9,4.7c0,0.5,0,1-0.1,1.5c-0.1,1.4-0.2,2.7-0.2,4.1
		c-0.6,5.2-1.3,10.4-1.8,15.6c-0.6,7-1,13.9-1.6,20.9c-0.2,2.4-0.6,4.8-1.1,7.2c-0.1,0.6-0.8,1.3-1.3,1.4
		c-15,4.1-30.1,8.1-45.1,12.1c0-6.6,0-13.3,0.1-19.9c8.3-2.3,16.6-4.5,24.9-6.8c0.8-0.2,1.5-0.6,2.3-0.9c0.6-0.2,1.2-0.5,1.8-0.7
		c0-0.2-0.1-0.4-0.1-0.7c0.2-0.6,0.3-1.2,0.5-1.8c0-0.9,0-1.8,0-2.7c0.2-0.8,0.3-1.5,0.5-2.3c0-0.9,0-1.8,0-2.7
		C126.4,168.8,126.6,168.4,126.8,167.9z"/>
	<path class="st12" d="M116.6,104c10.4,0,20.8,0,31.3-0.1c1,0,2-0.1,3-0.2c-0.9,0.4-1.7,1.1-2.6,1.1c-9.5,0.1-19,0.1-28.4,0
		c-2.2,0-2.9,0.6-2.8,2.7c0.1,8.8,0.1,17.5,0.1,26.3c0,0.7,0.1,1.4,0.1,2.6c3.2-0.4,6.3-0.9,9.4-1.3c1-0.1,2,0.1,3.1,0.2
		c-4.4,0.7-8.9,1.4-13.6,2.2c0-11.2,0-22.2,0-33.2C116.3,104.3,116.5,104.2,116.6,104z"/>
	<path class="st13" d="M96.4,84.7c0,12.1-0.1,24.2-0.1,36.3c0,12.8,0,25.7,0,38.5c-0.3-0.6-0.9-1.3-0.9-1.9c0-23.7,0-47.3,0-71
		C95.5,86,96.1,85.4,96.4,84.7z"/>
	<path class="st13" d="M96.4,187.7c0,6.6,0,13.3-0.1,19.9c-0.3-0.4-0.8-0.8-0.8-1.3c-0.1-5.7-0.1-11.3,0-17
		C95.5,188.8,96.1,188.2,96.4,187.7z"/>
	<path class="st14" d="M147.5,144.8c0.3-1.6,0.6-3.1,0.9-4.7C148.1,141.7,147.8,143.2,147.5,144.8z"/>
	<path class="st14" d="M147.2,150.4c0.1-1.4,0.2-2.7,0.2-4.1C147.4,147.7,147.3,149,147.2,150.4z"/>
	<path class="st15" d="M126.3,171.9c-0.2,0.8-0.3,1.5-0.5,2.3C125.9,173.4,126.1,172.6,126.3,171.9z"/>
	<path class="st15" d="M125.8,176.8c-0.2,0.6-0.3,1.2-0.5,1.8C125.4,178,125.6,177.4,125.8,176.8z"/>
	<path class="st15" d="M125.3,179.3c-0.6,0.2-1.2,0.5-1.8,0.7C124.1,179.7,124.7,179.5,125.3,179.3z"/>
	<path class="st15" d="M126.8,167.9c-0.2,0.4-0.3,0.9-0.5,1.3C126.4,168.8,126.6,168.4,126.8,167.9z"/>
	<path class="st7" d="M116.6,104c-0.2,0.1-0.3,0.3-0.5,0.4C116.3,104.3,116.5,104.2,116.6,104z"/>
</g>
</svg>
