<?xml version="1.0" encoding="utf-8"?>
<!-- Generator: Adobe Illustrator 28.2.0, SVG Export Plug-In . SVG Version: 6.00 Build 0)  -->
<svg version="1.1" id="Calque_1" xmlns="http://www.w3.org/2000/svg" xmlns:xlink="http://www.w3.org/1999/xlink" x="0px" y="0px"
	 viewBox="0 0 512 512" style="enable-background:new 0 0 512 512;" xml:space="preserve">
<style type="text/css">
	.st0{fill:#FE347A;}
	.st1{fill:#D0005B;}
	.st2{fill:#C6D1EB;}
	.st3{fill:#38478A;}
	.st4{fill:#6787F4;}
	.st5{fill:#D0025C;}
	.st6{fill:#3B4A8C;}
	.st7{fill:#D0015B;}
	.st8{fill:#6887F4;}
	.st9{fill:#3A498B;}
</style>
<g>
	<path class="st0" d="M0,194c8.8,0,17.6,0.1,26.5,0.1c62.3,0,124.6,0,186.9,0c2,0,3.9,0,6.4,0c0-51.2,0-101.9,0-153
		c12.4,0,24.4,0,36.3,0c0,126.2,0,252.5,0,378.7c-13,0.1-26,0.1-39,0.2l0,0.1c0.9-50.8,1.8-101.5,2.7-152.7
		c-1.4-0.2-2.7-0.5-3.9-0.5c-71.5,0-142.9,0-214.4,0c-0.5,0-1,0.1-1.5,0.1C0,242.6,0,218.3,0,194z"/>
	<path class="st1" d="M256,419.8c0-126.2,0-252.5,0-378.7c12,0,24-0.1,36-0.1c0.1,2,0.2,4,0.2,6c0,47,0,94,0,141c0,1.9,0,3.8,0,6
		c73.8,0,146.7,0,219.7,0c0,24.3,0,48.7,0,73c-73.1,0-146.2,0-219.7,0c0,2.5,0,4.5,0,6.5c0,46,0,92,0,138c0,2.8-0.1,5.7-0.2,8.5
		C280,419.9,268,419.9,256,419.8z"/>
	<path class="st2" d="M512,194c-73,0-146,0-219.7,0c0-2.1,0-4.1,0-6c0-47,0-94,0-141c0-2-0.1-4-0.2-6c10.1,0.1,20.2,0.1,30.3,0.2
		c0,19.2,0,38.3,0,58.7c2.4-2.2,3.7-3.5,5-4.7c14.7-14.7,29.4-29.4,44.1-44.1c3.3-3.3,6.4-6.7,9.5-10.1c11.8,0,23.6-0.1,35.4,0
		c2.3,0,4.6,0.7,6.8,1.1c-35.8,35.8-71.6,71.6-107.4,107.5c-1.5,1.5-3.3,3.3-3.4,5.1c-0.4,6.3-0.2,12.6-0.2,19.4
		c5.6,0,10.7-0.3,15.8,0.1c4,0.3,6.7-1.2,9.5-4c39-39.2,78.2-78.2,117.3-117.3c9.3,4.2,18.3,9,24.1,18c-1.2,1.4-2.2,2.8-3.5,4.1
		c-28.2,28.3-56.5,56.5-84.7,84.7c-1.2,1.2-2.3,2.5-4,4.3c42.4,0,83.8,0,125.2,0C512,174,512,184,512,194z"/>
	<path class="st2" d="M292.1,419.9c0.1-2.8,0.2-5.7,0.2-8.5c0-46,0-92,0-138c0-2,0-3.9,0-6.5c73.5,0,146.6,0,219.7,0c0,10,0,20,0,30
		c-41.5,0-83,0-125.3,0c1.2,1.4,1.7,2,2.2,2.5c29.3,29.5,58.6,59,88,88.5c0.9,0.9,2.1,1.5,3.2,2.3c-7.3,8.1-16.3,14-26,18.7
		c-0.7-1.1-1.2-2.3-2-3.2c-38.8-38.9-77.5-77.8-116.4-116.7c-1-1-2.4-2.1-3.7-2.1c-6.4-0.2-12.9-0.1-19.8-0.1
		c0,5.7,0.2,10.8-0.1,15.9c-0.2,3.6,1,6.2,3.6,8.7c18.9,18.8,37.7,37.7,56.4,56.6c16.8,16.9,33.5,33.8,50.2,50.8
		c-4.4,0.4-8.8,1.1-13.2,1.1c-9.4,0.1-18.9,0-28.3-0.1c-0.4-0.5-0.7-1.1-1.2-1.6c-18.2-18.3-36.4-36.6-54.7-54.8
		c-0.5-0.5-1.2-0.9-2.6-1.8c0,19.9,0,39,0,58.1C312.2,419.8,302.1,419.9,292.1,419.9z"/>
	<path class="st3" d="M480.1,390.3c-1.1-0.8-2.2-1.4-3.2-2.3c-29.3-29.5-58.7-59-88-88.5c-0.6-0.6-1-1.2-2.2-2.5
		c42.3,0,83.8,0,125.3,0c0,10.3,0,20.7,0,31c-1.1,4.5-2.2,9.1-3.4,13.6C503.6,360.5,494,376.7,480.1,390.3z"/>
	<path class="st3" d="M512,164c-41.4,0-82.8,0-125.2,0c1.7-1.8,2.8-3.1,4-4.3c28.2-28.2,56.5-56.5,84.7-84.7
		c1.3-1.3,2.3-2.7,3.5-4.1c1.4,1,3.1,1.8,4.2,3.1c15.4,16.6,25,36,27.8,58.6c0.1,0.5,0.6,1,0.9,1.5C512,144,512,154,512,164z"/>
	<path class="st4" d="M0,134c2.4-8.6,4.2-17.3,7.2-25.7c5.2-14.4,13.7-26.8,24.4-37.2c31.1,31.1,61.8,61.8,92.9,92.9
		C83,164,41.5,164,0,164C0,154,0,144,0,134z"/>
	<path class="st4" d="M0,297c41.4,0,82.9,0,123.1,0C92.8,327.2,62,358.1,31,389.2c-10-9.7-18.5-22.1-23.7-36.5
		c-3-8.3-4.8-17.1-7.2-25.7C0,317,0,307,0,297z"/>
	<path class="st5" d="M422.3,418.8c-16.7-16.9-33.4-33.9-50.2-50.8c-18.8-18.9-37.5-37.8-56.4-56.6c-2.6-2.6-3.8-5.1-3.6-8.7
		c0.3-5.1,0.1-10.2,0.1-15.9c6.9,0,13.4-0.1,19.8,0.1c1.3,0,2.7,1.1,3.7,2.1c38.8,38.9,77.6,77.8,116.4,116.7c0.9,0.9,1.4,2.1,2,3.2
		C443.5,412.2,432.9,415.5,422.3,418.8z"/>
	<path class="st0" d="M199.8,286.8c0,6.8,0.1,13.1-0.1,19.4c-0.1,1.4-1.3,3-2.4,4.1c-35.2,35.2-70.3,70.5-105.6,105.5
		c-1.4,1.4-4.5,2.5-6.4,2c-9.4-2.4-18.6-5.4-28.9-8.5c2.2-2.4,3.3-3.6,4.4-4.7c38-38,76.1-76,114-114.1c2.7-2.7,5.4-3.9,9.2-3.7
		C189.1,287,194.2,286.8,199.8,286.8z"/>
	<path class="st4" d="M217,420c-11.6,14.8-23.1,29.7-34.9,44.3c-8.5,10.6-18.5,10.3-26.9-0.4c-10.1-12.8-20.1-25.6-29.7-37.7
		c21-21,41.6-41.7,62-62c0,17.8,0,36.4,0,55.8C197.2,420,207.1,420,217,420C217.1,420,217,420,217,420z"/>
	<path class="st6" d="M322.3,419.7c0-19.1,0-38.2,0-58.1c1.4,1,2.1,1.3,2.6,1.8c18.2,18.3,36.5,36.5,54.7,54.8
		c0.5,0.5,0.8,1.1,1.2,1.6C361.3,419.8,341.8,419.8,322.3,419.7z"/>
	<path class="st7" d="M454.9,52.9c-39.1,39.1-78.3,78.2-117.3,117.3c-2.8,2.8-5.5,4.3-9.5,4c-5.1-0.4-10.2-0.1-15.8-0.1
		c0-6.8-0.3-13.2,0.2-19.4c0.1-1.8,2-3.7,3.4-5.1c35.8-35.9,71.6-71.7,107.4-107.5C434.2,44.2,445.1,46.9,454.9,52.9z"/>
	<path class="st0" d="M199.8,174.1c-6.9,0-13.3,0.1-19.6-0.1c-1.3,0-2.8-1-3.8-2c-39.4-39.3-78.7-78.6-118.1-118
		c-0.3-0.3-0.6-0.8-1.1-1.5c9.5-5.1,19.5-8.2,30-10c1.1-0.2,2.7,0.9,3.7,1.9c35.5,35.4,71,70.9,106.4,106.4c1.2,1.2,2.3,3,2.3,4.6
		C200,161.4,199.8,167.3,199.8,174.1z"/>
	<path class="st8" d="M132.6,41.2c18.3,0,37.5,0,57,0c0,19.5,0,38.7,0,56.9C170.8,79.4,151.6,60.2,132.6,41.2z"/>
	<path class="st9" d="M380.9,41c-3.2,3.4-6.3,6.8-9.5,10.1c-14.7,14.7-29.4,29.4-44.1,44.1c-1.3,1.3-2.6,2.5-5,4.7
		c0-20.4,0-39.6,0-58.7C341.8,41.1,361.4,41.1,380.9,41z"/>
</g>
</svg>
