<?xml version="1.0" encoding="UTF-8"?>
<svg id="Calque_1" data-name="Calque 1" xmlns="http://www.w3.org/2000/svg" version="1.1" viewBox="0 0 522.5 783.7">
  <defs>
    <style>
      .cls-1 {
        fill: #fdfefe;
      }

      .cls-1, .cls-2, .cls-3, .cls-4, .cls-5, .cls-6, .cls-7, .cls-8, .cls-9 {
        stroke-width: 0px;
      }

      .cls-2 {
        fill: #41d99e;
      }

      .cls-3 {
        fill: #a159fe;
      }

      .cls-4 {
        fill: #fe7262;
      }

      .cls-5 {
        fill: #1abbfd;
      }

      .cls-6 {
        fill: #f14e1e;
      }

      .cls-7 {
        fill: #0ace83;
      }

      .cls-8 {
        fill: #fefefe;
      }

      .cls-9 {
        fill: #fefdfe;
      }
    </style>
  </defs>
  <path class="cls-8" d="M0,122.9V0c174.2,0,348.3,0,522.5,0v783.7H139.2c.6-.2,1.3-.4,1.9-.5,5-.7,10.1-1.1,15-2.1,21.8-4.3,41.3-13.5,58.1-27.9,31.3-26.8,46.8-61,46.8-102.1,0-41.8,0-83.6,0-125.4,0-1,0-2,0-3.1,0-1.1,0-2.2,0-3.3,0-39.5,0-78.9,0-118.4.5,4.3.8,8.6,1.6,12.8,2.6,14.3,7.1,27.9,14.1,40.7,6.5,11.8,14.5,22.3,24.1,31.6,12.1,11.7,25.9,20.7,41.4,27.1,13.4,5.5,27.3,8.8,41.7,9.4,9.4.4,18.9,0,28.2-1.6,42.2-7.3,73.8-30.1,94.4-67.6,11.4-20.8,16.7-43.3,14.8-67.1-.6-7.5-1.2-15.1-2.7-22.5-4.8-22.7-15.5-42.6-31.1-59.7-9.3-10.3-20.2-18.7-32.3-25.6-12.3-7-25.4-11.8-39.3-14.4-5.4-1-10.8-1.6-16.2-2.3,1-.2,2-.5,3-.6,9-.5,17.7-2.5,26.3-5,50.6-15.2,88-60.2,92.5-114.3.9-10.6.5-21.1-1.2-31.5-4.6-27.4-16.5-51.2-36.1-71C459.1,14.2,428.6,1,393.2.6c-43.6-.5-87.1-.1-130.7-.1-.5,0-1,0-1.5,0-1,0-2,0-3.1,0-41.4,0-82.7,0-124.1,0-6,0-12,.6-17.9,1-8.5.6-16.9,2.3-24.9,5.1C46.2,22.2,17.2,52.7,4.2,98.3c-1.5,5.4-2.2,11.1-3.2,16.7C.6,117.6.3,120.2,0,122.9Z"/>
  <path class="cls-6" d="M0,122.9c.3-2.6.6-5.3,1-7.9,1-5.6,1.7-11.2,3.2-16.7C17.2,52.7,46.2,22.2,91,6.7c8-2.8,16.4-4.5,24.9-5.1,6-.4,11.9-1,17.9-1,41.4,0,82.7,0,124.1,0,1,0,2,0,3.1,0,0,.4,0,.8,0,1.3,0,85.9,0,171.8,0,257.6,0,.7,0,1.4,0,2-.6,0-1.2,0-1.8,0-43,0-86,0-129,0-2.8,0-5.6,0-8.4,0-2.6-.4-5.1-.6-7.7-1.1-7.5-1.5-15.2-2.5-22.4-4.8-11.5-3.6-22.4-8.7-32.4-15.5C26.1,217.8,6.5,186.8,1,147.1.7,144.8.3,142.5,0,140.2c0-5.8,0-11.6,0-17.3Z"/>
  <path class="cls-3" d="M121.7,261.7c2.8,0,5.6,0,8.4,0,43,0,86,0,129,0,.6,0,1.2,0,1.8,0,0,0,0,.2,0,.2,0,39.1,0,78.2,0,117.3,0,.8.3,1.6.4,2.4-.1.9-.4,1.8-.4,2.7,0,5.6,0,11.3,0,16.9,0,39.5,0,78.9,0,118.4,0,1.1,0,2.2,0,3.3-43.5,0-87.1,0-130.6,0-2.5,0-5,.3-7.5.4-.7-.3-1.4-.7-2.1-.8-5.6-.8-11.3-1.2-16.9-2.4-30.7-6.6-55.9-22.2-75.5-46.7-14.6-18.2-23.5-39-26.8-62.1C1,407.5.5,403.9,0,400.3c0-5.4,0-10.9,0-16.3.2-.6.4-1.3.5-1.9,1-6.4,1.5-12.8,2.9-19.1,6.3-27.8,20.5-51,41.9-69.6,17.4-15.1,37.5-24.9,60.1-29.3,5.4-1,10.8-1.6,16.3-2.4Z"/>
  <path class="cls-7" d="M122.8,523.1c2.5-.1,5-.4,7.5-.4,43.5,0,87.1,0,130.6,0,0,1,0,2,0,3.1,0,41.8,0,83.6,0,125.4,0,41.2-15.6,75.4-46.8,102.1-16.8,14.4-36.3,23.6-58.1,27.9-5,1-10,1.4-15,2.1-.6,0-1.3.3-1.9.5h-19.4c-2-.3-4-.6-6-1.1-7.4-1.5-15-2.5-22.2-4.8-11.4-3.6-22.3-8.6-32.2-15.4-33.2-22.5-52.8-53.5-58.3-93.3-.3-2.1-.7-4.2-1-6.3,0-1,0-2,0-3.1.2-3.2.4-6.4.5-9.7,0-1.4-.3-2.7-.5-4.1C0,645.2,0,644.4,0,643.5c.2-.5.5-1,.5-1.6.5-8.9,2.4-17.6,5-26.1,9-29.5,26.3-53,51.6-70.5,19.7-13.6,41.6-21.1,65.6-22.3Z"/>
  <path class="cls-8" d="M122.8,523.1c-24,1.2-45.9,8.7-65.6,22.3-25.4,17.5-42.6,41-51.6,70.5-2.6,8.5-4.5,17.2-5,26.1,0,.5-.3,1-.5,1.6,0-81.1,0-162.2,0-243.2.5,3.6,1,7.2,1.5,10.7,3.3,23.1,12.3,43.9,26.8,62.1,19.6,24.5,44.8,40.1,75.5,46.7,5.5,1.2,11.2,1.6,16.9,2.4.7.1,1.4.5,2.1.8Z"/>
  <path class="cls-9" d="M121.7,261.7c-5.4.8-10.9,1.4-16.3,2.4-22.6,4.4-42.7,14.2-60.1,29.3-21.5,18.7-35.6,41.9-41.9,69.6-1.4,6.3-2,12.7-2.9,19.1,0,.6-.3,1.3-.5,1.9,0-81.2,0-162.5,0-243.7.3,2.3.7,4.6,1,6.8,5.5,39.8,25.1,70.7,58.2,93.2,10,6.8,20.9,11.9,32.4,15.5,7.3,2.3,14.9,3.3,22.4,4.8,2.5.5,5.1.8,7.7,1.1Z"/>
  <path class="cls-1" d="M0,662.9c.3,2.1.7,4.2,1,6.3,5.5,39.8,25.1,70.8,58.3,93.3,10,6.8,20.8,11.8,32.2,15.4,7.2,2.3,14.8,3.3,22.2,4.8,2,.4,4,.7,6,1.1H0C0,743.5,0,703.2,0,662.9Z"/>
  <path class="cls-2" d="M0,646.1c.2,1.4.5,2.7.5,4.1,0,3.2-.3,6.4-.5,9.7,0-4.6,0-9.2,0-13.8Z"/>
  <path class="cls-4" d="M260.9,261.5c0-.7,0-1.4,0-2,0-85.9,0-171.8,0-257.6,0-.4,0-.8,0-1.3.5,0,1,0,1.5,0,43.6,0,87.1-.3,130.7.1,35.4.4,65.9,13.5,90.9,38.7,19.6,19.7,31.6,43.5,36.1,71,1.7,10.4,2.1,20.9,1.2,31.5-4.5,54.1-41.9,99.1-92.5,114.3-8.6,2.6-17.3,4.5-26.3,5-1,0-2,.4-3,.6-6.3.1-12.7.2-19,.3-1-.1-1.9-.4-2.9-.4-38,0-76,0-114.1,0-.9,0-1.9,0-2.8.1v-.2Z"/>
  <path class="cls-5" d="M380.8,262c6.3-.1,12.7-.2,19-.3,5.4.8,10.8,1.3,16.2,2.3,13.9,2.6,27,7.4,39.3,14.4,12.1,6.9,22.9,15.3,32.3,25.6,15.6,17.2,26.3,37,31.1,59.7,1.6,7.4,2.2,14.9,2.7,22.5,1.8,23.8-3.4,46.3-14.8,67.1-20.6,37.5-52.2,60.3-94.4,67.6-9.2,1.6-18.8,2-28.2,1.6-14.4-.6-28.3-3.9-41.7-9.4-15.5-6.4-29.3-15.4-41.4-27.1-9.7-9.3-17.7-19.9-24.1-31.6-7-12.8-11.5-26.4-14.1-40.7-.8-4.2-1.1-8.5-1.6-12.8,0-5.6,0-11.3,0-16.9,0-.9.3-1.8.4-2.7,4.9-63.1,55.3-114.3,119.4-119.4Z"/>
  <path class="cls-8" d="M380.8,262c-64.1,5.1-114.5,56.3-119.4,119.4-.1-.8-.4-1.6-.4-2.4,0-39.1,0-78.2,0-117.3.9,0,1.9-.1,2.8-.1,38,0,76,0,114.1,0,1,0,1.9.3,2.9.4Z"/>
</svg>