<?xml version="1.0" encoding="UTF-8"?>
<svg id="Calque_1" data-name="Calque 1" xmlns="http://www.w3.org/2000/svg" version="1.1" viewBox="0 0 1969 2048">
  <defs>
    <style>
      .cls-1 {
        fill: #fe2d20;
        stroke-width: 0px;
      }
    </style>
  </defs>
  <path class="cls-1" d="M415,0c17.1,9.2,34.4,17.9,51.2,27.6,111.1,63.8,222.1,127.8,333.2,191.7,8.3,4.8,15.8,10.2,18.5,19.9,1.3,4.5,2,9.4,2,14.1,0,240.2,0,480.3,0,720.5s0,56.3,0,85.1c1.8-.9,3.2-1.5,4.6-2.3,102.1-58.8,204.2-117.6,306.3-176.3,3.4-1.9,4.5-3.9,4.5-7.8-.1-134.8,0-269.7-.2-404.5,0-15.4,6.2-26.2,19.5-33.8,123.8-71.1,247.5-142.4,371.2-213.7,13.2-7.6,25.9-7.6,38.8-.1,123.9,71.3,247.7,142.7,371.6,213.9,13.1,7.5,19.1,18.3,19.1,33.3-.1,141-.2,282,0,423,0,16.4-6.4,27.4-20.7,35.5-117.5,67.3-234.8,135.1-352.3,202.5-4.1,2.4-5.7,4.7-5.7,9.6.2,134.7.1,269.3.2,404,0,14.7-5.9,25.4-19,32.9-250.1,143.8-500.2,287.8-750.2,431.9-9.8,5.7-19.8,8.3-30.8,4-1.3-.5-2.7-1.1-3.9-1.9-251.6-144.9-503.3-289.8-755-434.5-9.2-5.3-14.7-13-18.2-22.6V243c3.7-10.6,10.7-18.1,20.5-23.7,102.3-58.7,204.4-117.6,306.7-176.3,25.4-14.6,51.2-28.6,76.8-42.9,3.7,0,7.3,0,11,0ZM1513.7,1058c0-6,.2-12,.2-18,0-111.7,0-223.3,0-335,0-3.8-1-6-4.5-7.8-7.5-3.9-14.7-8.3-22.1-12.5-31.4-18-62.9-35.9-94.2-54-36-20.7-71.8-41.6-107.8-62.4-20.4-11.8-40.9-23.5-61.3-35.3-8.3-4.8-16.6-9.5-25.7-14.7,0,2.7,0,4.5,0,6.3,0,54.5,0,109,0,163.5,0,61,0,122-.1,183,0,4.7,1.4,7.3,5.6,9.7,39,22.2,77.9,44.7,116.8,67.1,45.1,26,90.2,52,135.3,77.9,18.9,10.8,37.8,21.6,56.7,32.3.3.2.6.3.9.5,0-.2,0-.5.1-.7ZM756,304.9c-1.3.7-2.7,1.3-4,2-101.8,58.6-203.6,117.2-305.4,175.7-3.9,2.2-5.1,4.6-5.1,8.9.1,105.8.1,211.6.1,317.4,0,154,0,307.9,0,461.9,0,1.9,0,3.7,0,6.1,1.9-1,3-1.6,4-2.1,102.2-58.9,204.4-117.8,306.7-176.5,3.7-2.1,4.9-4.3,4.9-8.5-.1-259.4,0-518.9-.1-778.3,0-1.8,0-3.7-.1-5.5l-.8-1.1ZM63.2,306c0,1.2-.1,2.3-.1,3.5,0,404.6,0,809.2,0,1213.8,0,3.3,1.1,5,3.8,6.6,21.5,12.2,42.9,24.6,64.4,37,43.9,25.3,87.8,50.6,131.7,75.8,43.6,25.1,87.2,50.2,130.8,75.3,102.2,58.9,204.4,117.7,306.7,176.6,18.4,10.6,37,21.1,55.5,31.6.2.2.4.4.6.6,0-.3.2-.5.3-.8,0-1,.2-2,.2-3,0-118.3,0-236.6,0-354.9,0-3.2-1.4-4.6-3.9-6-117.6-66.5-235.1-133.2-352.8-199.5-15.3-8.6-22.2-20-22.1-37.6.2-277.8.2-555.6.3-833.4,0-4.3-1.1-6.7-5-9-86.7-49.8-173.3-99.7-260-149.6-16.4-9.5-33-18.7-49.4-28.1-.3.4-.5.7-.8,1.1ZM1513.9,1168.3c-2.1,1.1-3.6,1.7-4.9,2.5-228.2,130.2-456.3,260.5-684.5,390.6-3.3,1.9-4.6,3.7-4.6,7.7.1,117.5.1,235,.1,352.4v5.5c2.1-1.2,3.5-1.9,4.9-2.7,228.2-131.4,456.5-262.9,684.8-394.2,3.4-2,4.3-4.1,4.3-7.8,0-116,0-232,0-347.9v-6.1ZM1481.9,1113.7c-2.4-1.4-3.9-2.4-5.5-3.3-51.7-29.8-103.5-59.6-155.2-89.4-49.7-28.6-99.5-57.2-149.1-86-3.6-2.1-6.4-2.1-10,0-225.9,130.2-451.9,260.3-677.8,390.4-3.3,1.9-6.6,3.9-10.3,6.1,1.9,1.1,3.1,1.9,4.4,2.6,36,20.4,72.1,40.7,108,61.1,31.4,17.8,62.6,35.8,94,53.5,34.1,19.3,68.4,38.4,102.4,57.8,3.9,2.2,6.6,2.6,10.7.3,180.7-103.3,361.5-206.5,542.2-309.8,36-20.5,71.9-41,107.9-61.6,12.5-7.2,25.1-14.3,38.3-21.9ZM94.8,249.5c7.4,4.3,14.2,8.2,20.9,12,96.6,55.6,193.1,111.2,289.6,166.9,3.5,2,5.9,2,9.3,0,80.1-46.3,160.3-92.4,240.4-138.5,23.2-13.4,46.4-26.7,70.1-40.4-1.9-1.1-3.4-2.1-5-3-62-35.7-123.9-71.4-185.9-107-39.9-22.9-79.7-45.8-119.5-68.9-3.5-2-5.9-2-9.3,0-83.1,48-166.4,95.8-249.6,143.7-20.2,11.6-40.3,23.3-61.1,35.2ZM1860.6,463.7c-2.1-1.2-3.5-2.1-4.9-2.9-24.5-14.1-48.9-28.2-73.5-42.3-44.6-25.6-89.2-51.1-133.8-76.7-33.1-19-66.2-38-99.2-57.3-3.2-1.9-5.1-1.7-7.9,0-78.7,45.4-157.4,90.7-236.1,136-24.8,14.3-49.6,28.5-74.9,43.1,1.9,1.2,3.4,2.2,5,3.1,60.7,34.9,121.3,69.8,182,104.8,41.2,23.7,82.5,47.5,123.6,71.3,3.2,1.9,5.6,2,8.9,0,84.3-48.7,168.6-97.2,252.9-145.8,19-11,38-21.9,57.8-33.3ZM1892.2,518.5c-1.7.8-2.6,1.2-3.4,1.7-102.8,59.2-205.6,118.4-308.4,177.5-2.7,1.6-3.5,3.3-3.5,6.3,0,117,0,234,0,350.9,0,1.2.2,2.4.4,3.8,1.6-.9,2.8-1.5,4-2.1,102.1-58.8,204.1-117.6,306.3-176.3,3.5-2,4.7-4.1,4.7-8.1-.1-116,0-232,0-347.9s0-3.3,0-5.9Z"/>
</svg>