<?xml version="1.0" encoding="UTF-8"?>
<svg id="Calque_1" data-name="Calque 1" xmlns="http://www.w3.org/2000/svg" version="1.1" viewBox="0 0 438.3 230.5">
  <defs>
    <style>
      .cls-1 {
        fill: #8d91bc;
      }

      .cls-1, .cls-2, .cls-3, .cls-4, .cls-5, .cls-6, .cls-7, .cls-8, .cls-9, .cls-10, .cls-11, .cls-12, .cls-13, .cls-14, .cls-15, .cls-16, .cls-17, .cls-18, .cls-19, .cls-20, .cls-21, .cls-22, .cls-23, .cls-24 {
        stroke-width: 0px;
      }

      .cls-2 {
        fill: #6c70a4;
      }

      .cls-3 {
        fill: #5b5f97;
      }

      .cls-4 {
        fill: #a7abcf;
      }

      .cls-5 {
        fill: #666a9f;
      }

      .cls-6 {
        fill: #969ac3;
      }

      .cls-7 {
        fill: #adb1d4;
      }

      .cls-8 {
        fill: #484c89;
      }

      .cls-9 {
        fill: #fcfcfd;
      }

      .cls-10 {
        fill: #000;
      }

      .cls-11 {
        fill: #9296c0;
      }

      .cls-12 {
        fill: #595d95;
      }

      .cls-13 {
        fill: #9da1c8;
      }

      .cls-14 {
        fill: #8589b6;
      }

      .cls-15 {
        fill: #a1a5cb;
      }

      .cls-16 {
        fill: #8387b5;
      }

      .cls-17 {
        fill: #4e528d;
      }

      .cls-18 {
        fill: #777bb2;
      }

      .cls-19 {
        fill: #545892;
      }

      .cls-20 {
        fill: #50548e;
      }

      .cls-21 {
        fill: #fdfdfe;
      }

      .cls-22 {
        fill: #6e72a5;
      }

      .cls-23 {
        fill: #62669c;
      }

      .cls-24 {
        fill: #60649b;
      }
    </style>
  </defs>
  <path class="cls-18" d="M275.1,3.8c4.5.7,8.9,1.4,13.4,2.1,0,.4,0,.9,0,1.3.4,2,.8,3.9,1.1,5.9.2,1.3.5,1.6,1.7,1.8,3.6.7,7.1,1.5,10.7,2.2,1.3.3,2.7.5,4,.8,1.5.4,2.9.8,4.4,1.1,2.9.7,5.8,1.5,8.6,2.2,2.9.9,5.7,1.7,8.6,2.5,1.2.3,2.3.7,3.5,1,1.6.6,3.2,1.1,4.9,1.7,2,.7,3.9,1.3,5.9,2,1.3.5,2.7,1,4,1.6,5.2,2.2,10.4,4.3,15.6,6.6,6.1,2.7,12,5.8,17.7,9.2,5.6,3.3,11,6.9,16.1,10.9,3.4,2.8,6.9,5.6,10,8.6,3.2,3.1,6.1,6.4,9,9.8,3.5,4.1,6.4,8.7,8.8,13.5,1.8,3.7,3.3,7.5,4.4,11.4,1.2,4.5,2,9.1,2,13.8,0,1.6,0,3.3-.2,4.9-.4,3.1-.7,6.2-1.4,9.2-1.2,5.6-3.4,10.9-6.2,15.9-3.3,6-7.3,11.4-12,16.4-2.7,2.9-5.6,5.7-8.6,8.3-4,3.4-8.1,6.7-12.5,9.7-4.7,3.2-9.5,6.2-14.5,8.9-5.4,3-10.9,5.7-16.4,8.2-5.1,2.3-10.4,4.4-15.7,6.3-6.1,2.2-12.2,4.3-18.4,6-7.3,2.1-14.7,3.9-22.2,5.6-4.6,1.1-9.3,1.9-14,2.7-3.4.6-6.8,1.1-10.2,1.6-2.9.4-5.7.8-8.6,1.2-2.9.4-5.7.6-8.6.9-3.7.4-7.4.7-11.1,1-2.7.2-5.5.4-8.2.5-2.7.1-5.4.3-8.1.3-2.9,0-5.8.1-8.8.2-6.2,0-12.3-.1-18.5-.2-.5,0-.9-.2-1.4-.2-2.4,0-4.7,0-7.1-.2-3.6-.2-7.1-.5-10.7-.7,0,0-.1-.1-.2-.1-2.2-.2-4.4-.4-6.6-.6-2-.2-3.9-.4-5.9-.6-2.2-.2-4.3-.5-6.5-.7-.1,0-.2-.1-.4-.2-.6,0-1.3-.1-1.9-.2-1.2-.2-2.5-.4-3.7-.6-3.1-.5-6.3-1-9.4-1.6-4.3-.8-8.6-1.6-13-2.4-1.8-.3-3.7-.7-5.5-1.1-1.4-.4-2.9-.7-4.3-1.1-8-2.2-16-4.4-23.9-6.8-3.8-1.1-7.4-2.6-11.1-3.9-7.1-2.6-14.1-5.5-20.9-8.9-4.9-2.5-9.8-5.1-14.5-7.9-3.8-2.2-7.5-4.6-11.1-7.1-2.9-2-5.5-4.2-8.3-6.3-1.4-1-2.7-2.1-4.1-3.2-2-1.7-3.9-3.4-5.8-5.1-2.4-2.1-4.9-4.1-7.1-6.3-3.8-3.8-7.5-7.7-11.1-11.6-2.2-2.4-4.2-5.1-6.3-7.6-.4-.4-.9-.8-1.3-1.1-1.4-3.6-2.3-7.3-2.8-11.1-.4-3.7-.6-7.4-.7-11,0-1.9.3-3.9.4-5.9.3.3.6.5.8.8.8,1.4,1.5,2.8,2.3,4.2,1.5,2.5,3,4.9,4.5,7.3.1.2.4.4.6.6,0-1,0-1.8,0-2.6,0-2.6,0-5.2.2-7.8,0-1.7.3-3.4.6-5,.8-4.6,2.2-9.1,4.1-13.4,1.2-2.3,2.2-4.7,3.6-6.9,2-3.3,4.3-6.4,6.5-9.6,2.4-2.6,4.7-5.3,7.1-7.9,1.1-1.2,2.2-2.3,3.3-3.4,1.3-1.1,2.7-2.3,4-3.4,1.4-1.2,2.9-2.4,4.3-3.6.2,0,.3-.1.5-.2,2.1-1.6,4.3-3.2,6.4-4.7,6.8-4.7,13.9-8.9,21.3-12.6,7.9-4,15.9-7.5,24.3-10.5,6.4-2.3,12.9-4.5,19.4-6.4,6.8-2,13.8-3.7,20.7-5.3,5.3-1.2,10.7-2.3,16.1-3.2,5.7-1,11.4-1.7,17.1-2.5,4.5-.6,9-1.1,13.6-1.6,3.7-.4,7.4-.6,11.2-.9,3.4-.2,6.9-.4,10.3-.5,3.6-.1,7.1-.2,10.7-.2,2.1,0,4.3,0,6.4,0,5.2,0,10.3.1,15.5.2.1,0,.3.2.4.2,2.6.1,5.2.2,7.8.4,1.7,0,3.4.2,5,.3,2.6.2,5.3.3,7.9.6,1.4.1,2.8.3,4.2.5,1.6.2,3.3.3,4.9.5,3.3.4,6.5.7,9.8,1.1.7,0,1.1-.3.9-1-.6-2.5-1.1-5-1.7-7.5ZM279.3,83.8c-.5-4.4-1.7-8.5-4.2-12.2-3.1-4.5-7.4-7.2-12.4-8.9-6.6-2.4-13.5-3-20.5-3.1-5.9-.1-11.7,0-17.6,0-.3,0-.7,0-1.1,0,.1-.6.2-1.1.3-1.6,1.5-7.7,3-15.4,4.5-23.1.7-3.5-1.5-5.9-5-5.9-8.1,0-16.1,0-24.2,0-2.9,0-4.6,1.5-5.1,4.3-.8,4.4-1.7,8.7-2.5,13.1-1.9,9.8-3.8,19.7-5.7,29.5-.8,4.3-1.7,8.6-2.5,13.1-.1-.5-.2-.7-.3-1-2.5-11.6-9.4-19.6-20.2-24.3-6.6-2.9-13.6-4-20.7-4-16.5-.1-33.1,0-49.6,0-3.5,0-5.1,1.4-5.7,4.8-2,10.5-4.1,21-6.1,31.6-1.6,8.3-3.2,16.6-4.8,24.8-2,10.4-4.1,20.9-6.1,31.3-1.7,8.9-3.5,17.7-5.2,26.6-.7,3.4,1.4,6,4.9,6.1,8.2,0,16.4,0,24.6,0,2.7,0,4.5-1.5,5-4,1.1-5.8,2.3-11.6,3.4-17.4.6-3.1,1.2-6.2,1.8-9.4.4,0,.7,0,1,0,4.3,0,8.7,0,13,0,6.4,0,12.7,0,19-1.1,5.2-.8,10.2-2.1,14.9-4.3,8.6-4.1,15.5-10.3,21.1-17.9.8-1.1,1.5-2.2,2.4-3.5,0,.3,0,.4,0,.5-1.3,6.8-2.6,13.5-4,20.3-.7,3.4,1.5,6,4.9,6,8.1,0,16.2,0,24.3,0,2.8,0,4.5-1.5,5.1-4.2,1.2-5.9,2.3-11.8,3.5-17.8,2.8-14.5,5.6-29,8.4-43.6.1-.6.4-.7.9-.7,2.5,0,4.9,0,7.4,0,3.8,0,7.6,0,11.4.2,1.5,0,2.9.5,4.4.9.9.2,1.5.8,1.5,1.7,0,1.8.1,3.6-.2,5.3-.7,4.4-1.7,8.9-2.5,13.3-2.3,12-4.7,24-7,36-.3,1.4-.7,2.8-.7,4.2,0,2.7,2.1,4.7,4.8,4.7,7.7,0,15.4,0,23.2,0,1.6,0,3.2.2,4.7-.7,0,.3,0,.5,0,.7-1.6,8.3-3.2,16.5-4.8,24.8-.3,1.7,0,3.3,1.3,4.6,1.1,1.2,2.6,1.4,4.1,1.4,7.9,0,15.9,0,23.8,0,3.1,0,4.9-1.5,5.5-4.6,1.6-8.4,3.2-16.7,4.8-25.1.2-.9.5-1.1,1.4-1.1,8.6,0,17.1-.1,25.7-.4,4.4-.1,8.7-.9,12.9-2,13.3-3.6,23.2-11.8,30.8-23,4.3-6.4,6.7-13.4,8.1-20.9,1.1-6,1.4-11.9.4-17.9-1.9-11.5-8.1-19.9-18.6-25.1-7.1-3.5-14.8-4.8-22.6-4.9-16.8-.1-33.5,0-50.3,0-2.5,0-4.4,1.6-4.9,4.1-.9,4.6-1.8,9.3-2.7,13.9-.4,2.1-.8,4.2-1.2,6.3Z"/>
  <path class="cls-8" d="M240.9,221.5c2.7-.2,5.5-.3,8.2-.5,3.7-.3,7.4-.7,11.1-1,2.9-.3,5.7-.6,8.6-.9,2.9-.4,5.7-.8,8.6-1.2,3.4-.5,6.8-1,10.2-1.6,4.7-.8,9.4-1.6,14-2.7,7.4-1.7,14.8-3.5,22.2-5.6,6.2-1.8,12.3-3.9,18.4-6,5.3-1.9,10.6-4,15.7-6.3,5.6-2.5,11.1-5.2,16.4-8.2,5-2.7,9.8-5.7,14.5-8.9,4.3-3,8.5-6.3,12.5-9.7,3-2.6,5.9-5.4,8.6-8.3,4.7-5,8.7-10.4,12-16.4,2.8-5,5-10.3,6.2-15.9.7-3,1-6.1,1.4-9.2.2-1.6.2-3.3.2-4.9,0-4.7-.8-9.3-2-13.8-1.1-4-2.6-7.8-4.4-11.4-2.4-4.8-5.3-9.4-8.8-13.5-2.9-3.4-5.8-6.7-9-9.8-3.2-3.1-6.6-5.9-10-8.6-5.1-4.1-10.5-7.6-16.1-10.9-5.7-3.4-11.6-6.5-17.7-9.2-5.2-2.3-10.4-4.4-15.6-6.6-1.3-.6-2.7-1-4-1.6-.2-2.6-.5-5.2-.7-7.8,0-.3.1-.7.2-1,2.9,1.1,5.8,2.1,8.7,3.2,13.5,5.3,26.4,11.6,38.6,19.4,9.9,6.4,19.1,13.6,27.2,22.2,8,8.6,14.6,18.1,18.6,29.3,6,16.8,4.9,33.2-2.6,49.2-4.4,9.5-10.6,17.7-18,25.2-10.1,10.3-21.7,18.5-34.2,25.6-14.5,8.2-29.7,14.5-45.5,19.7-12.9,4.2-25.9,7.5-39.2,10.1-9.2,1.8-18.5,3.3-27.8,4.3-7.6.8-15.2,1.5-22.8,2-5.9.4-11.9.5-17.8.7-.3,0-.6,0-.9,0,.2-.2.4-.5.6-.6,2-1.1,4.1-2.1,6.2-3.2,2.6-1.4,5.2-3,7.9-4.5.2-.1.3-.4.5-.7Z"/>
  <path class="cls-7" d="M220.3,8.6c-2.1,0-4.3,0-6.4,0-3.6,0-7.2,0-10.7.2-3.4.1-6.9.3-10.3.5-3.7.2-7.5.5-11.2.9-4.5.5-9.1,1-13.6,1.6-5.7.8-11.5,1.5-17.1,2.5-5.4.9-10.7,2-16.1,3.2-6.9,1.6-13.9,3.3-20.7,5.3-6.5,1.9-13,4.2-19.4,6.4-8.3,2.9-16.4,6.5-24.3,10.5-7.4,3.7-14.5,7.9-21.3,12.6-2.2,1.5-4.3,3.1-6.4,4.7-.1.1-.3.2-.5.2-.1-.3-.3-.6-.4-1-.3-2.1-.6-4.3-.9-6.4,0-.5-.3-.9-.5-1.3,2.7-1.9,5.4-3.9,8.2-5.7,5.4-3.6,11.1-6.8,16.9-9.8,12.9-6.7,26.4-12.1,40.3-16.5,11.9-3.8,23.9-6.9,36.1-9.2,5.9-1.1,11.8-2.2,17.8-3.1,3.8-.6,7.6-1,11.5-1.5,3.7-.4,7.3-.8,11-1.2,2.5-.2,5.1-.4,7.6-.6,4.7-.3,9.5-.5,14.2-.7,1.2,0,2.4-.1,3.6-.2,3.3,0,6.6,0,9.8-.1,0,.5,0,1,.1,1.4.4,1.2,1,2.3,1.5,3.5.5,1.2.8,2.4,1.2,3.6Z"/>
  <path class="cls-22" d="M3.5,135.9c.4.4.9.7,1.3,1.1,2.1,2.5,4.1,5.2,6.3,7.6,3.6,4,7.3,7.8,11.1,11.6,2.2,2.2,4.8,4.2,7.1,6.3,1.9,1.7,3.8,3.4,5.8,5.1,1.3,1.1,2.7,2.1,4.1,3.2,2.7,2.1,5.4,4.3,8.3,6.3,3.6,2.5,7.3,4.9,11.1,7.1,4.8,2.8,9.6,5.4,14.5,7.9,6.8,3.4,13.7,6.4,20.9,8.9,3.7,1.3,7.3,2.8,11.1,3.9,7.9,2.4,15.9,4.5,23.9,6.8,1.4.4,2.9.7,4.3,1.1-.3,0-.5.2-.8.2-2.8,0-5.7-.1-8.5-.2,0,0-.1,0-.2,0-3.4-.3-6.8-.5-10.3-.9-2.6-.3-5.2-.5-7.7-.9-4.9-.9-9.8-1.9-14.6-2.9-.6-.1-1.2,0-1.8,0-2.6-1-5.2-2-7.8-3.1-13.1-5.6-25.7-12.1-37.4-20.4-4.7-3.3-9.1-6.9-13.5-10.6-3.1-2.6-6-5.5-8.7-8.4-5.2-5.5-9.7-11.6-13.4-18.2-2-3.7-3.8-7.5-5.1-11.5Z"/>
  <path class="cls-5" d="M89.4,208.2c.6,0,1.2,0,1.8,0,4.9,1,9.7,2,14.6,2.9,2.5.5,5.1.7,7.7.9,3.4.3,6.8.6,10.3.9,0,0,.1,0,.2,0,2.8,0,5.7.1,8.5.2.3,0,.5-.1.8-.2,1.8.4,3.7.7,5.5,1.1,4.3.8,8.6,1.7,13,2.4,3.1.6,6.3,1,9.4,1.6,1.2.2,2.5.4,3.7.6-.3.2-.6.5-.9.5-2.4.4-4.9.8-7.3,1.1-3.4.4-6.9.9-10.3,1.2-2.5.2-5,.2-7.5.4-.5,0-1,.3-1.4.5-2.6-.6-5.2-1.1-7.7-1.7-7.9-1.8-15.8-3.9-23.5-6.5-5.4-1.8-10.8-3.8-16.1-5.7-.2,0-.4-.2-.5-.3Z"/>
  <path class="cls-14" d="M13.5,92.1c-1.9,4.3-3.3,8.8-4.1,13.4-.3,1.7-.5,3.3-.6,5-.1,2.6-.1,5.2-.2,7.8,0,.8,0,1.6,0,2.6-.2-.2-.5-.3-.6-.6-1.5-2.4-3-4.9-4.5-7.3-.8-1.4-1.5-2.8-2.3-4.2-.2-.3-.5-.5-.8-.8.8-7.1,2.9-13.9,5.9-20.4.8-1.7,1.7-3.3,2.5-4.9.2.3.5.7.6,1,1,2.6,2,5.1,3,7.7.2.4.4.9,1,.8Z"/>
  <path class="cls-24" d="M137.3,222.2c.5-.2,1-.5,1.4-.5,2.5-.2,5-.2,7.5-.4,3.4-.3,6.9-.8,10.3-1.2,2.4-.3,4.9-.7,7.3-1.1.3,0,.6-.3.9-.5.6,0,1.3.1,1.9.2.1,0,.2.1.4.2,2.2.2,4.3.5,6.5.7,2,.2,3.9.4,5.9.6,2.2.2,4.4.4,6.6.6,0,0,.1,0,.2.1-.5.2-.9.5-1.4.6-4.2,1.1-8.4,2.3-12.7,3.3-2.6.6-5.3,1.1-7.9,1.6-.3,0-.5.3-.7.5-2.7-.4-5.3-.7-8-1.1-4.5-.8-9-1.6-13.5-2.4-1.6-.3-3.1-.7-4.7-1Z"/>
  <path class="cls-3" d="M163.6,226.8c.2-.2.5-.4.7-.5,2.6-.5,5.3-1,7.9-1.6,4.2-1,8.5-2.2,12.7-3.3.5-.1.9-.4,1.4-.6,3.6.2,7.1.5,10.7.7,2.4.1,4.7.1,7.1.2.5,0,.9.1,1.4.2-.2.2-.4.5-.7.6-5.8,2.1-11.7,4.1-17.5,6.1-.3.1-.5.4-.8.7-2.5-.2-5-.4-7.5-.6-2.6-.2-5.1-.5-7.7-.8-2.6-.3-5.1-.7-7.7-1.1Z"/>
  <path class="cls-19" d="M186.5,229.3c.3-.2.5-.6.8-.7,5.8-2.1,11.7-4.1,17.5-6.1.3,0,.5-.4.7-.6,6.2,0,12.3.1,18.5.2-.3.2-.5.6-.8.7-4.9,2.3-9.9,4.5-14.8,6.8-.4.2-.8.6-1.1.8-3.2-.1-6.5-.2-9.7-.4-2.4-.1-4.9-.2-7.3-.4-1.2,0-2.5-.2-3.7-.4Z"/>
  <path class="cls-11" d="M13.5,92.1c-.6.1-.8-.3-1-.8-1-2.6-2-5.1-3-7.7-.1-.4-.4-.7-.6-1,3.1-5.5,6.8-10.6,11-15.4,0-.1.2-.2.3-.3.2.3.4.7.5,1,.7,2.3,1.3,4.6,1.9,6.9.1.5.4.8.9.7-2.2,3.2-4.5,6.3-6.5,9.6-1.4,2.2-2.4,4.6-3.6,6.9Z"/>
  <path class="cls-17" d="M207.2,230.4c.4-.3.7-.7,1.1-.8,4.9-2.3,9.9-4.5,14.8-6.8.3-.1.5-.5.8-.7,2.9,0,5.8-.1,8.8-.2,2.7,0,5.4-.2,8.1-.3-.2.2-.3.5-.5.7-2.6,1.5-5.2,3-7.9,4.5-2,1.1-4.1,2.1-6.2,3.2-.3.1-.4.4-.6.6-4.4,0-8.7,0-13.1,0-1.8,0-3.6,0-5.4-.1Z"/>
  <path class="cls-2" d="M306.1,17.9c-1.3-.3-2.7-.5-4-.8-3.6-.7-7.1-1.5-10.7-2.2-1.2-.2-1.5-.5-1.7-1.8-.3-2-.8-3.9-1.1-5.9,0-.4,0-.9,0-1.3,1.8.4,3.6.7,5.4,1.1,3.4.7,6.8,1.3,10.2,2,.3,0,.5.1.8.2,0,.7.2,1.4.3,2.1.3,2.2.6,4.5,1,6.7Z"/>
  <path class="cls-15" d="M220.3,8.6c-.4-1.2-.8-2.4-1.2-3.6-.5-1.2-1-2.3-1.5-3.5-.2-.4,0-.9-.1-1.4,5.2,0,10.3.2,15.5.2,0,.2,0,.4.1.6.9,2.7,1.8,5.3,2.7,8-5.2,0-10.3-.1-15.5-.2Z"/>
  <path class="cls-16" d="M275.1,3.8c.6,2.5,1.1,5,1.7,7.5.2.7-.2,1.1-.9,1-3.3-.4-6.5-.8-9.8-1.1-1.6-.2-3.3-.4-4.9-.5.2-.1.4-.2.5-.3,0,0,.1,0,.2,0-.3-1.4-.6-2.8-1-4.2-.3-1.4-.6-2.7-1-4.1,5,.6,9.9,1.1,14.9,1.7,0,0,.2,0,.2.1Z"/>
  <path class="cls-13" d="M23.6,75.5c-.5,0-.8-.2-.9-.7-.6-2.3-1.3-4.6-1.9-6.9-.1-.4-.3-.7-.5-1,2.2-2.3,4.4-4.6,6.6-6.9,1.2-1.2,2.5-2.3,3.7-3.5.2-.2.5-.4.8-.6.2.5.4,1,.5,1.5.4,2,.8,4,1.2,6.1.1.5.4.8.9.7-1.1,1.1-2.2,2.2-3.3,3.4-2.4,2.6-4.7,5.2-7.1,7.9Z"/>
  <path class="cls-6" d="M235.8,8.8c-.9-2.7-1.8-5.3-2.7-8,0-.2,0-.4-.1-.6,3.1.1,6.1.3,9.2.4,1.5,0,3,.2,4.5.3,0,.3,0,.6.1.9.3,1.1.8,2.3,1.1,3.4.4,1.5.7,3,1.1,4.5-1.7-.1-3.4-.2-5-.3-2.6-.1-5.2-.2-7.8-.4-.1,0-.3-.1-.4-.2Z"/>
  <path class="cls-23" d="M306.1,17.9c-.3-2.2-.7-4.5-1-6.7,0-.7-.2-1.4-.3-2.1,4.5,1.1,8.9,2.2,13.4,3.3,0,.7,0,1.5.1,2.2.2,2.2.5,4.4.8,6.6-2.9-.7-5.8-1.5-8.6-2.2-1.5-.4-2.9-.8-4.4-1.1Z"/>
  <path class="cls-1" d="M249,9.6c-.4-1.5-.7-3-1.1-4.5-.3-1.1-.7-2.3-1.1-3.4,0-.3,0-.6-.1-.9,3.3.2,6.6.5,9.8.7,1.1,0,2.3.3,3.4.4.3,1.4.6,2.7,1,4.1.3,1.4.6,2.8,1,4.2,0,0-.1,0-.2,0-.2.1-.4.2-.5.3-1.4-.2-2.8-.4-4.2-.5-2.6-.2-5.3-.4-7.9-.6Z"/>
  <path class="cls-12" d="M319.1,21.3c-.3-2.2-.5-4.4-.8-6.6,0-.7,0-1.4-.1-2.2,4.1,1.2,8.1,2.3,12.2,3.5.2,2,.4,4,.6,6.1,0,.9.2,1.8.3,2.8-1.2-.3-2.4-.6-3.5-1-2.9-.8-5.7-1.7-8.6-2.5Z"/>
  <path class="cls-20" d="M331.2,24.8c-.1-.9-.2-1.8-.3-2.8-.2-2-.4-4-.6-6.1,3,1,6.1,2,9.1,2.9.7.2,1.3.5,2,.7,0,.3-.2.7-.2,1,.2,2.6.5,5.2.7,7.8-2-.7-3.9-1.3-5.9-2-1.6-.6-3.2-1.1-4.9-1.7Z"/>
  <path class="cls-4" d="M34,64.3c-.5,0-.8-.2-.9-.7-.4-2-.8-4.1-1.2-6.1-.1-.5-.4-1-.5-1.5,1.9-1.6,3.8-3.3,5.8-4.8,1.1-.9,2.2-1.7,3.4-2.5.2.4.5.9.5,1.3.3,2.1.6,4.3.9,6.4,0,.3.2.6.4,1-1.4,1.2-2.9,2.4-4.3,3.6-1.3,1.1-2.7,2.3-4,3.4Z"/>
  <path class="cls-9" d="M279.3,83.8c.4-2.1.8-4.2,1.2-6.3.9-4.6,1.8-9.3,2.7-13.9.5-2.5,2.4-4.1,4.9-4.1,16.8,0,33.5,0,50.3,0,7.8,0,15.5,1.3,22.6,4.9,10.5,5.2,16.7,13.6,18.6,25.1,1,6,.6,12-.4,17.9-1.3,7.5-3.8,14.6-8.1,20.9-7.5,11.3-17.4,19.5-30.8,23-4.2,1.1-8.5,1.9-12.9,2-8.6.2-17.1.3-25.7.4-.8,0-1.2.2-1.4,1.1-1.6,8.4-3.2,16.7-4.8,25.1-.6,3.1-2.3,4.6-5.5,4.6-7.9,0-15.9,0-23.8,0-1.5,0-3-.3-4.1-1.4-1.3-1.3-1.6-2.8-1.3-4.6,1.6-8.3,3.2-16.5,4.8-24.8,0-.2,0-.4,0-.7-1.5.9-3.1.7-4.7.7-7.7,0-15.4,0-23.2,0-2.7,0-4.9-2-4.8-4.7,0-1.4.4-2.8.7-4.2,2.3-12,4.7-24,7-36,.9-4.4,1.8-8.8,2.5-13.3.3-1.7.2-3.6.2-5.3,0-.9-.6-1.5-1.5-1.7-1.4-.3-2.9-.8-4.4-.9-3.8-.2-7.6-.2-11.4-.2-2.5,0-4.9,0-7.4,0-.6,0-.8.1-.9.7-2.8,14.5-5.6,29-8.4,43.6-1.2,5.9-2.3,11.8-3.5,17.8-.5,2.7-2.3,4.2-5.1,4.2-8.1,0-16.2,0-24.3,0-3.5,0-5.6-2.6-4.9-6,1.3-6.8,2.6-13.5,4-20.3,0-.1,0-.2,0-.5-.8,1.2-1.6,2.4-2.4,3.5-5.6,7.7-12.5,13.9-21.1,17.9-4.7,2.2-9.7,3.5-14.9,4.3-6.3,1-12.7,1.1-19,1.1-4.3,0-8.7,0-13,0s-.6,0-1,0c-.6,3.2-1.2,6.3-1.8,9.4-1.1,5.8-2.2,11.6-3.4,17.4-.5,2.4-2.3,3.9-5,4-8.2,0-16.4,0-24.6,0-3.5,0-5.6-2.6-4.9-6.1,1.7-8.9,3.4-17.7,5.2-26.6,2-10.4,4.1-20.9,6.1-31.3,1.6-8.3,3.2-16.6,4.8-24.8,2-10.5,4.1-21,6.1-31.6.6-3.4,2.3-4.8,5.7-4.8,16.5,0,33.1,0,49.6,0,7.1,0,14.1,1.1,20.7,4,10.8,4.7,17.6,12.7,20.2,24.3,0,.3.1.5.3,1,.9-4.5,1.7-8.8,2.5-13.1,1.9-9.8,3.8-19.7,5.7-29.5.8-4.4,1.7-8.7,2.5-13.1.5-2.8,2.3-4.3,5.1-4.3,8.1,0,16.1,0,24.2,0,3.5,0,5.6,2.5,5,5.9-1.5,7.7-3,15.4-4.5,23.1,0,.5-.2,1-.3,1.6.4,0,.8,0,1.1,0,5.9,0,11.7,0,17.6,0,7,.1,13.9.8,20.5,3.1,5,1.8,9.4,4.5,12.4,8.9,2.5,3.6,3.7,7.7,4.2,12.2ZM91.5,64.3c-7.5,38.5-15,77-22.4,115.4.2,0,.2,0,.3,0,8.1,0,16.2,0,24.3,0,.2,0,.6-.4.6-.6,1.5-7.6,3-15.2,4.4-22.8.5-2.4.9-4.9,1.4-7.3,2.1,0,4.2,0,6.2,0,8.8-.1,17.6.3,26.3-.5,5-.5,10-1.3,14.7-3.3,13.1-5.5,22.2-15,27.6-28.1,3.3-8.2,4.7-16.8,3.6-25.7-1.5-11.6-7.8-19.6-18.6-24-6-2.4-12.3-3.3-18.7-3.3-16.5,0-32.9,0-49.4,0,0,0-.2,0-.4,0ZM265.5,179.8h25.2c2-10.2,4-20.4,6-30.7h1c6.6,0,13.1,0,19.7,0,5.3,0,10.7-.2,16-1.1,6.3-1,12.2-2.8,17.6-6.3,12.2-7.9,20.1-18.9,23.1-33.3,1.2-5.7,1.8-11.5.9-17.4-1.7-11.5-8-19.3-18.6-23.6-5.9-2.4-12.2-3.2-18.5-3.3-16.5,0-33,0-49.6,0,0,0-.2,0-.3,0-7.5,38.5-14.9,76.9-22.4,115.4ZM263.2,149.1c1.1-5.6,2.2-11.2,3.2-16.7,2.2-11.4,4.4-22.7,6.6-34.1,1-4.9,1.9-9.9,1.3-14.9-.6-5.5-2.8-10.3-7.6-13.4-1.9-1.2-3.9-2.2-6.1-2.9-6.1-2.2-12.4-2.7-18.8-2.8-7.8,0-15.6,0-23.3,0-.3,0-.6,0-.9,0,2-10.3,4-20.5,6-30.7h-25c-7.5,38.5-15,77-22.4,115.5h25c4.3-22.1,8.6-44.1,12.8-66.1.1,0,.3,0,.4,0,7.2,0,14.4,0,21.7,0,2.3,0,4.6.5,6.8,1,3.5.9,5.3,3.1,5.5,6.6.1,1.9,0,3.9-.3,5.8-.6,3.8-1.4,7.6-2.1,11.4-2.3,12-4.7,24-7,36-.3,1.8-.7,3.5-1,5.4h25.4Z"/>
  <path class="cls-5" d="M167.1,218.9c-.1,0-.2-.1-.4-.2.1,0,.2.1.4.2Z"/>
  <path class="cls-18" d="M261.7,10.4c0,0,.1,0,.2,0,0,0-.1,0-.2,0Z"/>
  <path class="cls-10" d="M91.5,64.3c.2,0,.3,0,.4,0,16.5,0,32.9,0,49.4,0,6.4,0,12.7.9,18.7,3.3,10.8,4.4,17.2,12.3,18.6,24,1.1,8.9-.2,17.5-3.6,25.7-5.3,13.1-14.4,22.6-27.6,28.1-4.7,2-9.7,2.8-14.7,3.3-8.8.9-17.5.4-26.3.5-2.1,0-4.1,0-6.2,0-.5,2.5-1,4.9-1.4,7.3-1.5,7.6-2.9,15.2-4.4,22.8,0,.2-.4.6-.6.6-8.1,0-16.2,0-24.3,0,0,0-.2,0-.3,0,7.5-38.5,14.9-76.9,22.4-115.4ZM103.7,130.8c.3,0,.5,0,.7,0,4.8,0,9.6,0,14.4,0,4.4,0,8.7-.3,13-1.3,5.2-1.3,9.9-3.5,13.3-7.8,2.8-3.4,4.4-7.4,5.6-11.5.5-1.7.9-3.5,1.2-5.2.3-1.6.5-3.3.6-4.9,0-1.2,0-2.3,0-3.5,0-2-.4-3.9-1.2-5.8-1.5-3.6-4.5-5.5-8-6.6-3.8-1.2-7.7-1.6-11.6-1.6-6,0-12.1,0-18.1,0-.1,0-.3,0-.5,0-3.1,16.1-6.2,32.1-9.4,48.3Z"/>
  <path class="cls-10" d="M265.5,179.8c7.5-38.5,15-77,22.4-115.4.1,0,.2,0,.3,0,16.5,0,33,0,49.6,0,6.3,0,12.6.9,18.5,3.3,10.7,4.3,17,12.1,18.6,23.6.8,5.9.3,11.7-.9,17.4-3,14.4-10.9,25.3-23.1,33.3-5.3,3.5-11.3,5.3-17.6,6.3-5.3.8-10.6,1.1-16,1.1-6.6,0-13.1,0-19.7,0h-1c-2,10.2-4,20.4-6,30.7h-25.2ZM300.1,130.9c.3,0,.4,0,.6,0,6.9,0,13.8-.1,20.7-.3,1.9,0,3.8-.4,5.7-.8,2.1-.5,4.1-1.2,6.1-1.9,4.2-1.6,7.4-4.5,9.8-8.2,1.9-2.9,3.1-6.2,4.1-9.5,1-3.6,1.7-7.3,1.8-11,0-2-.2-4-.5-6-.4-2.1-1.4-4.1-3-5.6-1.5-1.5-3.4-2.4-5.4-3.1-3.5-1.2-7.2-1.6-10.9-1.7-6.3-.1-12.7,0-19,0-.5,0-.7,0-.8.6-.6,3.5-1.4,7-2.1,10.5-.6,3.2-1.2,6.3-1.8,9.5-.6,2.9-1.2,5.8-1.7,8.7-.4,1.8-.7,3.7-1.1,5.5-.5,2.9-1.1,5.8-1.6,8.7-.3,1.6-.6,3.1-1,4.8Z"/>
  <path class="cls-10" d="M263.2,149.1h-25.4c.3-1.8.7-3.6,1-5.4,2.3-12,4.7-24,7-36,.7-3.8,1.5-7.6,2.1-11.4.3-1.9.4-3.9.3-5.8-.2-3.5-2-5.7-5.5-6.6-2.2-.6-4.5-1-6.8-1-7.2-.1-14.4,0-21.7,0-.1,0-.2,0-.4,0-4.3,22-8.6,44.1-12.8,66.1h-25c7.5-38.5,15-77,22.4-115.5h25c-2,10.2-4,20.4-6,30.7.3,0,.6,0,.9,0,7.8,0,15.6,0,23.3,0,6.4,0,12.7.6,18.8,2.8,2.1.8,4.2,1.7,6.1,2.9,4.8,3.1,7,7.8,7.6,13.4.6,5.1-.3,10-1.3,14.9-2.2,11.4-4.4,22.7-6.6,34.1-1.1,5.5-2.2,11.1-3.2,16.7Z"/>
  <path class="cls-21" d="M103.7,130.8c3.1-16.2,6.3-32.2,9.4-48.3.2,0,.3,0,.5,0,6,0,12.1,0,18.1,0,3.9,0,7.8.4,11.6,1.6,3.5,1.1,6.6,3,8,6.6.8,1.8,1.2,3.8,1.2,5.8,0,1.2,0,2.4,0,3.5-.1,1.6-.3,3.3-.6,4.9-.3,1.8-.7,3.5-1.2,5.2-1.2,4.2-2.9,8.1-5.6,11.5-3.5,4.3-8.1,6.6-13.3,7.8-4.3,1.1-8.6,1.3-13,1.3-4.8,0-9.6,0-14.4,0-.2,0-.4,0-.7,0ZM109.5,126.1c.4,0,.6,0,.9,0,3.4,0,6.8,0,10.1,0,3.6,0,7.2-.4,10.7-1.3,4.7-1.2,8.8-3.3,11.4-7.6,4-6.7,5.7-14,5.1-21.8-.2-3.1-1.9-5.3-4.9-6.4-3.5-1.2-7.1-1.6-10.7-1.7-4.3,0-8.6,0-12.9,0-2,0-2,0-2.4,2-1.2,6-2.4,12.1-3.6,18.1-.9,4.6-1.8,9.2-2.6,13.8-.3,1.6-.6,3.2-.9,4.9Z"/>
  <path class="cls-21" d="M300.1,130.9c.3-1.7.7-3.2,1-4.8.6-2.9,1.1-5.8,1.6-8.7.3-1.8.7-3.7,1.1-5.5.6-2.9,1.2-5.8,1.7-8.7.6-3.2,1.2-6.3,1.8-9.5.7-3.5,1.4-7,2.1-10.5.1-.6.3-.6.8-.6,6.3,0,12.7,0,19,0,3.7,0,7.4.5,10.9,1.7,2,.7,3.9,1.6,5.4,3.1,1.6,1.5,2.6,3.5,3,5.6.4,2,.6,4,.5,6-.1,3.7-.8,7.4-1.8,11-1,3.4-2.2,6.6-4.1,9.5-2.4,3.7-5.6,6.6-9.8,8.2-2,.8-4.1,1.4-6.1,1.9-1.9.4-3.8.8-5.7.8-6.9.2-13.8.2-20.7.3-.1,0-.2,0-.6,0ZM305.9,126.1c.3,0,.6,0,.8,0,3.4,0,6.8,0,10.2,0,3.6,0,7.1-.4,10.6-1.3,4.9-1.2,9-3.5,11.7-7.9,3.7-6.3,5.3-13.3,5-20.6-.2-4.5-2-6.5-6.3-7.8-3.1-.9-6.3-1.2-9.6-1.2-4.7,0-9.3,0-14,0-.3,0-.5,0-.9,0-2.5,12.9-5,25.8-7.6,38.8Z"/>
  <path class="cls-18" d="M109.5,126.1c.3-1.7.6-3.3.9-4.9.9-4.6,1.7-9.2,2.6-13.8,1.2-6,2.4-12.1,3.6-18.1.4-2,.4-2,2.4-2,4.3,0,8.6,0,12.9,0,3.6,0,7.2.4,10.7,1.7,3.1,1.1,4.7,3.3,4.9,6.4.5,7.8-1.1,15.1-5.1,21.8-2.6,4.3-6.7,6.4-11.4,7.6-3.5.9-7.1,1.3-10.7,1.3-3.4,0-6.8,0-10.1,0-.2,0-.5,0-.9,0Z"/>
  <path class="cls-18" d="M305.9,126.1c2.5-12.9,5-25.8,7.6-38.8.3,0,.6,0,.9,0,4.7,0,9.3,0,14,0,3.2,0,6.4.3,9.6,1.2,4.4,1.3,6.1,3.3,6.3,7.8.3,7.3-1.3,14.2-5,20.6-2.6,4.4-6.8,6.8-11.7,7.9-3.5.8-7,1.3-10.6,1.3-3.4,0-6.8,0-10.2,0-.3,0-.5,0-.8,0Z"/>
</svg>