<svg width="916" height="916" viewBox="0 0 916 916" fill="none" xmlns="http://www.w3.org/2000/svg">
<path d="M457.686 893.379C216.943 893.379 21.9688 697.494 21.9688 457.673C21.9688 217.852 217.858 21.9683 457.686 21.9683C697.514 21.9683 893.403 217.852 893.403 457.673C893.403 697.494 697.514 893.379 457.686 893.379Z" fill="#85EA2D"/>
<path d="M457.686 43.0213C686.529 43.0213 872.35 228.837 872.35 457.674C872.35 686.51 686.529 872.326 457.686 872.326C228.843 872.326 43.0225 686.51 43.0225 457.674C43.0225 228.837 228.843 43.0213 457.686 43.0213ZM457.686 0C205.043 0 0 205.038 0 457.674C0 710.309 205.043 915.347 457.686 915.347C710.329 915.347 915.373 710.309 915.373 457.674C915.373 205.038 709.414 0 457.686 0Z" fill="#173647"/>
<path d="M287.427 309.387C285.596 324.948 288.342 341.424 286.512 356.985C285.596 372.546 283.766 388.107 280.104 404.583C275.527 426.552 261.797 443.943 242.574 457.673C280.104 482.388 283.766 519.917 286.512 557.446C287.427 578.499 287.427 598.637 289.258 619.69C291.089 635.251 296.581 639.828 313.058 639.828C319.465 639.828 326.788 639.828 334.111 639.828V688.341C285.596 696.579 245.32 682.849 236.166 641.658C233.42 627.013 230.674 611.452 229.759 595.891C228.843 579.415 230.674 562.939 228.843 546.462C225.182 501.61 219.69 486.049 176.667 484.219V428.382C179.413 427.467 183.075 427.467 185.821 426.552C209.62 425.636 219.689 418.314 224.266 394.515C227.012 381.7 227.928 367.969 228.843 355.155C230.674 329.525 229.759 303.895 234.335 278.266C240.743 241.652 262.712 224.26 300.242 222.429C311.227 221.514 321.296 222.429 334.111 222.429V272.773C328.619 272.773 324.957 273.689 320.38 273.689C292.004 273.689 290.173 283.758 287.427 309.387ZM346.011 425.636C327.703 424.721 312.142 438.451 311.227 455.843C310.311 473.234 324.042 488.795 341.434 489.711H343.265C360.657 490.626 375.303 477.811 377.134 459.504V457.673C378.049 440.282 364.318 425.636 346.011 425.636ZM456.771 425.636C439.379 424.721 425.648 438.451 424.733 455.843C424.733 456.758 424.733 457.674 424.733 458.589C424.733 477.811 437.548 489.711 457.686 489.711C476.909 489.711 488.809 476.896 488.809 456.758C488.809 437.536 475.994 425.636 456.771 425.636ZM570.277 425.636C551.97 425.636 537.324 439.367 536.408 457.673C536.408 475.98 551.054 489.711 568.446 489.711C584.923 492.457 601.4 476.896 602.315 457.673C603.231 440.282 587.669 425.636 570.277 425.636ZM724.975 428.382C704.837 427.467 694.768 421.06 689.276 400.922C686.529 389.022 683.783 375.292 683.783 363.393C681.953 339.594 682.868 315.795 681.037 291.996C677.376 236.16 637.099 216.022 577.6 226.091V274.604C586.754 274.604 594.077 274.604 601.4 274.604C614.215 274.604 623.369 279.181 624.284 293.826C625.2 306.641 625.2 319.456 627.03 332.271C629.776 357.901 630.692 383.53 635.269 409.16C638.93 430.213 653.576 445.774 670.968 457.673C639.846 478.726 630.692 508.933 628.861 541.886C627.946 564.769 627.03 588.568 626.115 611.452C625.2 632.505 617.877 639.828 595.908 639.828C589.5 639.828 584.008 640.743 577.6 640.743V690.172C590.415 690.172 601.4 691.087 613.3 690.172C648.999 688.341 670.053 670.949 677.376 636.166C680.122 616.944 681.953 597.722 682.868 578.499C683.783 561.108 683.783 542.801 685.614 525.409C688.36 497.949 701.176 486.965 727.721 485.134C730.467 485.134 733.213 484.219 735.044 483.303V427.467C731.383 428.382 728.637 428.382 724.975 428.382Z" fill="#173647"/>
</svg>
