<?xml version="1.0" encoding="utf-8"?>
<!-- Generator: Adobe Illustrator 28.1.0, SVG Export Plug-In . SVG Version: 6.00 Build 0)  -->
<svg version="1.1" id="Calque_1" xmlns="http://www.w3.org/2000/svg" xmlns:xlink="http://www.w3.org/1999/xlink" x="0px" y="0px"
	 viewBox="0 0 203.7 203.4" style="enable-background:new 0 0 203.7 203.4;" xml:space="preserve">
<style type="text/css">
	.st0{fill:#A4A4A3;}
</style>
<g>
	<g>
		<path class="st0" d="M0,101.3C0.9,45.1,44.8,0.2,101.3,0c57-0.2,102.3,43.9,102.4,102.1c0.1,56.3-44.6,101.2-101.6,101.3
			C45.6,203.5,0.8,158.9,0,101.3z M4.9,100.6c0.7,55.5,43.1,97.9,97,97.8c54.9-0.1,96.7-42.5,96.9-96c0.2-55.8-42.7-97.3-96.4-97.5
			C48,4.8,6.5,47,4.9,100.6z"/>
		<path class="st0" d="M62.2,71c0.1-3.7,0.1-3.3-4-3.3c-11.6,0.2-23.2,0.1-35.6,0.1c10.9-24,28.5-40.1,53.3-48.2
			c33.6-11,70.5,0.9,91.7,26.1c-4.9,1.5-9.6,3.7-10.1,9.2c-0.4,4.8-0.5,10,1.1,14.4c4.4,12.1,7.8,24.3,4.7,37.1
			c-2.5,10.3-6,20.4-9.3,30.6c-1.3,4-3.1,7.9-5.2,13c-3-7.9-5.7-14.8-8.3-21.6c-5.6-14.8-11.1-29.6-16.6-44.4
			c-3.1-8.4-2-10.4,6.7-12.1c1.4-0.3,2.7-1.6,4-2.5c-1.5-0.6-3-1.7-4.5-1.7c-16.9-0.1-33.8-0.1-50.8,0c-1.5,0-2.9,1.2-4.4,1.9
			c1.4,0.9,2.6,2.2,4.1,2.5c5.9,1.2,10.1,3.8,12.1,9.9c2.2,6.7,4.8,13.2,7.8,19.7c1.4,3.2,1.4,5.7,0,8.8
			c-5.5,12.7-10.8,25.5-16.2,38.2c-0.4,1-1,2-1.8,3.6c-5.1-12.8-10-25-14.9-37.3c-4-9.9-7.7-20-12.1-29.7
			C49.9,76.2,52.9,71.6,62.2,71z"/>
		<path class="st0" d="M74.5,183.9c9.9-23.1,19.6-45.7,29.7-69.3c3.3,8.5,6.3,16.2,9.2,23.9c5.3,13.8,10.3,27.6,15.9,41.3
			c1.5,3.6,0.3,4.1-2.6,5C109.5,190,92.4,189.9,74.5,183.9z"/>
		<path class="st0" d="M19.7,78.2c13.4,32.9,26.7,65.4,40,98.1C30.6,170.4,4.3,106.3,19.7,78.2z"/>
		<path class="st0" d="M184.4,76.1c12,35.5-2.4,79.4-38.6,100.2C158.9,142.4,171.5,109.6,184.4,76.1z"/>
	</g>
</g>
</svg>
